{
.appVersion = "3151";
.formatVersion = 3;
axes = (
{
name = Weight;
tag = wght;
}
);
date = "2022-05-31 16:00:08 +0000";
familyName = "Altium Designer Stroke";
fontMaster = (
{
axesValues = (
0
);
customParameters = (
{
name = "Master Icon Glyph Name";
value = Stroke;
}
);
iconName = Light;
id = m01;
metricValues = (
{
pos = 700;
},
{
pos = 600;
},
{
pos = 400;
},
{
},
{
pos = -200;
},
{
over = -16;
}
);
name = Stroke;
},
{
axesValues = (
30
);
customParameters = (
{
name = "Master Icon Glyph Name";
value = "Light 300";
}
);
iconName = SemiLight;
id = "BA8956FC-D56C-4217-8F3F-AABAC9C1291C";
metricValues = (
{
pos = 700;
},
{
pos = 600;
},
{
pos = 400;
},
{
},
{
pos = -200;
},
{
}
);
name = "Light 300";
},
{
axesValues = (
40
);
customParameters = (
{
name = "Master Icon Glyph Name";
value = "Regular 400";
}
);
id = "95B08458-B918-474B-A742-A9E3D7F32A73";
metricValues = (
{
pos = 700;
},
{
pos = 600;
},
{
pos = 400;
},
{
},
{
pos = -200;
},
{
}
);
name = "Regular 400";
},
{
axesValues = (
50
);
customParameters = (
{
name = "Master Icon Glyph Name";
value = "Medium 500";
}
);
iconName = SemiBold;
id = "100BDB2C-EC52-4B94-A255-ABC384BB93CE";
metricValues = (
{
pos = 700;
},
{
pos = 600;
},
{
pos = 400;
},
{
},
{
pos = -200;
},
{
}
);
name = "Medium 500";
},
{
axesValues = (
70
);
customParameters = (
{
name = "Master Icon Glyph Name";
value = "Bold 700";
}
);
iconName = Bold;
id = "9358492D-4FF9-4F7B-B997-4920F2B241F5";
metricValues = (
{
pos = 700;
},
{
pos = 600;
},
{
pos = 400;
},
{
},
{
pos = -200;
},
{
}
);
name = "Bold 700";
}
);
glyphs = (
{
glyphname = A;
lastChange = "2023-06-01 17:39:34 +0000";
layers = (
{
layerId = m01;
shapes = (
{
attr = {
fillColor = (0,255);
lineCapEnd = 1;
lineCapStart = 1;
};
closed = 0;
nodes = (
(0,0,l),
(0,400,l)
);
},
{
attr = {
fillColor = (0,255);
lineCapEnd = 1;
lineCapStart = 1;
};
closed = 0;
nodes = (
(0,400,l),
(200,600,l)
);
},
{
attr = {
fillColor = (0,255);
lineCapEnd = 1;
lineCapStart = 1;
};
closed = 0;
nodes = (
(200,600,l),
(400,400,l)
);
},
{
attr = {
fillColor = (0,255);
lineCapEnd = 1;
lineCapStart = 1;
};
closed = 0;
nodes = (
(400,400,l),
(400,0,l)
);
},
{
attr = {
fillColor = (0,255);
lineCapEnd = 1;
lineCapStart = 1;
};
closed = 0;
nodes = (
(400,0,l),
(400,300,l)
);
},
{
attr = {
fillColor = (0,255);
lineCapEnd = 1;
lineCapStart = 1;
};
closed = 0;
nodes = (
(400,300,l),
(0,300,l)
);
}
);
width = 400;
},
{
layerId = "BA8956FC-D56C-4217-8F3F-AABAC9C1291C";
shapes = (
{
attr = {
fillColor = (0,255);
lineCapEnd = 1;
lineCapStart = 1;
strokeWidth = 30;
};
closed = 0;
nodes = (
(45,0,l),
(45,400,l)
);
},
{
attr = {
fillColor = (0,255);
lineCapEnd = 1;
lineCapStart = 1;
strokeWidth = 30;
};
closed = 0;
nodes = (
(45,400,l),
(245,600,l)
);
},
{
attr = {
fillColor = (0,255);
lineCapEnd = 1;
lineCapStart = 1;
strokeWidth = 30;
};
closed = 0;
nodes = (
(245,600,l),
(445,400,l)
);
},
{
attr = {
fillColor = (0,255);
lineCapEnd = 1;
lineCapStart = 1;
strokeWidth = 30;
};
closed = 0;
nodes = (
(445,400,l),
(445,0,l)
);
},
{
attr = {
fillColor = (0,255);
lineCapEnd = 1;
lineCapStart = 1;
strokeWidth = 30;
};
closed = 0;
nodes = (
(445,0,l),
(445,300,l)
);
},
{
attr = {
fillColor = (0,255);
lineCapEnd = 1;
lineCapStart = 1;
strokeWidth = 30;
};
closed = 0;
nodes = (
(445,300,l),
(45,300,l)
);
}
);
width = 490;
},
{
layerId = "95B08458-B918-474B-A742-A9E3D7F32A73";
shapes = (
{
attr = {
fillColor = (0,255);
lineCapEnd = 1;
lineCapStart = 1;
strokeWidth = 40;
};
closed = 0;
nodes = (
(60,0,l),
(60,400,l)
);
},
{
attr = {
fillColor = (0,255);
lineCapEnd = 1;
lineCapStart = 1;
strokeWidth = 40;
};
closed = 0;
nodes = (
(60,400,l),
(260,600,l)
);
},
{
attr = {
fillColor = (0,255);
lineCapEnd = 1;
lineCapStart = 1;
strokeWidth = 40;
};
closed = 0;
nodes = (
(260,600,l),
(460,400,l)
);
},
{
attr = {
fillColor = (0,255);
lineCapEnd = 1;
lineCapStart = 1;
strokeWidth = 40;
};
closed = 0;
nodes = (
(460,400,l),
(460,0,l)
);
},
{
attr = {
fillColor = (0,255);
lineCapEnd = 1;
lineCapStart = 1;
strokeWidth = 40;
};
closed = 0;
nodes = (
(460,0,l),
(460,300,l)
);
},
{
attr = {
fillColor = (0,255);
lineCapEnd = 1;
lineCapStart = 1;
strokeWidth = 40;
};
closed = 0;
nodes = (
(460,300,l),
(60,300,l)
);
}
);
width = 520;
},
{
layerId = "100BDB2C-EC52-4B94-A255-ABC384BB93CE";
shapes = (
{
attr = {
fillColor = (0,255);
lineCapEnd = 1;
lineCapStart = 1;
strokeWidth = 50;
};
closed = 0;
nodes = (
(75,0,l),
(75,400,l)
);
},
{
attr = {
fillColor = (0,255);
lineCapEnd = 1;
lineCapStart = 1;
strokeWidth = 50;
};
closed = 0;
nodes = (
(75,400,l),
(275,600,l)
);
},
{
attr = {
fillColor = (0,255);
lineCapEnd = 1;
lineCapStart = 1;
strokeWidth = 50;
};
closed = 0;
nodes = (
(275,600,l),
(475,400,l)
);
},
{
attr = {
fillColor = (0,255);
lineCapEnd = 1;
lineCapStart = 1;
strokeWidth = 50;
};
closed = 0;
nodes = (
(475,400,l),
(475,0,l)
);
},
{
attr = {
fillColor = (0,255);
lineCapEnd = 1;
lineCapStart = 1;
strokeWidth = 50;
};
closed = 0;
nodes = (
(475,0,l),
(475,300,l)
);
},
{
attr = {
fillColor = (0,255);
lineCapEnd = 1;
lineCapStart = 1;
strokeWidth = 50;
};
closed = 0;
nodes = (
(475,300,l),
(75,300,l)
);
}
);
width = 550;
},
{
layerId = "9358492D-4FF9-4F7B-B997-4920F2B241F5";
shapes = (
{
attr = {
fillColor = (0,255);
lineCapEnd = 1;
lineCapStart = 1;
strokeWidth = 70;
};
closed = 0;
nodes = (
(105,0,l),
(105,400,l)
);
},
{
attr = {
fillColor = (0,255);
lineCapEnd = 1;
lineCapStart = 1;
strokeWidth = 70;
};
closed = 0;
nodes = (
(105,400,l),
(305,600,l)
);
},
{
attr = {
fillColor = (0,255);
lineCapEnd = 1;
lineCapStart = 1;
strokeWidth = 70;
};
closed = 0;
nodes = (
(305,600,l),
(505,400,l)
);
},
{
attr = {
fillColor = (0,255);
lineCapEnd = 1;
lineCapStart = 1;
strokeWidth = 70;
};
closed = 0;
nodes = (
(505,400,l),
(505,0,l)
);
},
{
attr = {
fillColor = (0,255);
lineCapEnd = 1;
lineCapStart = 1;
strokeWidth = 70;
};
closed = 0;
nodes = (
(505,0,l),
(505,300,l)
);
},
{
attr = {
fillColor = (0,255);
lineCapEnd = 1;
lineCapStart = 1;
strokeWidth = 70;
};
closed = 0;
nodes = (
(505,300,l),
(105,300,l)
);
}
);
width = 610;
}
);
unicode = 65;
},
{
glyphname = B;
lastChange = "2023-06-01 17:39:34 +0000";
layers = (
{
layerId = m01;
shapes = (
{
attr = {
fillColor = (0,255);
lineCapEnd = 1;
lineCapStart = 1;
};
closed = 0;
nodes = (
(0,600,l),
(0,0,l)
);
},
{
attr = {
fillColor = (0,255);
lineCapEnd = 1;
lineCapStart = 1;
};
closed = 0;
nodes = (
(0,0,l),
(300,0,l)
);
},
{
attr = {
fillColor = (0,255);
lineCapEnd = 1;
lineCapStart = 1;
};
closed = 0;
nodes = (
(300,0,l),
(400,100,l)
);
},
{
attr = {
fillColor = (0,255);
lineCapEnd = 1;
lineCapStart = 1;
};
closed = 0;
nodes = (
(400,100,l),
(400,200,l)
);
},
{
attr = {
fillColor = (0,255);
lineCapEnd = 1;
lineCapStart = 1;
};
closed = 0;
nodes = (
(400,200,l),
(300,300,l)
);
},
{
attr = {
fillColor = (0,255);
lineCapEnd = 1;
lineCapStart = 1;
};
closed = 0;
nodes = (
(300,300,l),
(0,300,l)
);
},
{
attr = {
fillColor = (0,255);
lineCapEnd = 1;
lineCapStart = 1;
};
closed = 0;
nodes = (
(0,300,l),
(0,300,l)
);
},
{
attr = {
fillColor = (0,255);
lineCapEnd = 1;
lineCapStart = 1;
};
closed = 0;
nodes = (
(0,300,l),
(0,300,l)
);
},
{
attr = {
fillColor = (0,255);
lineCapEnd = 1;
lineCapStart = 1;
};
closed = 0;
nodes = (
(0,300,l),
(0,300,l)
);
},
{
attr = {
fillColor = (0,255);
lineCapEnd = 1;
lineCapStart = 1;
};
closed = 0;
nodes = (
(0,300,l),
(300,300,l)
);
},
{
attr = {
fillColor = (0,255);
lineCapEnd = 1;
lineCapStart = 1;
};
closed = 0;
nodes = (
(300,300,l),
(400,400,l)
);
},
{
attr = {
fillColor = (0,255);
lineCapEnd = 1;
lineCapStart = 1;
};
closed = 0;
nodes = (
(400,400,l),
(400,501,l)
);
},
{
attr = {
fillColor = (0,255);
lineCapEnd = 1;
lineCapStart = 1;
};
closed = 0;
nodes = (
(400,501,l),
(300,600,l)
);
},
{
attr = {
fillColor = (0,255);
lineCapEnd = 1;
lineCapStart = 1;
};
closed = 0;
nodes = (
(300,600,l),
(0,600,l)
);
}
);
width = 400;
},
{
layerId = "BA8956FC-D56C-4217-8F3F-AABAC9C1291C";
shapes = (
{
attr = {
fillColor = (0,255);
lineCapEnd = 1;
lineCapStart = 1;
strokeWidth = 30;
};
closed = 0;
nodes = (
(45,600,l),
(45,0,l)
);
},
{
attr = {
fillColor = (0,255);
lineCapEnd = 1;
lineCapStart = 1;
strokeWidth = 30;
};
closed = 0;
nodes = (
(45,0,l),
(345,0,l)
);
},
{
attr = {
fillColor = (0,255);
lineCapEnd = 1;
lineCapStart = 1;
strokeWidth = 30;
};
closed = 0;
nodes = (
(345,0,l),
(445,100,l)
);
},
{
attr = {
fillColor = (0,255);
lineCapEnd = 1;
lineCapStart = 1;
strokeWidth = 30;
};
closed = 0;
nodes = (
(445,100,l),
(445,200,l)
);
},
{
attr = {
fillColor = (0,255);
lineCapEnd = 1;
lineCapStart = 1;
strokeWidth = 30;
};
closed = 0;
nodes = (
(445,200,l),
(345,300,l)
);
},
{
attr = {
fillColor = (0,255);
lineCapEnd = 1;
lineCapStart = 1;
strokeWidth = 30;
};
closed = 0;
nodes = (
(345,300,l),
(45,300,l)
);
},
{
attr = {
fillColor = (0,255);
lineCapEnd = 1;
lineCapStart = 1;
strokeWidth = 30;
};
closed = 0;
nodes = (
(45,300,l),
(45,300,l)
);
},
{
attr = {
fillColor = (0,255);
lineCapEnd = 1;
lineCapStart = 1;
strokeWidth = 30;
};
closed = 0;
nodes = (
(45,300,l),
(45,300,l)
);
},
{
attr = {
fillColor = (0,255);
lineCapEnd = 1;
lineCapStart = 1;
strokeWidth = 30;
};
closed = 0;
nodes = (
(45,300,l),
(45,300,l)
);
},
{
attr = {
fillColor = (0,255);
lineCapEnd = 1;
lineCapStart = 1;
strokeWidth = 30;
};
closed = 0;
nodes = (
(45,300,l),
(345,300,l)
);
},
{
attr = {
fillColor = (0,255);
lineCapEnd = 1;
lineCapStart = 1;
strokeWidth = 30;
};
closed = 0;
nodes = (
(345,300,l),
(445,400,l)
);
},
{
attr = {
fillColor = (0,255);
lineCapEnd = 1;
lineCapStart = 1;
strokeWidth = 30;
};
closed = 0;
nodes = (
(445,400,l),
(445,501,l)
);
},
{
attr = {
fillColor = (0,255);
lineCapEnd = 1;
lineCapStart = 1;
strokeWidth = 30;
};
closed = 0;
nodes = (
(445,501,l),
(345,600,l)
);
},
{
attr = {
fillColor = (0,255);
lineCapEnd = 1;
lineCapStart = 1;
strokeWidth = 30;
};
closed = 0;
nodes = (
(345,600,l),
(45,600,l)
);
}
);
width = 490;
},
{
layerId = "95B08458-B918-474B-A742-A9E3D7F32A73";
shapes = (
{
attr = {
fillColor = (0,255);
lineCapEnd = 1;
lineCapStart = 1;
strokeWidth = 40;
};
closed = 0;
nodes = (
(60,600,l),
(60,0,l)
);
},
{
attr = {
fillColor = (0,255);
lineCapEnd = 1;
lineCapStart = 1;
strokeWidth = 40;
};
closed = 0;
nodes = (
(60,0,l),
(360,0,l)
);
},
{
attr = {
fillColor = (0,255);
lineCapEnd = 1;
lineCapStart = 1;
strokeWidth = 40;
};
closed = 0;
nodes = (
(360,0,l),
(460,100,l)
);
},
{
attr = {
fillColor = (0,255);
lineCapEnd = 1;
lineCapStart = 1;
strokeWidth = 40;
};
closed = 0;
nodes = (
(460,100,l),
(460,200,l)
);
},
{
attr = {
fillColor = (0,255);
lineCapEnd = 1;
lineCapStart = 1;
strokeWidth = 40;
};
closed = 0;
nodes = (
(460,200,l),
(360,300,l)
);
},
{
attr = {
fillColor = (0,255);
lineCapEnd = 1;
lineCapStart = 1;
strokeWidth = 40;
};
closed = 0;
nodes = (
(360,300,l),
(60,300,l)
);
},
{
attr = {
fillColor = (0,255);
lineCapEnd = 1;
lineCapStart = 1;
strokeWidth = 40;
};
closed = 0;
nodes = (
(60,300,l),
(60,300,l)
);
},
{
attr = {
fillColor = (0,255);
lineCapEnd = 1;
lineCapStart = 1;
strokeWidth = 40;
};
closed = 0;
nodes = (
(60,300,l),
(60,300,l)
);
},
{
attr = {
fillColor = (0,255);
lineCapEnd = 1;
lineCapStart = 1;
strokeWidth = 40;
};
closed = 0;
nodes = (
(60,300,l),
(60,300,l)
);
},
{
attr = {
fillColor = (0,255);
lineCapEnd = 1;
lineCapStart = 1;
strokeWidth = 40;
};
closed = 0;
nodes = (
(60,300,l),
(360,300,l)
);
},
{
attr = {
fillColor = (0,255);
lineCapEnd = 1;
lineCapStart = 1;
strokeWidth = 40;
};
closed = 0;
nodes = (
(360,300,l),
(460,400,l)
);
},
{
attr = {
fillColor = (0,255);
lineCapEnd = 1;
lineCapStart = 1;
strokeWidth = 40;
};
closed = 0;
nodes = (
(460,400,l),
(460,501,l)
);
},
{
attr = {
fillColor = (0,255);
lineCapEnd = 1;
lineCapStart = 1;
strokeWidth = 40;
};
closed = 0;
nodes = (
(460,501,l),
(360,600,l)
);
},
{
attr = {
fillColor = (0,255);
lineCapEnd = 1;
lineCapStart = 1;
strokeWidth = 40;
};
closed = 0;
nodes = (
(360,600,l),
(60,600,l)
);
}
);
width = 520;
},
{
layerId = "100BDB2C-EC52-4B94-A255-ABC384BB93CE";
shapes = (
{
attr = {
fillColor = (0,255);
lineCapEnd = 1;
lineCapStart = 1;
strokeWidth = 50;
};
closed = 0;
nodes = (
(75,600,l),
(75,0,l)
);
},
{
attr = {
fillColor = (0,255);
lineCapEnd = 1;
lineCapStart = 1;
strokeWidth = 50;
};
closed = 0;
nodes = (
(75,0,l),
(375,0,l)
);
},
{
attr = {
fillColor = (0,255);
lineCapEnd = 1;
lineCapStart = 1;
strokeWidth = 50;
};
closed = 0;
nodes = (
(375,0,l),
(475,100,l)
);
},
{
attr = {
fillColor = (0,255);
lineCapEnd = 1;
lineCapStart = 1;
strokeWidth = 50;
};
closed = 0;
nodes = (
(475,100,l),
(475,200,l)
);
},
{
attr = {
fillColor = (0,255);
lineCapEnd = 1;
lineCapStart = 1;
strokeWidth = 50;
};
closed = 0;
nodes = (
(475,200,l),
(375,300,l)
);
},
{
attr = {
fillColor = (0,255);
lineCapEnd = 1;
lineCapStart = 1;
strokeWidth = 50;
};
closed = 0;
nodes = (
(375,300,l),
(75,300,l)
);
},
{
attr = {
fillColor = (0,255);
lineCapEnd = 1;
lineCapStart = 1;
strokeWidth = 50;
};
closed = 0;
nodes = (
(75,300,l),
(75,300,l)
);
},
{
attr = {
fillColor = (0,255);
lineCapEnd = 1;
lineCapStart = 1;
strokeWidth = 50;
};
closed = 0;
nodes = (
(75,300,l),
(75,300,l)
);
},
{
attr = {
fillColor = (0,255);
lineCapEnd = 1;
lineCapStart = 1;
strokeWidth = 50;
};
closed = 0;
nodes = (
(75,300,l),
(75,300,l)
);
},
{
attr = {
fillColor = (0,255);
lineCapEnd = 1;
lineCapStart = 1;
strokeWidth = 50;
};
closed = 0;
nodes = (
(75,300,l),
(375,300,l)
);
},
{
attr = {
fillColor = (0,255);
lineCapEnd = 1;
lineCapStart = 1;
strokeWidth = 50;
};
closed = 0;
nodes = (
(375,300,l),
(475,400,l)
);
},
{
attr = {
fillColor = (0,255);
lineCapEnd = 1;
lineCapStart = 1;
strokeWidth = 50;
};
closed = 0;
nodes = (
(475,400,l),
(475,501,l)
);
},
{
attr = {
fillColor = (0,255);
lineCapEnd = 1;
lineCapStart = 1;
strokeWidth = 50;
};
closed = 0;
nodes = (
(475,501,l),
(375,600,l)
);
},
{
attr = {
fillColor = (0,255);
lineCapEnd = 1;
lineCapStart = 1;
strokeWidth = 50;
};
closed = 0;
nodes = (
(375,600,l),
(75,600,l)
);
}
);
width = 550;
},
{
layerId = "9358492D-4FF9-4F7B-B997-4920F2B241F5";
shapes = (
{
attr = {
fillColor = (0,255);
lineCapEnd = 1;
lineCapStart = 1;
strokeWidth = 70;
};
closed = 0;
nodes = (
(105,600,l),
(105,0,l)
);
},
{
attr = {
fillColor = (0,255);
lineCapEnd = 1;
lineCapStart = 1;
strokeWidth = 70;
};
closed = 0;
nodes = (
(105,0,l),
(405,0,l)
);
},
{
attr = {
fillColor = (0,255);
lineCapEnd = 1;
lineCapStart = 1;
strokeWidth = 70;
};
closed = 0;
nodes = (
(405,0,l),
(505,100,l)
);
},
{
attr = {
fillColor = (0,255);
lineCapEnd = 1;
lineCapStart = 1;
strokeWidth = 70;
};
closed = 0;
nodes = (
(505,100,l),
(505,200,l)
);
},
{
attr = {
fillColor = (0,255);
lineCapEnd = 1;
lineCapStart = 1;
strokeWidth = 70;
};
closed = 0;
nodes = (
(505,200,l),
(405,300,l)
);
},
{
attr = {
fillColor = (0,255);
lineCapEnd = 1;
lineCapStart = 1;
strokeWidth = 70;
};
closed = 0;
nodes = (
(405,300,l),
(105,300,l)
);
},
{
attr = {
fillColor = (0,255);
lineCapEnd = 1;
lineCapStart = 1;
strokeWidth = 70;
};
closed = 0;
nodes = (
(105,300,l),
(105,300,l)
);
},
{
attr = {
fillColor = (0,255);
lineCapEnd = 1;
lineCapStart = 1;
strokeWidth = 70;
};
closed = 0;
nodes = (
(105,300,l),
(105,300,l)
);
},
{
attr = {
fillColor = (0,255);
lineCapEnd = 1;
lineCapStart = 1;
strokeWidth = 70;
};
closed = 0;
nodes = (
(105,300,l),
(105,300,l)
);
},
{
attr = {
fillColor = (0,255);
lineCapEnd = 1;
lineCapStart = 1;
strokeWidth = 70;
};
closed = 0;
nodes = (
(105,300,l),
(405,300,l)
);
},
{
attr = {
fillColor = (0,255);
lineCapEnd = 1;
lineCapStart = 1;
strokeWidth = 70;
};
closed = 0;
nodes = (
(405,300,l),
(505,400,l)
);
},
{
attr = {
fillColor = (0,255);
lineCapEnd = 1;
lineCapStart = 1;
strokeWidth = 70;
};
closed = 0;
nodes = (
(505,400,l),
(505,501,l)
);
},
{
attr = {
fillColor = (0,255);
lineCapEnd = 1;
lineCapStart = 1;
strokeWidth = 70;
};
closed = 0;
nodes = (
(505,501,l),
(405,600,l)
);
},
{
attr = {
fillColor = (0,255);
lineCapEnd = 1;
lineCapStart = 1;
strokeWidth = 70;
};
closed = 0;
nodes = (
(405,600,l),
(105,600,l)
);
}
);
width = 610;
}
);
unicode = 66;
},
{
glyphname = C;
lastChange = "2023-06-01 17:39:34 +0000";
layers = (
{
layerId = m01;
shapes = (
{
attr = {
fillColor = (0,255);
lineCapEnd = 1;
lineCapStart = 1;
};
closed = 0;
nodes = (
(400,501,l),
(300,600,l)
);
},
{
attr = {
fillColor = (0,255);
lineCapEnd = 1;
lineCapStart = 1;
};
closed = 0;
nodes = (
(300,600,l),
(100,600,l)
);
},
{
attr = {
fillColor = (0,255);
lineCapEnd = 1;
lineCapStart = 1;
};
closed = 0;
nodes = (
(100,600,l),
(0,501,l)
);
},
{
attr = {
fillColor = (0,255);
lineCapEnd = 1;
lineCapStart = 1;
};
closed = 0;
nodes = (
(0,501,l),
(0,100,l)
);
},
{
attr = {
fillColor = (0,255);
lineCapEnd = 1;
lineCapStart = 1;
};
closed = 0;
nodes = (
(0,100,l),
(100,0,l)
);
},
{
attr = {
fillColor = (0,255);
lineCapEnd = 1;
lineCapStart = 1;
};
closed = 0;
nodes = (
(100,0,l),
(300,0,l)
);
},
{
attr = {
fillColor = (0,255);
lineCapEnd = 1;
lineCapStart = 1;
};
closed = 0;
nodes = (
(300,0,l),
(400,100,l)
);
}
);
width = 400;
},
{
layerId = "BA8956FC-D56C-4217-8F3F-AABAC9C1291C";
shapes = (
{
attr = {
fillColor = (0,255);
lineCapEnd = 1;
lineCapStart = 1;
strokeWidth = 30;
};
closed = 0;
nodes = (
(445,501,l),
(345,600,l)
);
},
{
attr = {
fillColor = (0,255);
lineCapEnd = 1;
lineCapStart = 1;
strokeWidth = 30;
};
closed = 0;
nodes = (
(345,600,l),
(145,600,l)
);
},
{
attr = {
fillColor = (0,255);
lineCapEnd = 1;
lineCapStart = 1;
strokeWidth = 30;
};
closed = 0;
nodes = (
(145,600,l),
(45,501,l)
);
},
{
attr = {
fillColor = (0,255);
lineCapEnd = 1;
lineCapStart = 1;
strokeWidth = 30;
};
closed = 0;
nodes = (
(45,501,l),
(45,100,l)
);
},
{
attr = {
fillColor = (0,255);
lineCapEnd = 1;
lineCapStart = 1;
strokeWidth = 30;
};
closed = 0;
nodes = (
(45,100,l),
(145,0,l)
);
},
{
attr = {
fillColor = (0,255);
lineCapEnd = 1;
lineCapStart = 1;
strokeWidth = 30;
};
closed = 0;
nodes = (
(145,0,l),
(345,0,l)
);
},
{
attr = {
fillColor = (0,255);
lineCapEnd = 1;
lineCapStart = 1;
strokeWidth = 30;
};
closed = 0;
nodes = (
(345,0,l),
(445,100,l)
);
}
);
width = 490;
},
{
layerId = "95B08458-B918-474B-A742-A9E3D7F32A73";
shapes = (
{
attr = {
fillColor = (0,255);
lineCapEnd = 1;
lineCapStart = 1;
strokeWidth = 40;
};
closed = 0;
nodes = (
(460,501,l),
(360,600,l)
);
},
{
attr = {
fillColor = (0,255);
lineCapEnd = 1;
lineCapStart = 1;
strokeWidth = 40;
};
closed = 0;
nodes = (
(360,600,l),
(160,600,l)
);
},
{
attr = {
fillColor = (0,255);
lineCapEnd = 1;
lineCapStart = 1;
strokeWidth = 40;
};
closed = 0;
nodes = (
(160,600,l),
(60,501,l)
);
},
{
attr = {
fillColor = (0,255);
lineCapEnd = 1;
lineCapStart = 1;
strokeWidth = 40;
};
closed = 0;
nodes = (
(60,501,l),
(60,100,l)
);
},
{
attr = {
fillColor = (0,255);
lineCapEnd = 1;
lineCapStart = 1;
strokeWidth = 40;
};
closed = 0;
nodes = (
(60,100,l),
(160,0,l)
);
},
{
attr = {
fillColor = (0,255);
lineCapEnd = 1;
lineCapStart = 1;
strokeWidth = 40;
};
closed = 0;
nodes = (
(160,0,l),
(360,0,l)
);
},
{
attr = {
fillColor = (0,255);
lineCapEnd = 1;
lineCapStart = 1;
strokeWidth = 40;
};
closed = 0;
nodes = (
(360,0,l),
(460,100,l)
);
}
);
width = 520;
},
{
layerId = "100BDB2C-EC52-4B94-A255-ABC384BB93CE";
shapes = (
{
attr = {
fillColor = (0,255);
lineCapEnd = 1;
lineCapStart = 1;
strokeWidth = 50;
};
closed = 0;
nodes = (
(475,501,l),
(375,600,l)
);
},
{
attr = {
fillColor = (0,255);
lineCapEnd = 1;
lineCapStart = 1;
strokeWidth = 50;
};
closed = 0;
nodes = (
(375,600,l),
(175,600,l)
);
},
{
attr = {
fillColor = (0,255);
lineCapEnd = 1;
lineCapStart = 1;
strokeWidth = 50;
};
closed = 0;
nodes = (
(175,600,l),
(75,501,l)
);
},
{
attr = {
fillColor = (0,255);
lineCapEnd = 1;
lineCapStart = 1;
strokeWidth = 50;
};
closed = 0;
nodes = (
(75,501,l),
(75,100,l)
);
},
{
attr = {
fillColor = (0,255);
lineCapEnd = 1;
lineCapStart = 1;
strokeWidth = 50;
};
closed = 0;
nodes = (
(75,100,l),
(175,0,l)
);
},
{
attr = {
fillColor = (0,255);
lineCapEnd = 1;
lineCapStart = 1;
strokeWidth = 50;
};
closed = 0;
nodes = (
(175,0,l),
(375,0,l)
);
},
{
attr = {
fillColor = (0,255);
lineCapEnd = 1;
lineCapStart = 1;
strokeWidth = 50;
};
closed = 0;
nodes = (
(375,0,l),
(475,100,l)
);
}
);
width = 550;
},
{
layerId = "9358492D-4FF9-4F7B-B997-4920F2B241F5";
shapes = (
{
attr = {
fillColor = (0,255);
lineCapEnd = 1;
lineCapStart = 1;
strokeWidth = 70;
};
closed = 0;
nodes = (
(505,501,l),
(405,600,l)
);
},
{
attr = {
fillColor = (0,255);
lineCapEnd = 1;
lineCapStart = 1;
strokeWidth = 70;
};
closed = 0;
nodes = (
(405,600,l),
(205,600,l)
);
},
{
attr = {
fillColor = (0,255);
lineCapEnd = 1;
lineCapStart = 1;
strokeWidth = 70;
};
closed = 0;
nodes = (
(205,600,l),
(105,501,l)
);
},
{
attr = {
fillColor = (0,255);
lineCapEnd = 1;
lineCapStart = 1;
strokeWidth = 70;
};
closed = 0;
nodes = (
(105,501,l),
(105,100,l)
);
},
{
attr = {
fillColor = (0,255);
lineCapEnd = 1;
lineCapStart = 1;
strokeWidth = 70;
};
closed = 0;
nodes = (
(105,100,l),
(205,0,l)
);
},
{
attr = {
fillColor = (0,255);
lineCapEnd = 1;
lineCapStart = 1;
strokeWidth = 70;
};
closed = 0;
nodes = (
(205,0,l),
(405,0,l)
);
},
{
attr = {
fillColor = (0,255);
lineCapEnd = 1;
lineCapStart = 1;
strokeWidth = 70;
};
closed = 0;
nodes = (
(405,0,l),
(505,100,l)
);
}
);
width = 610;
}
);
unicode = 67;
},
{
glyphname = D;
lastChange = "2023-06-01 17:39:34 +0000";
layers = (
{
layerId = m01;
shapes = (
{
attr = {
fillColor = (0,255);
lineCapEnd = 1;
lineCapStart = 1;
};
closed = 0;
nodes = (
(0,600,l),
(0,0,l)
);
},
{
attr = {
fillColor = (0,255);
lineCapEnd = 1;
lineCapStart = 1;
};
closed = 0;
nodes = (
(0,0,l),
(300,0,l)
);
},
{
attr = {
fillColor = (0,255);
lineCapEnd = 1;
lineCapStart = 1;
};
closed = 0;
nodes = (
(300,0,l),
(400,100,l)
);
},
{
attr = {
fillColor = (0,255);
lineCapEnd = 1;
lineCapStart = 1;
};
closed = 0;
nodes = (
(400,100,l),
(400,501,l)
);
},
{
attr = {
fillColor = (0,255);
lineCapEnd = 1;
lineCapStart = 1;
};
closed = 0;
nodes = (
(400,501,l),
(300,600,l)
);
},
{
attr = {
fillColor = (0,255);
lineCapEnd = 1;
lineCapStart = 1;
};
closed = 0;
nodes = (
(300,600,l),
(0,600,l)
);
}
);
width = 400;
},
{
layerId = "BA8956FC-D56C-4217-8F3F-AABAC9C1291C";
shapes = (
{
attr = {
fillColor = (0,255);
lineCapEnd = 1;
lineCapStart = 1;
strokeWidth = 30;
};
closed = 0;
nodes = (
(45,600,l),
(45,0,l)
);
},
{
attr = {
fillColor = (0,255);
lineCapEnd = 1;
lineCapStart = 1;
strokeWidth = 30;
};
closed = 0;
nodes = (
(45,0,l),
(345,0,l)
);
},
{
attr = {
fillColor = (0,255);
lineCapEnd = 1;
lineCapStart = 1;
strokeWidth = 30;
};
closed = 0;
nodes = (
(345,0,l),
(445,100,l)
);
},
{
attr = {
fillColor = (0,255);
lineCapEnd = 1;
lineCapStart = 1;
strokeWidth = 30;
};
closed = 0;
nodes = (
(445,100,l),
(445,501,l)
);
},
{
attr = {
fillColor = (0,255);
lineCapEnd = 1;
lineCapStart = 1;
strokeWidth = 30;
};
closed = 0;
nodes = (
(445,501,l),
(345,600,l)
);
},
{
attr = {
fillColor = (0,255);
lineCapEnd = 1;
lineCapStart = 1;
strokeWidth = 30;
};
closed = 0;
nodes = (
(345,600,l),
(45,600,l)
);
}
);
width = 490;
},
{
layerId = "95B08458-B918-474B-A742-A9E3D7F32A73";
shapes = (
{
attr = {
fillColor = (0,255);
lineCapEnd = 1;
lineCapStart = 1;
strokeWidth = 40;
};
closed = 0;
nodes = (
(60,600,l),
(60,0,l)
);
},
{
attr = {
fillColor = (0,255);
lineCapEnd = 1;
lineCapStart = 1;
strokeWidth = 40;
};
closed = 0;
nodes = (
(60,0,l),
(360,0,l)
);
},
{
attr = {
fillColor = (0,255);
lineCapEnd = 1;
lineCapStart = 1;
strokeWidth = 40;
};
closed = 0;
nodes = (
(360,0,l),
(460,100,l)
);
},
{
attr = {
fillColor = (0,255);
lineCapEnd = 1;
lineCapStart = 1;
strokeWidth = 40;
};
closed = 0;
nodes = (
(460,100,l),
(460,501,l)
);
},
{
attr = {
fillColor = (0,255);
lineCapEnd = 1;
lineCapStart = 1;
strokeWidth = 40;
};
closed = 0;
nodes = (
(460,501,l),
(360,600,l)
);
},
{
attr = {
fillColor = (0,255);
lineCapEnd = 1;
lineCapStart = 1;
strokeWidth = 40;
};
closed = 0;
nodes = (
(360,600,l),
(60,600,l)
);
}
);
width = 520;
},
{
layerId = "100BDB2C-EC52-4B94-A255-ABC384BB93CE";
shapes = (
{
attr = {
fillColor = (0,255);
lineCapEnd = 1;
lineCapStart = 1;
strokeWidth = 50;
};
closed = 0;
nodes = (
(75,600,l),
(75,0,l)
);
},
{
attr = {
fillColor = (0,255);
lineCapEnd = 1;
lineCapStart = 1;
strokeWidth = 50;
};
closed = 0;
nodes = (
(75,0,l),
(375,0,l)
);
},
{
attr = {
fillColor = (0,255);
lineCapEnd = 1;
lineCapStart = 1;
strokeWidth = 50;
};
closed = 0;
nodes = (
(375,0,l),
(475,100,l)
);
},
{
attr = {
fillColor = (0,255);
lineCapEnd = 1;
lineCapStart = 1;
strokeWidth = 50;
};
closed = 0;
nodes = (
(475,100,l),
(475,501,l)
);
},
{
attr = {
fillColor = (0,255);
lineCapEnd = 1;
lineCapStart = 1;
strokeWidth = 50;
};
closed = 0;
nodes = (
(475,501,l),
(375,600,l)
);
},
{
attr = {
fillColor = (0,255);
lineCapEnd = 1;
lineCapStart = 1;
strokeWidth = 50;
};
closed = 0;
nodes = (
(375,600,l),
(75,600,l)
);
}
);
width = 550;
},
{
layerId = "9358492D-4FF9-4F7B-B997-4920F2B241F5";
shapes = (
{
attr = {
fillColor = (0,255);
lineCapEnd = 1;
lineCapStart = 1;
strokeWidth = 70;
};
closed = 0;
nodes = (
(105,600,l),
(105,0,l)
);
},
{
attr = {
fillColor = (0,255);
lineCapEnd = 1;
lineCapStart = 1;
strokeWidth = 70;
};
closed = 0;
nodes = (
(105,0,l),
(405,0,l)
);
},
{
attr = {
fillColor = (0,255);
lineCapEnd = 1;
lineCapStart = 1;
strokeWidth = 70;
};
closed = 0;
nodes = (
(405,0,l),
(505,100,l)
);
},
{
attr = {
fillColor = (0,255);
lineCapEnd = 1;
lineCapStart = 1;
strokeWidth = 70;
};
closed = 0;
nodes = (
(505,100,l),
(505,501,l)
);
},
{
attr = {
fillColor = (0,255);
lineCapEnd = 1;
lineCapStart = 1;
strokeWidth = 70;
};
closed = 0;
nodes = (
(505,501,l),
(405,600,l)
);
},
{
attr = {
fillColor = (0,255);
lineCapEnd = 1;
lineCapStart = 1;
strokeWidth = 70;
};
closed = 0;
nodes = (
(405,600,l),
(105,600,l)
);
}
);
width = 610;
}
);
unicode = 68;
},
{
glyphname = E;
lastChange = "2023-06-01 17:39:34 +0000";
layers = (
{
layerId = m01;
shapes = (
{
attr = {
fillColor = (0,255);
lineCapEnd = 1;
lineCapStart = 1;
};
closed = 0;
nodes = (
(400,600,l),
(0,600,l)
);
},
{
attr = {
fillColor = (0,255);
lineCapEnd = 1;
lineCapStart = 1;
};
closed = 0;
nodes = (
(0,600,l),
(0,0,l)
);
},
{
attr = {
fillColor = (0,255);
lineCapEnd = 1;
lineCapStart = 1;
};
closed = 0;
nodes = (
(0,0,l),
(400,0,l)
);
},
{
attr = {
fillColor = (0,255);
lineCapEnd = 1;
lineCapStart = 1;
};
closed = 0;
nodes = (
(0,300,l),
(200,300,l)
);
}
);
width = 400;
},
{
layerId = "BA8956FC-D56C-4217-8F3F-AABAC9C1291C";
shapes = (
{
attr = {
fillColor = (0,255);
lineCapEnd = 1;
lineCapStart = 1;
strokeWidth = 30;
};
closed = 0;
nodes = (
(445,600,l),
(45,600,l)
);
},
{
attr = {
fillColor = (0,255);
lineCapEnd = 1;
lineCapStart = 1;
strokeWidth = 30;
};
closed = 0;
nodes = (
(45,600,l),
(45,0,l)
);
},
{
attr = {
fillColor = (0,255);
lineCapEnd = 1;
lineCapStart = 1;
strokeWidth = 30;
};
closed = 0;
nodes = (
(45,0,l),
(445,0,l)
);
},
{
attr = {
fillColor = (0,255);
lineCapEnd = 1;
lineCapStart = 1;
strokeWidth = 30;
};
closed = 0;
nodes = (
(45,300,l),
(245,300,l)
);
}
);
width = 490;
},
{
layerId = "95B08458-B918-474B-A742-A9E3D7F32A73";
shapes = (
{
attr = {
fillColor = (0,255);
lineCapEnd = 1;
lineCapStart = 1;
strokeWidth = 40;
};
closed = 0;
nodes = (
(460,600,l),
(60,600,l)
);
},
{
attr = {
fillColor = (0,255);
lineCapEnd = 1;
lineCapStart = 1;
strokeWidth = 40;
};
closed = 0;
nodes = (
(60,600,l),
(60,0,l)
);
},
{
attr = {
fillColor = (0,255);
lineCapEnd = 1;
lineCapStart = 1;
strokeWidth = 40;
};
closed = 0;
nodes = (
(60,0,l),
(460,0,l)
);
},
{
attr = {
fillColor = (0,255);
lineCapEnd = 1;
lineCapStart = 1;
strokeWidth = 40;
};
closed = 0;
nodes = (
(60,300,l),
(260,300,l)
);
}
);
width = 520;
},
{
layerId = "100BDB2C-EC52-4B94-A255-ABC384BB93CE";
shapes = (
{
attr = {
fillColor = (0,255);
lineCapEnd = 1;
lineCapStart = 1;
strokeWidth = 50;
};
closed = 0;
nodes = (
(475,600,l),
(75,600,l)
);
},
{
attr = {
fillColor = (0,255);
lineCapEnd = 1;
lineCapStart = 1;
strokeWidth = 50;
};
closed = 0;
nodes = (
(75,600,l),
(75,0,l)
);
},
{
attr = {
fillColor = (0,255);
lineCapEnd = 1;
lineCapStart = 1;
strokeWidth = 50;
};
closed = 0;
nodes = (
(75,0,l),
(475,0,l)
);
},
{
attr = {
fillColor = (0,255);
lineCapEnd = 1;
lineCapStart = 1;
strokeWidth = 50;
};
closed = 0;
nodes = (
(75,300,l),
(275,300,l)
);
}
);
width = 550;
},
{
layerId = "9358492D-4FF9-4F7B-B997-4920F2B241F5";
shapes = (
{
attr = {
fillColor = (0,255);
lineCapEnd = 1;
lineCapStart = 1;
strokeWidth = 70;
};
closed = 0;
nodes = (
(505,600,l),
(105,600,l)
);
},
{
attr = {
fillColor = (0,255);
lineCapEnd = 1;
lineCapStart = 1;
strokeWidth = 70;
};
closed = 0;
nodes = (
(105,600,l),
(105,0,l)
);
},
{
attr = {
fillColor = (0,255);
lineCapEnd = 1;
lineCapStart = 1;
strokeWidth = 70;
};
closed = 0;
nodes = (
(105,0,l),
(505,0,l)
);
},
{
attr = {
fillColor = (0,255);
lineCapEnd = 1;
lineCapStart = 1;
strokeWidth = 70;
};
closed = 0;
nodes = (
(105,300,l),
(305,300,l)
);
}
);
width = 610;
}
);
unicode = 69;
},
{
glyphname = F;
lastChange = "2023-06-01 17:39:34 +0000";
layers = (
{
layerId = m01;
shapes = (
{
attr = {
fillColor = (0,255);
lineCapEnd = 1;
lineCapStart = 1;
};
closed = 0;
nodes = (
(400,600,l),
(0,600,l)
);
},
{
attr = {
fillColor = (0,255);
lineCapEnd = 1;
lineCapStart = 1;
};
closed = 0;
nodes = (
(0,600,l),
(0,300,l)
);
},
{
attr = {
fillColor = (0,255);
lineCapEnd = 1;
lineCapStart = 1;
};
closed = 0;
nodes = (
(0,300,l),
(200,300,l)
);
},
{
attr = {
fillColor = (0,255);
lineCapEnd = 1;
lineCapStart = 1;
};
closed = 0;
nodes = (
(200,300,l),
(0,300,l)
);
},
{
attr = {
fillColor = (0,255);
lineCapEnd = 1;
lineCapStart = 1;
};
closed = 0;
nodes = (
(0,300,l),
(0,0,l)
);
}
);
width = 400;
},
{
layerId = "BA8956FC-D56C-4217-8F3F-AABAC9C1291C";
shapes = (
{
attr = {
fillColor = (0,255);
lineCapEnd = 1;
lineCapStart = 1;
strokeWidth = 30;
};
closed = 0;
nodes = (
(445,600,l),
(45,600,l)
);
},
{
attr = {
fillColor = (0,255);
lineCapEnd = 1;
lineCapStart = 1;
strokeWidth = 30;
};
closed = 0;
nodes = (
(45,600,l),
(45,300,l)
);
},
{
attr = {
fillColor = (0,255);
lineCapEnd = 1;
lineCapStart = 1;
strokeWidth = 30;
};
closed = 0;
nodes = (
(45,300,l),
(245,300,l)
);
},
{
attr = {
fillColor = (0,255);
lineCapEnd = 1;
lineCapStart = 1;
strokeWidth = 30;
};
closed = 0;
nodes = (
(245,300,l),
(45,300,l)
);
},
{
attr = {
fillColor = (0,255);
lineCapEnd = 1;
lineCapStart = 1;
strokeWidth = 30;
};
closed = 0;
nodes = (
(45,300,l),
(45,0,l)
);
}
);
width = 490;
},
{
layerId = "95B08458-B918-474B-A742-A9E3D7F32A73";
shapes = (
{
attr = {
fillColor = (0,255);
lineCapEnd = 1;
lineCapStart = 1;
strokeWidth = 40;
};
closed = 0;
nodes = (
(460,600,l),
(60,600,l)
);
},
{
attr = {
fillColor = (0,255);
lineCapEnd = 1;
lineCapStart = 1;
strokeWidth = 40;
};
closed = 0;
nodes = (
(60,600,l),
(60,300,l)
);
},
{
attr = {
fillColor = (0,255);
lineCapEnd = 1;
lineCapStart = 1;
strokeWidth = 40;
};
closed = 0;
nodes = (
(60,300,l),
(260,300,l)
);
},
{
attr = {
fillColor = (0,255);
lineCapEnd = 1;
lineCapStart = 1;
strokeWidth = 40;
};
closed = 0;
nodes = (
(260,300,l),
(60,300,l)
);
},
{
attr = {
fillColor = (0,255);
lineCapEnd = 1;
lineCapStart = 1;
strokeWidth = 40;
};
closed = 0;
nodes = (
(60,300,l),
(60,0,l)
);
}
);
width = 520;
},
{
layerId = "100BDB2C-EC52-4B94-A255-ABC384BB93CE";
shapes = (
{
attr = {
fillColor = (0,255);
lineCapEnd = 1;
lineCapStart = 1;
strokeWidth = 50;
};
closed = 0;
nodes = (
(475,600,l),
(75,600,l)
);
},
{
attr = {
fillColor = (0,255);
lineCapEnd = 1;
lineCapStart = 1;
strokeWidth = 50;
};
closed = 0;
nodes = (
(75,600,l),
(75,300,l)
);
},
{
attr = {
fillColor = (0,255);
lineCapEnd = 1;
lineCapStart = 1;
strokeWidth = 50;
};
closed = 0;
nodes = (
(75,300,l),
(275,300,l)
);
},
{
attr = {
fillColor = (0,255);
lineCapEnd = 1;
lineCapStart = 1;
strokeWidth = 50;
};
closed = 0;
nodes = (
(275,300,l),
(75,300,l)
);
},
{
attr = {
fillColor = (0,255);
lineCapEnd = 1;
lineCapStart = 1;
strokeWidth = 50;
};
closed = 0;
nodes = (
(75,300,l),
(75,0,l)
);
}
);
width = 550;
},
{
layerId = "9358492D-4FF9-4F7B-B997-4920F2B241F5";
shapes = (
{
attr = {
fillColor = (0,255);
lineCapEnd = 1;
lineCapStart = 1;
strokeWidth = 70;
};
closed = 0;
nodes = (
(505,600,l),
(105,600,l)
);
},
{
attr = {
fillColor = (0,255);
lineCapEnd = 1;
lineCapStart = 1;
strokeWidth = 70;
};
closed = 0;
nodes = (
(105,600,l),
(105,300,l)
);
},
{
attr = {
fillColor = (0,255);
lineCapEnd = 1;
lineCapStart = 1;
strokeWidth = 70;
};
closed = 0;
nodes = (
(105,300,l),
(305,300,l)
);
},
{
attr = {
fillColor = (0,255);
lineCapEnd = 1;
lineCapStart = 1;
strokeWidth = 70;
};
closed = 0;
nodes = (
(305,300,l),
(105,300,l)
);
},
{
attr = {
fillColor = (0,255);
lineCapEnd = 1;
lineCapStart = 1;
strokeWidth = 70;
};
closed = 0;
nodes = (
(105,300,l),
(105,0,l)
);
}
);
width = 610;
}
);
unicode = 70;
},
{
glyphname = G;
lastChange = "2023-06-01 17:39:34 +0000";
layers = (
{
layerId = m01;
shapes = (
{
attr = {
fillColor = (0,255);
lineCapEnd = 1;
lineCapStart = 1;
};
closed = 0;
nodes = (
(400,501,l),
(300,600,l)
);
},
{
attr = {
fillColor = (0,255);
lineCapEnd = 1;
lineCapStart = 1;
};
closed = 0;
nodes = (
(300,600,l),
(99,600,l)
);
},
{
attr = {
fillColor = (0,255);
lineCapEnd = 1;
lineCapStart = 1;
};
closed = 0;
nodes = (
(99,600,l),
(0,501,l)
);
},
{
attr = {
fillColor = (0,255);
lineCapEnd = 1;
lineCapStart = 1;
};
closed = 0;
nodes = (
(0,501,l),
(0,100,l)
);
},
{
attr = {
fillColor = (0,255);
lineCapEnd = 1;
lineCapStart = 1;
};
closed = 0;
nodes = (
(0,100,l),
(99,0,l)
);
},
{
attr = {
fillColor = (0,255);
lineCapEnd = 1;
lineCapStart = 1;
};
closed = 0;
nodes = (
(99,0,l),
(300,0,l)
);
},
{
attr = {
fillColor = (0,255);
lineCapEnd = 1;
lineCapStart = 1;
};
closed = 0;
nodes = (
(300,0,l),
(400,100,l)
);
},
{
attr = {
fillColor = (0,255);
lineCapEnd = 1;
lineCapStart = 1;
};
closed = 0;
nodes = (
(400,100,l),
(400,300,l)
);
},
{
attr = {
fillColor = (0,255);
lineCapEnd = 1;
lineCapStart = 1;
};
closed = 0;
nodes = (
(400,300,l),
(200,300,l)
);
}
);
width = 400;
},
{
layerId = "BA8956FC-D56C-4217-8F3F-AABAC9C1291C";
shapes = (
{
attr = {
fillColor = (0,255);
lineCapEnd = 1;
lineCapStart = 1;
strokeWidth = 30;
};
closed = 0;
nodes = (
(445,501,l),
(345,600,l)
);
},
{
attr = {
fillColor = (0,255);
lineCapEnd = 1;
lineCapStart = 1;
strokeWidth = 30;
};
closed = 0;
nodes = (
(345,600,l),
(144,600,l)
);
},
{
attr = {
fillColor = (0,255);
lineCapEnd = 1;
lineCapStart = 1;
strokeWidth = 30;
};
closed = 0;
nodes = (
(144,600,l),
(45,501,l)
);
},
{
attr = {
fillColor = (0,255);
lineCapEnd = 1;
lineCapStart = 1;
strokeWidth = 30;
};
closed = 0;
nodes = (
(45,501,l),
(45,100,l)
);
},
{
attr = {
fillColor = (0,255);
lineCapEnd = 1;
lineCapStart = 1;
strokeWidth = 30;
};
closed = 0;
nodes = (
(45,100,l),
(144,0,l)
);
},
{
attr = {
fillColor = (0,255);
lineCapEnd = 1;
lineCapStart = 1;
strokeWidth = 30;
};
closed = 0;
nodes = (
(144,0,l),
(345,0,l)
);
},
{
attr = {
fillColor = (0,255);
lineCapEnd = 1;
lineCapStart = 1;
strokeWidth = 30;
};
closed = 0;
nodes = (
(345,0,l),
(445,100,l)
);
},
{
attr = {
fillColor = (0,255);
lineCapEnd = 1;
lineCapStart = 1;
strokeWidth = 30;
};
closed = 0;
nodes = (
(445,100,l),
(445,300,l)
);
},
{
attr = {
fillColor = (0,255);
lineCapEnd = 1;
lineCapStart = 1;
strokeWidth = 30;
};
closed = 0;
nodes = (
(445,300,l),
(245,300,l)
);
}
);
width = 490;
},
{
layerId = "95B08458-B918-474B-A742-A9E3D7F32A73";
shapes = (
{
attr = {
fillColor = (0,255);
lineCapEnd = 1;
lineCapStart = 1;
strokeWidth = 40;
};
closed = 0;
nodes = (
(460,501,l),
(360,600,l)
);
},
{
attr = {
fillColor = (0,255);
lineCapEnd = 1;
lineCapStart = 1;
strokeWidth = 40;
};
closed = 0;
nodes = (
(360,600,l),
(159,600,l)
);
},
{
attr = {
fillColor = (0,255);
lineCapEnd = 1;
lineCapStart = 1;
strokeWidth = 40;
};
closed = 0;
nodes = (
(159,600,l),
(60,501,l)
);
},
{
attr = {
fillColor = (0,255);
lineCapEnd = 1;
lineCapStart = 1;
strokeWidth = 40;
};
closed = 0;
nodes = (
(60,501,l),
(60,100,l)
);
},
{
attr = {
fillColor = (0,255);
lineCapEnd = 1;
lineCapStart = 1;
strokeWidth = 40;
};
closed = 0;
nodes = (
(60,100,l),
(159,0,l)
);
},
{
attr = {
fillColor = (0,255);
lineCapEnd = 1;
lineCapStart = 1;
strokeWidth = 40;
};
closed = 0;
nodes = (
(159,0,l),
(360,0,l)
);
},
{
attr = {
fillColor = (0,255);
lineCapEnd = 1;
lineCapStart = 1;
strokeWidth = 40;
};
closed = 0;
nodes = (
(360,0,l),
(460,100,l)
);
},
{
attr = {
fillColor = (0,255);
lineCapEnd = 1;
lineCapStart = 1;
strokeWidth = 40;
};
closed = 0;
nodes = (
(460,100,l),
(460,300,l)
);
},
{
attr = {
fillColor = (0,255);
lineCapEnd = 1;
lineCapStart = 1;
strokeWidth = 40;
};
closed = 0;
nodes = (
(460,300,l),
(260,300,l)
);
}
);
width = 520;
},
{
layerId = "100BDB2C-EC52-4B94-A255-ABC384BB93CE";
shapes = (
{
attr = {
fillColor = (0,255);
lineCapEnd = 1;
lineCapStart = 1;
strokeWidth = 50;
};
closed = 0;
nodes = (
(475,501,l),
(375,600,l)
);
},
{
attr = {
fillColor = (0,255);
lineCapEnd = 1;
lineCapStart = 1;
strokeWidth = 50;
};
closed = 0;
nodes = (
(375,600,l),
(174,600,l)
);
},
{
attr = {
fillColor = (0,255);
lineCapEnd = 1;
lineCapStart = 1;
strokeWidth = 50;
};
closed = 0;
nodes = (
(174,600,l),
(75,501,l)
);
},
{
attr = {
fillColor = (0,255);
lineCapEnd = 1;
lineCapStart = 1;
strokeWidth = 50;
};
closed = 0;
nodes = (
(75,501,l),
(75,100,l)
);
},
{
attr = {
fillColor = (0,255);
lineCapEnd = 1;
lineCapStart = 1;
strokeWidth = 50;
};
closed = 0;
nodes = (
(75,100,l),
(174,0,l)
);
},
{
attr = {
fillColor = (0,255);
lineCapEnd = 1;
lineCapStart = 1;
strokeWidth = 50;
};
closed = 0;
nodes = (
(174,0,l),
(375,0,l)
);
},
{
attr = {
fillColor = (0,255);
lineCapEnd = 1;
lineCapStart = 1;
strokeWidth = 50;
};
closed = 0;
nodes = (
(375,0,l),
(475,100,l)
);
},
{
attr = {
fillColor = (0,255);
lineCapEnd = 1;
lineCapStart = 1;
strokeWidth = 50;
};
closed = 0;
nodes = (
(475,100,l),
(475,300,l)
);
},
{
attr = {
fillColor = (0,255);
lineCapEnd = 1;
lineCapStart = 1;
strokeWidth = 50;
};
closed = 0;
nodes = (
(475,300,l),
(275,300,l)
);
}
);
width = 550;
},
{
layerId = "9358492D-4FF9-4F7B-B997-4920F2B241F5";
shapes = (
{
attr = {
fillColor = (0,255);
lineCapEnd = 1;
lineCapStart = 1;
strokeWidth = 70;
};
closed = 0;
nodes = (
(505,501,l),
(405,600,l)
);
},
{
attr = {
fillColor = (0,255);
lineCapEnd = 1;
lineCapStart = 1;
strokeWidth = 70;
};
closed = 0;
nodes = (
(405,600,l),
(204,600,l)
);
},
{
attr = {
fillColor = (0,255);
lineCapEnd = 1;
lineCapStart = 1;
strokeWidth = 70;
};
closed = 0;
nodes = (
(204,600,l),
(105,501,l)
);
},
{
attr = {
fillColor = (0,255);
lineCapEnd = 1;
lineCapStart = 1;
strokeWidth = 70;
};
closed = 0;
nodes = (
(105,501,l),
(105,100,l)
);
},
{
attr = {
fillColor = (0,255);
lineCapEnd = 1;
lineCapStart = 1;
strokeWidth = 70;
};
closed = 0;
nodes = (
(105,100,l),
(204,0,l)
);
},
{
attr = {
fillColor = (0,255);
lineCapEnd = 1;
lineCapStart = 1;
strokeWidth = 70;
};
closed = 0;
nodes = (
(204,0,l),
(405,0,l)
);
},
{
attr = {
fillColor = (0,255);
lineCapEnd = 1;
lineCapStart = 1;
strokeWidth = 70;
};
closed = 0;
nodes = (
(405,0,l),
(505,100,l)
);
},
{
attr = {
fillColor = (0,255);
lineCapEnd = 1;
lineCapStart = 1;
strokeWidth = 70;
};
closed = 0;
nodes = (
(505,100,l),
(505,300,l)
);
},
{
attr = {
fillColor = (0,255);
lineCapEnd = 1;
lineCapStart = 1;
strokeWidth = 70;
};
closed = 0;
nodes = (
(505,300,l),
(305,300,l)
);
}
);
width = 610;
}
);
unicode = 71;
},
{
glyphname = H;
lastChange = "2023-06-01 17:39:34 +0000";
layers = (
{
layerId = m01;
shapes = (
{
attr = {
fillColor = (0,255);
lineCapEnd = 1;
lineCapStart = 1;
};
closed = 0;
nodes = (
(0,600,l),
(0,0,l)
);
},
{
attr = {
fillColor = (0,255);
lineCapEnd = 1;
lineCapStart = 1;
};
closed = 0;
nodes = (
(0,0,l),
(0,300,l)
);
},
{
attr = {
fillColor = (0,255);
lineCapEnd = 1;
lineCapStart = 1;
};
closed = 0;
nodes = (
(0,300,l),
(400,300,l)
);
},
{
attr = {
fillColor = (0,255);
lineCapEnd = 1;
lineCapStart = 1;
};
closed = 0;
nodes = (
(400,300,l),
(400,600,l)
);
},
{
attr = {
fillColor = (0,255);
lineCapEnd = 1;
lineCapStart = 1;
};
closed = 0;
nodes = (
(400,600,l),
(400,0,l)
);
}
);
width = 400;
},
{
layerId = "BA8956FC-D56C-4217-8F3F-AABAC9C1291C";
shapes = (
{
attr = {
fillColor = (0,255);
lineCapEnd = 1;
lineCapStart = 1;
strokeWidth = 30;
};
closed = 0;
nodes = (
(45,600,l),
(45,0,l)
);
},
{
attr = {
fillColor = (0,255);
lineCapEnd = 1;
lineCapStart = 1;
strokeWidth = 30;
};
closed = 0;
nodes = (
(45,0,l),
(45,300,l)
);
},
{
attr = {
fillColor = (0,255);
lineCapEnd = 1;
lineCapStart = 1;
strokeWidth = 30;
};
closed = 0;
nodes = (
(45,300,l),
(445,300,l)
);
},
{
attr = {
fillColor = (0,255);
lineCapEnd = 1;
lineCapStart = 1;
strokeWidth = 30;
};
closed = 0;
nodes = (
(445,300,l),
(445,600,l)
);
},
{
attr = {
fillColor = (0,255);
lineCapEnd = 1;
lineCapStart = 1;
strokeWidth = 30;
};
closed = 0;
nodes = (
(445,600,l),
(445,0,l)
);
}
);
width = 490;
},
{
layerId = "95B08458-B918-474B-A742-A9E3D7F32A73";
shapes = (
{
attr = {
fillColor = (0,255);
lineCapEnd = 1;
lineCapStart = 1;
strokeWidth = 40;
};
closed = 0;
nodes = (
(60,600,l),
(60,0,l)
);
},
{
attr = {
fillColor = (0,255);
lineCapEnd = 1;
lineCapStart = 1;
strokeWidth = 40;
};
closed = 0;
nodes = (
(60,0,l),
(60,300,l)
);
},
{
attr = {
fillColor = (0,255);
lineCapEnd = 1;
lineCapStart = 1;
strokeWidth = 40;
};
closed = 0;
nodes = (
(60,300,l),
(460,300,l)
);
},
{
attr = {
fillColor = (0,255);
lineCapEnd = 1;
lineCapStart = 1;
strokeWidth = 40;
};
closed = 0;
nodes = (
(460,300,l),
(460,600,l)
);
},
{
attr = {
fillColor = (0,255);
lineCapEnd = 1;
lineCapStart = 1;
strokeWidth = 40;
};
closed = 0;
nodes = (
(460,600,l),
(460,0,l)
);
}
);
width = 520;
},
{
layerId = "100BDB2C-EC52-4B94-A255-ABC384BB93CE";
shapes = (
{
attr = {
fillColor = (0,255);
lineCapEnd = 1;
lineCapStart = 1;
strokeWidth = 50;
};
closed = 0;
nodes = (
(75,600,l),
(75,0,l)
);
},
{
attr = {
fillColor = (0,255);
lineCapEnd = 1;
lineCapStart = 1;
strokeWidth = 50;
};
closed = 0;
nodes = (
(75,0,l),
(75,300,l)
);
},
{
attr = {
fillColor = (0,255);
lineCapEnd = 1;
lineCapStart = 1;
strokeWidth = 50;
};
closed = 0;
nodes = (
(75,300,l),
(475,300,l)
);
},
{
attr = {
fillColor = (0,255);
lineCapEnd = 1;
lineCapStart = 1;
strokeWidth = 50;
};
closed = 0;
nodes = (
(475,300,l),
(475,600,l)
);
},
{
attr = {
fillColor = (0,255);
lineCapEnd = 1;
lineCapStart = 1;
strokeWidth = 50;
};
closed = 0;
nodes = (
(475,600,l),
(475,0,l)
);
}
);
width = 550;
},
{
layerId = "9358492D-4FF9-4F7B-B997-4920F2B241F5";
shapes = (
{
attr = {
fillColor = (0,255);
lineCapEnd = 1;
lineCapStart = 1;
strokeWidth = 70;
};
closed = 0;
nodes = (
(105,600,l),
(105,0,l)
);
},
{
attr = {
fillColor = (0,255);
lineCapEnd = 1;
lineCapStart = 1;
strokeWidth = 70;
};
closed = 0;
nodes = (
(105,0,l),
(105,300,l)
);
},
{
attr = {
fillColor = (0,255);
lineCapEnd = 1;
lineCapStart = 1;
strokeWidth = 70;
};
closed = 0;
nodes = (
(105,300,l),
(505,300,l)
);
},
{
attr = {
fillColor = (0,255);
lineCapEnd = 1;
lineCapStart = 1;
strokeWidth = 70;
};
closed = 0;
nodes = (
(505,300,l),
(505,600,l)
);
},
{
attr = {
fillColor = (0,255);
lineCapEnd = 1;
lineCapStart = 1;
strokeWidth = 70;
};
closed = 0;
nodes = (
(505,600,l),
(505,0,l)
);
}
);
width = 610;
}
);
unicode = 72;
},
{
glyphname = I;
lastChange = "2023-06-01 17:39:34 +0000";
layers = (
{
layerId = m01;
shapes = (
{
attr = {
fillColor = (0,255);
lineCapEnd = 1;
lineCapStart = 1;
};
closed = 0;
nodes = (
(0,600,l),
(200,600,l)
);
},
{
attr = {
fillColor = (0,255);
lineCapEnd = 1;
lineCapStart = 1;
};
closed = 0;
nodes = (
(200,600,l),
(100,600,l)
);
},
{
attr = {
fillColor = (0,255);
lineCapEnd = 1;
lineCapStart = 1;
};
closed = 0;
nodes = (
(100,600,l),
(100,0,l)
);
},
{
attr = {
fillColor = (0,255);
lineCapEnd = 1;
lineCapStart = 1;
};
closed = 0;
nodes = (
(100,0,l),
(0,0,l)
);
},
{
attr = {
fillColor = (0,255);
lineCapEnd = 1;
lineCapStart = 1;
};
closed = 0;
nodes = (
(0,0,l),
(200,0,l)
);
}
);
width = 200;
},
{
layerId = "BA8956FC-D56C-4217-8F3F-AABAC9C1291C";
shapes = (
{
attr = {
fillColor = (0,255);
lineCapEnd = 1;
lineCapStart = 1;
strokeWidth = 30;
};
closed = 0;
nodes = (
(45,600,l),
(245,600,l)
);
},
{
attr = {
fillColor = (0,255);
lineCapEnd = 1;
lineCapStart = 1;
strokeWidth = 30;
};
closed = 0;
nodes = (
(245,600,l),
(145,600,l)
);
},
{
attr = {
fillColor = (0,255);
lineCapEnd = 1;
lineCapStart = 1;
strokeWidth = 30;
};
closed = 0;
nodes = (
(145,600,l),
(145,0,l)
);
},
{
attr = {
fillColor = (0,255);
lineCapEnd = 1;
lineCapStart = 1;
strokeWidth = 30;
};
closed = 0;
nodes = (
(145,0,l),
(45,0,l)
);
},
{
attr = {
fillColor = (0,255);
lineCapEnd = 1;
lineCapStart = 1;
strokeWidth = 30;
};
closed = 0;
nodes = (
(45,0,l),
(245,0,l)
);
}
);
width = 290;
},
{
layerId = "95B08458-B918-474B-A742-A9E3D7F32A73";
shapes = (
{
attr = {
fillColor = (0,255);
lineCapEnd = 1;
lineCapStart = 1;
strokeWidth = 40;
};
closed = 0;
nodes = (
(60,600,l),
(260,600,l)
);
},
{
attr = {
fillColor = (0,255);
lineCapEnd = 1;
lineCapStart = 1;
strokeWidth = 40;
};
closed = 0;
nodes = (
(260,600,l),
(160,600,l)
);
},
{
attr = {
fillColor = (0,255);
lineCapEnd = 1;
lineCapStart = 1;
strokeWidth = 40;
};
closed = 0;
nodes = (
(160,600,l),
(160,0,l)
);
},
{
attr = {
fillColor = (0,255);
lineCapEnd = 1;
lineCapStart = 1;
strokeWidth = 40;
};
closed = 0;
nodes = (
(160,0,l),
(60,0,l)
);
},
{
attr = {
fillColor = (0,255);
lineCapEnd = 1;
lineCapStart = 1;
strokeWidth = 40;
};
closed = 0;
nodes = (
(60,0,l),
(260,0,l)
);
}
);
width = 320;
},
{
layerId = "100BDB2C-EC52-4B94-A255-ABC384BB93CE";
shapes = (
{
attr = {
fillColor = (0,255);
lineCapEnd = 1;
lineCapStart = 1;
strokeWidth = 50;
};
closed = 0;
nodes = (
(75,600,l),
(275,600,l)
);
},
{
attr = {
fillColor = (0,255);
lineCapEnd = 1;
lineCapStart = 1;
strokeWidth = 50;
};
closed = 0;
nodes = (
(275,600,l),
(175,600,l)
);
},
{
attr = {
fillColor = (0,255);
lineCapEnd = 1;
lineCapStart = 1;
strokeWidth = 50;
};
closed = 0;
nodes = (
(175,600,l),
(175,0,l)
);
},
{
attr = {
fillColor = (0,255);
lineCapEnd = 1;
lineCapStart = 1;
strokeWidth = 50;
};
closed = 0;
nodes = (
(175,0,l),
(75,0,l)
);
},
{
attr = {
fillColor = (0,255);
lineCapEnd = 1;
lineCapStart = 1;
strokeWidth = 50;
};
closed = 0;
nodes = (
(75,0,l),
(275,0,l)
);
}
);
width = 350;
},
{
layerId = "9358492D-4FF9-4F7B-B997-4920F2B241F5";
shapes = (
{
attr = {
fillColor = (0,255);
lineCapEnd = 1;
lineCapStart = 1;
strokeWidth = 70;
};
closed = 0;
nodes = (
(105,600,l),
(305,600,l)
);
},
{
attr = {
fillColor = (0,255);
lineCapEnd = 1;
lineCapStart = 1;
strokeWidth = 70;
};
closed = 0;
nodes = (
(305,600,l),
(205,600,l)
);
},
{
attr = {
fillColor = (0,255);
lineCapEnd = 1;
lineCapStart = 1;
strokeWidth = 70;
};
closed = 0;
nodes = (
(205,600,l),
(205,0,l)
);
},
{
attr = {
fillColor = (0,255);
lineCapEnd = 1;
lineCapStart = 1;
strokeWidth = 70;
};
closed = 0;
nodes = (
(205,0,l),
(105,0,l)
);
},
{
attr = {
fillColor = (0,255);
lineCapEnd = 1;
lineCapStart = 1;
strokeWidth = 70;
};
closed = 0;
nodes = (
(105,0,l),
(305,0,l)
);
}
);
width = 410;
}
);
unicode = 73;
},
{
glyphname = J;
lastChange = "2023-06-01 17:39:34 +0000";
layers = (
{
layerId = m01;
shapes = (
{
attr = {
fillColor = (0,255);
lineCapEnd = 1;
lineCapStart = 1;
};
closed = 0;
nodes = (
(400,600,l),
(200,600,l)
);
},
{
attr = {
fillColor = (0,255);
lineCapEnd = 1;
lineCapStart = 1;
};
closed = 0;
nodes = (
(200,600,l),
(300,600,l)
);
},
{
attr = {
fillColor = (0,255);
lineCapEnd = 1;
lineCapStart = 1;
};
closed = 0;
nodes = (
(300,600,l),
(300,100,l)
);
},
{
attr = {
fillColor = (0,255);
lineCapEnd = 1;
lineCapStart = 1;
};
closed = 0;
nodes = (
(300,100,l),
(200,0,l)
);
},
{
attr = {
fillColor = (0,255);
lineCapEnd = 1;
lineCapStart = 1;
};
closed = 0;
nodes = (
(200,0,l),
(99,0,l)
);
},
{
attr = {
fillColor = (0,255);
lineCapEnd = 1;
lineCapStart = 1;
};
closed = 0;
nodes = (
(99,0,l),
(0,100,l)
);
}
);
width = 400;
},
{
layerId = "BA8956FC-D56C-4217-8F3F-AABAC9C1291C";
shapes = (
{
attr = {
fillColor = (0,255);
lineCapEnd = 1;
lineCapStart = 1;
strokeWidth = 30;
};
closed = 0;
nodes = (
(445,600,l),
(245,600,l)
);
},
{
attr = {
fillColor = (0,255);
lineCapEnd = 1;
lineCapStart = 1;
strokeWidth = 30;
};
closed = 0;
nodes = (
(245,600,l),
(345,600,l)
);
},
{
attr = {
fillColor = (0,255);
lineCapEnd = 1;
lineCapStart = 1;
strokeWidth = 30;
};
closed = 0;
nodes = (
(345,600,l),
(345,100,l)
);
},
{
attr = {
fillColor = (0,255);
lineCapEnd = 1;
lineCapStart = 1;
strokeWidth = 30;
};
closed = 0;
nodes = (
(345,100,l),
(245,0,l)
);
},
{
attr = {
fillColor = (0,255);
lineCapEnd = 1;
lineCapStart = 1;
strokeWidth = 30;
};
closed = 0;
nodes = (
(245,0,l),
(144,0,l)
);
},
{
attr = {
fillColor = (0,255);
lineCapEnd = 1;
lineCapStart = 1;
strokeWidth = 30;
};
closed = 0;
nodes = (
(144,0,l),
(45,100,l)
);
}
);
width = 490;
},
{
layerId = "95B08458-B918-474B-A742-A9E3D7F32A73";
shapes = (
{
attr = {
fillColor = (0,255);
lineCapEnd = 1;
lineCapStart = 1;
strokeWidth = 40;
};
closed = 0;
nodes = (
(460,600,l),
(260,600,l)
);
},
{
attr = {
fillColor = (0,255);
lineCapEnd = 1;
lineCapStart = 1;
strokeWidth = 40;
};
closed = 0;
nodes = (
(260,600,l),
(360,600,l)
);
},
{
attr = {
fillColor = (0,255);
lineCapEnd = 1;
lineCapStart = 1;
strokeWidth = 40;
};
closed = 0;
nodes = (
(360,600,l),
(360,100,l)
);
},
{
attr = {
fillColor = (0,255);
lineCapEnd = 1;
lineCapStart = 1;
strokeWidth = 40;
};
closed = 0;
nodes = (
(360,100,l),
(260,0,l)
);
},
{
attr = {
fillColor = (0,255);
lineCapEnd = 1;
lineCapStart = 1;
strokeWidth = 40;
};
closed = 0;
nodes = (
(260,0,l),
(159,0,l)
);
},
{
attr = {
fillColor = (0,255);
lineCapEnd = 1;
lineCapStart = 1;
strokeWidth = 40;
};
closed = 0;
nodes = (
(159,0,l),
(60,100,l)
);
}
);
width = 520;
},
{
layerId = "100BDB2C-EC52-4B94-A255-ABC384BB93CE";
shapes = (
{
attr = {
fillColor = (0,255);
lineCapEnd = 1;
lineCapStart = 1;
strokeWidth = 50;
};
closed = 0;
nodes = (
(475,600,l),
(275,600,l)
);
},
{
attr = {
fillColor = (0,255);
lineCapEnd = 1;
lineCapStart = 1;
strokeWidth = 50;
};
closed = 0;
nodes = (
(275,600,l),
(375,600,l)
);
},
{
attr = {
fillColor = (0,255);
lineCapEnd = 1;
lineCapStart = 1;
strokeWidth = 50;
};
closed = 0;
nodes = (
(375,600,l),
(375,100,l)
);
},
{
attr = {
fillColor = (0,255);
lineCapEnd = 1;
lineCapStart = 1;
strokeWidth = 50;
};
closed = 0;
nodes = (
(375,100,l),
(275,0,l)
);
},
{
attr = {
fillColor = (0,255);
lineCapEnd = 1;
lineCapStart = 1;
strokeWidth = 50;
};
closed = 0;
nodes = (
(275,0,l),
(174,0,l)
);
},
{
attr = {
fillColor = (0,255);
lineCapEnd = 1;
lineCapStart = 1;
strokeWidth = 50;
};
closed = 0;
nodes = (
(174,0,l),
(75,100,l)
);
}
);
width = 550;
},
{
layerId = "9358492D-4FF9-4F7B-B997-4920F2B241F5";
shapes = (
{
attr = {
fillColor = (0,255);
lineCapEnd = 1;
lineCapStart = 1;
strokeWidth = 70;
};
closed = 0;
nodes = (
(505,600,l),
(305,600,l)
);
},
{
attr = {
fillColor = (0,255);
lineCapEnd = 1;
lineCapStart = 1;
strokeWidth = 70;
};
closed = 0;
nodes = (
(305,600,l),
(405,600,l)
);
},
{
attr = {
fillColor = (0,255);
lineCapEnd = 1;
lineCapStart = 1;
strokeWidth = 70;
};
closed = 0;
nodes = (
(405,600,l),
(405,100,l)
);
},
{
attr = {
fillColor = (0,255);
lineCapEnd = 1;
lineCapStart = 1;
strokeWidth = 70;
};
closed = 0;
nodes = (
(405,100,l),
(305,0,l)
);
},
{
attr = {
fillColor = (0,255);
lineCapEnd = 1;
lineCapStart = 1;
strokeWidth = 70;
};
closed = 0;
nodes = (
(305,0,l),
(204,0,l)
);
},
{
attr = {
fillColor = (0,255);
lineCapEnd = 1;
lineCapStart = 1;
strokeWidth = 70;
};
closed = 0;
nodes = (
(204,0,l),
(105,100,l)
);
}
);
width = 610;
}
);
unicode = 74;
},
{
glyphname = K;
lastChange = "2023-06-01 17:39:34 +0000";
layers = (
{
layerId = m01;
shapes = (
{
attr = {
fillColor = (0,255);
lineCapEnd = 1;
lineCapStart = 1;
};
closed = 0;
nodes = (
(0,600,l),
(0,0,l)
);
},
{
attr = {
fillColor = (0,255);
lineCapEnd = 1;
lineCapStart = 1;
};
closed = 0;
nodes = (
(0,0,l),
(0,200,l)
);
},
{
attr = {
fillColor = (0,255);
lineCapEnd = 1;
lineCapStart = 1;
};
closed = 0;
nodes = (
(0,200,l),
(400,600,l)
);
},
{
attr = {
fillColor = (0,255);
lineCapEnd = 1;
lineCapStart = 1;
};
closed = 0;
nodes = (
(400,600,l),
(99,300,l)
);
},
{
attr = {
fillColor = (0,255);
lineCapEnd = 1;
lineCapStart = 1;
};
closed = 0;
nodes = (
(99,300,l),
(400,0,l)
);
}
);
width = 400;
},
{
layerId = "BA8956FC-D56C-4217-8F3F-AABAC9C1291C";
shapes = (
{
attr = {
fillColor = (0,255);
lineCapEnd = 1;
lineCapStart = 1;
strokeWidth = 30;
};
closed = 0;
nodes = (
(45,600,l),
(45,0,l)
);
},
{
attr = {
fillColor = (0,255);
lineCapEnd = 1;
lineCapStart = 1;
strokeWidth = 30;
};
closed = 0;
nodes = (
(45,0,l),
(45,200,l)
);
},
{
attr = {
fillColor = (0,255);
lineCapEnd = 1;
lineCapStart = 1;
strokeWidth = 30;
};
closed = 0;
nodes = (
(45,200,l),
(445,600,l)
);
},
{
attr = {
fillColor = (0,255);
lineCapEnd = 1;
lineCapStart = 1;
strokeWidth = 30;
};
closed = 0;
nodes = (
(445,600,l),
(144,300,l)
);
},
{
attr = {
fillColor = (0,255);
lineCapEnd = 1;
lineCapStart = 1;
strokeWidth = 30;
};
closed = 0;
nodes = (
(144,300,l),
(445,0,l)
);
}
);
width = 490;
},
{
layerId = "95B08458-B918-474B-A742-A9E3D7F32A73";
shapes = (
{
attr = {
fillColor = (0,255);
lineCapEnd = 1;
lineCapStart = 1;
strokeWidth = 40;
};
closed = 0;
nodes = (
(60,600,l),
(60,0,l)
);
},
{
attr = {
fillColor = (0,255);
lineCapEnd = 1;
lineCapStart = 1;
strokeWidth = 40;
};
closed = 0;
nodes = (
(60,0,l),
(60,200,l)
);
},
{
attr = {
fillColor = (0,255);
lineCapEnd = 1;
lineCapStart = 1;
strokeWidth = 40;
};
closed = 0;
nodes = (
(60,200,l),
(460,600,l)
);
},
{
attr = {
fillColor = (0,255);
lineCapEnd = 1;
lineCapStart = 1;
strokeWidth = 40;
};
closed = 0;
nodes = (
(460,600,l),
(159,300,l)
);
},
{
attr = {
fillColor = (0,255);
lineCapEnd = 1;
lineCapStart = 1;
strokeWidth = 40;
};
closed = 0;
nodes = (
(159,300,l),
(460,0,l)
);
}
);
width = 520;
},
{
layerId = "100BDB2C-EC52-4B94-A255-ABC384BB93CE";
shapes = (
{
attr = {
fillColor = (0,255);
lineCapEnd = 1;
lineCapStart = 1;
strokeWidth = 50;
};
closed = 0;
nodes = (
(75,600,l),
(75,0,l)
);
},
{
attr = {
fillColor = (0,255);
lineCapEnd = 1;
lineCapStart = 1;
strokeWidth = 50;
};
closed = 0;
nodes = (
(75,0,l),
(75,200,l)
);
},
{
attr = {
fillColor = (0,255);
lineCapEnd = 1;
lineCapStart = 1;
strokeWidth = 50;
};
closed = 0;
nodes = (
(75,200,l),
(475,600,l)
);
},
{
attr = {
fillColor = (0,255);
lineCapEnd = 1;
lineCapStart = 1;
strokeWidth = 50;
};
closed = 0;
nodes = (
(475,600,l),
(174,300,l)
);
},
{
attr = {
fillColor = (0,255);
lineCapEnd = 1;
lineCapStart = 1;
strokeWidth = 50;
};
closed = 0;
nodes = (
(174,300,l),
(475,0,l)
);
}
);
width = 550;
},
{
layerId = "9358492D-4FF9-4F7B-B997-4920F2B241F5";
shapes = (
{
attr = {
fillColor = (0,255);
lineCapEnd = 1;
lineCapStart = 1;
strokeWidth = 70;
};
closed = 0;
nodes = (
(105,600,l),
(105,0,l)
);
},
{
attr = {
fillColor = (0,255);
lineCapEnd = 1;
lineCapStart = 1;
strokeWidth = 70;
};
closed = 0;
nodes = (
(105,0,l),
(105,200,l)
);
},
{
attr = {
fillColor = (0,255);
lineCapEnd = 1;
lineCapStart = 1;
strokeWidth = 70;
};
closed = 0;
nodes = (
(105,200,l),
(505,600,l)
);
},
{
attr = {
fillColor = (0,255);
lineCapEnd = 1;
lineCapStart = 1;
strokeWidth = 70;
};
closed = 0;
nodes = (
(505,600,l),
(204,300,l)
);
},
{
attr = {
fillColor = (0,255);
lineCapEnd = 1;
lineCapStart = 1;
strokeWidth = 70;
};
closed = 0;
nodes = (
(204,300,l),
(505,0,l)
);
}
);
width = 610;
}
);
unicode = 75;
},
{
glyphname = L;
lastChange = "2023-06-01 17:39:34 +0000";
layers = (
{
layerId = m01;
shapes = (
{
attr = {
fillColor = (0,255);
lineCapEnd = 1;
lineCapStart = 1;
};
closed = 0;
nodes = (
(0,600,l),
(0,0,l)
);
},
{
attr = {
fillColor = (0,255);
lineCapEnd = 1;
lineCapStart = 1;
};
closed = 0;
nodes = (
(0,0,l),
(400,0,l)
);
}
);
width = 400;
},
{
layerId = "BA8956FC-D56C-4217-8F3F-AABAC9C1291C";
shapes = (
{
attr = {
fillColor = (0,255);
lineCapEnd = 1;
lineCapStart = 1;
strokeWidth = 30;
};
closed = 0;
nodes = (
(45,600,l),
(45,0,l)
);
},
{
attr = {
fillColor = (0,255);
lineCapEnd = 1;
lineCapStart = 1;
strokeWidth = 30;
};
closed = 0;
nodes = (
(45,0,l),
(445,0,l)
);
}
);
width = 490;
},
{
layerId = "95B08458-B918-474B-A742-A9E3D7F32A73";
shapes = (
{
attr = {
fillColor = (0,255);
lineCapEnd = 1;
lineCapStart = 1;
strokeWidth = 40;
};
closed = 0;
nodes = (
(60,600,l),
(60,0,l)
);
},
{
attr = {
fillColor = (0,255);
lineCapEnd = 1;
lineCapStart = 1;
strokeWidth = 40;
};
closed = 0;
nodes = (
(60,0,l),
(460,0,l)
);
}
);
width = 520;
},
{
layerId = "100BDB2C-EC52-4B94-A255-ABC384BB93CE";
shapes = (
{
attr = {
fillColor = (0,255);
lineCapEnd = 1;
lineCapStart = 1;
strokeWidth = 50;
};
closed = 0;
nodes = (
(75,600,l),
(75,0,l)
);
},
{
attr = {
fillColor = (0,255);
lineCapEnd = 1;
lineCapStart = 1;
strokeWidth = 50;
};
closed = 0;
nodes = (
(75,0,l),
(475,0,l)
);
}
);
width = 550;
},
{
layerId = "9358492D-4FF9-4F7B-B997-4920F2B241F5";
shapes = (
{
attr = {
fillColor = (0,255);
lineCapEnd = 1;
lineCapStart = 1;
strokeWidth = 70;
};
closed = 0;
nodes = (
(105,600,l),
(105,0,l)
);
},
{
attr = {
fillColor = (0,255);
lineCapEnd = 1;
lineCapStart = 1;
strokeWidth = 70;
};
closed = 0;
nodes = (
(105,0,l),
(505,0,l)
);
}
);
width = 610;
}
);
unicode = 76;
},
{
glyphname = M;
lastChange = "2023-06-01 17:39:34 +0000";
layers = (
{
layerId = m01;
shapes = (
{
attr = {
fillColor = (0,255);
lineCapEnd = 1;
lineCapStart = 1;
};
closed = 0;
nodes = (
(0,0,l),
(0,600,l)
);
},
{
attr = {
fillColor = (0,255);
lineCapEnd = 1;
lineCapStart = 1;
};
closed = 0;
nodes = (
(0,600,l),
(200,400,l)
);
},
{
attr = {
fillColor = (0,255);
lineCapEnd = 1;
lineCapStart = 1;
};
closed = 0;
nodes = (
(200,400,l),
(400,600,l)
);
},
{
attr = {
fillColor = (0,255);
lineCapEnd = 1;
lineCapStart = 1;
};
closed = 0;
nodes = (
(400,600,l),
(400,0,l)
);
}
);
width = 400;
},
{
layerId = "BA8956FC-D56C-4217-8F3F-AABAC9C1291C";
shapes = (
{
attr = {
fillColor = (0,255);
lineCapEnd = 1;
lineCapStart = 1;
strokeWidth = 30;
};
closed = 0;
nodes = (
(45,0,l),
(45,600,l)
);
},
{
attr = {
fillColor = (0,255);
lineCapEnd = 1;
lineCapStart = 1;
strokeWidth = 30;
};
closed = 0;
nodes = (
(45,600,l),
(245,400,l)
);
},
{
attr = {
fillColor = (0,255);
lineCapEnd = 1;
lineCapStart = 1;
strokeWidth = 30;
};
closed = 0;
nodes = (
(245,400,l),
(445,600,l)
);
},
{
attr = {
fillColor = (0,255);
lineCapEnd = 1;
lineCapStart = 1;
strokeWidth = 30;
};
closed = 0;
nodes = (
(445,600,l),
(445,0,l)
);
}
);
width = 490;
},
{
layerId = "95B08458-B918-474B-A742-A9E3D7F32A73";
shapes = (
{
attr = {
fillColor = (0,255);
lineCapEnd = 1;
lineCapStart = 1;
strokeWidth = 40;
};
closed = 0;
nodes = (
(60,0,l),
(60,600,l)
);
},
{
attr = {
fillColor = (0,255);
lineCapEnd = 1;
lineCapStart = 1;
strokeWidth = 40;
};
closed = 0;
nodes = (
(60,600,l),
(260,400,l)
);
},
{
attr = {
fillColor = (0,255);
lineCapEnd = 1;
lineCapStart = 1;
strokeWidth = 40;
};
closed = 0;
nodes = (
(260,400,l),
(460,600,l)
);
},
{
attr = {
fillColor = (0,255);
lineCapEnd = 1;
lineCapStart = 1;
strokeWidth = 40;
};
closed = 0;
nodes = (
(460,600,l),
(460,0,l)
);
}
);
width = 520;
},
{
layerId = "100BDB2C-EC52-4B94-A255-ABC384BB93CE";
shapes = (
{
attr = {
fillColor = (0,255);
lineCapEnd = 1;
lineCapStart = 1;
strokeWidth = 50;
};
closed = 0;
nodes = (
(75,0,l),
(75,600,l)
);
},
{
attr = {
fillColor = (0,255);
lineCapEnd = 1;
lineCapStart = 1;
strokeWidth = 50;
};
closed = 0;
nodes = (
(75,600,l),
(275,400,l)
);
},
{
attr = {
fillColor = (0,255);
lineCapEnd = 1;
lineCapStart = 1;
strokeWidth = 50;
};
closed = 0;
nodes = (
(275,400,l),
(475,600,l)
);
},
{
attr = {
fillColor = (0,255);
lineCapEnd = 1;
lineCapStart = 1;
strokeWidth = 50;
};
closed = 0;
nodes = (
(475,600,l),
(475,0,l)
);
}
);
width = 550;
},
{
layerId = "9358492D-4FF9-4F7B-B997-4920F2B241F5";
shapes = (
{
attr = {
fillColor = (0,255);
lineCapEnd = 1;
lineCapStart = 1;
strokeWidth = 70;
};
closed = 0;
nodes = (
(105,0,l),
(105,600,l)
);
},
{
attr = {
fillColor = (0,255);
lineCapEnd = 1;
lineCapStart = 1;
strokeWidth = 70;
};
closed = 0;
nodes = (
(105,600,l),
(305,400,l)
);
},
{
attr = {
fillColor = (0,255);
lineCapEnd = 1;
lineCapStart = 1;
strokeWidth = 70;
};
closed = 0;
nodes = (
(305,400,l),
(505,600,l)
);
},
{
attr = {
fillColor = (0,255);
lineCapEnd = 1;
lineCapStart = 1;
strokeWidth = 70;
};
closed = 0;
nodes = (
(505,600,l),
(505,0,l)
);
}
);
width = 610;
}
);
unicode = 77;
},
{
glyphname = N;
lastChange = "2023-06-01 17:39:34 +0000";
layers = (
{
layerId = m01;
shapes = (
{
attr = {
fillColor = (0,255);
lineCapEnd = 1;
lineCapStart = 1;
};
closed = 0;
nodes = (
(0,0,l),
(0,600,l)
);
},
{
attr = {
fillColor = (0,255);
lineCapEnd = 1;
lineCapStart = 1;
};
closed = 0;
nodes = (
(0,600,l),
(400,0,l)
);
},
{
attr = {
fillColor = (0,255);
lineCapEnd = 1;
lineCapStart = 1;
};
closed = 0;
nodes = (
(400,0,l),
(400,600,l)
);
}
);
width = 400;
},
{
layerId = "BA8956FC-D56C-4217-8F3F-AABAC9C1291C";
shapes = (
{
attr = {
fillColor = (0,255);
lineCapEnd = 1;
lineCapStart = 1;
strokeWidth = 30;
};
closed = 0;
nodes = (
(45,0,l),
(45,600,l)
);
},
{
attr = {
fillColor = (0,255);
lineCapEnd = 1;
lineCapStart = 1;
strokeWidth = 30;
};
closed = 0;
nodes = (
(45,600,l),
(445,0,l)
);
},
{
attr = {
fillColor = (0,255);
lineCapEnd = 1;
lineCapStart = 1;
strokeWidth = 30;
};
closed = 0;
nodes = (
(445,0,l),
(445,600,l)
);
}
);
width = 490;
},
{
layerId = "95B08458-B918-474B-A742-A9E3D7F32A73";
shapes = (
{
attr = {
fillColor = (0,255);
lineCapEnd = 1;
lineCapStart = 1;
strokeWidth = 40;
};
closed = 0;
nodes = (
(60,0,l),
(60,600,l)
);
},
{
attr = {
fillColor = (0,255);
lineCapEnd = 1;
lineCapStart = 1;
strokeWidth = 40;
};
closed = 0;
nodes = (
(60,600,l),
(460,0,l)
);
},
{
attr = {
fillColor = (0,255);
lineCapEnd = 1;
lineCapStart = 1;
strokeWidth = 40;
};
closed = 0;
nodes = (
(460,0,l),
(460,600,l)
);
}
);
width = 520;
},
{
layerId = "100BDB2C-EC52-4B94-A255-ABC384BB93CE";
shapes = (
{
attr = {
fillColor = (0,255);
lineCapEnd = 1;
lineCapStart = 1;
strokeWidth = 50;
};
closed = 0;
nodes = (
(75,0,l),
(75,600,l)
);
},
{
attr = {
fillColor = (0,255);
lineCapEnd = 1;
lineCapStart = 1;
strokeWidth = 50;
};
closed = 0;
nodes = (
(75,600,l),
(475,0,l)
);
},
{
attr = {
fillColor = (0,255);
lineCapEnd = 1;
lineCapStart = 1;
strokeWidth = 50;
};
closed = 0;
nodes = (
(475,0,l),
(475,600,l)
);
}
);
width = 550;
},
{
layerId = "9358492D-4FF9-4F7B-B997-4920F2B241F5";
shapes = (
{
attr = {
fillColor = (0,255);
lineCapEnd = 1;
lineCapStart = 1;
strokeWidth = 70;
};
closed = 0;
nodes = (
(105,0,l),
(105,600,l)
);
},
{
attr = {
fillColor = (0,255);
lineCapEnd = 1;
lineCapStart = 1;
strokeWidth = 70;
};
closed = 0;
nodes = (
(105,600,l),
(505,0,l)
);
},
{
attr = {
fillColor = (0,255);
lineCapEnd = 1;
lineCapStart = 1;
strokeWidth = 70;
};
closed = 0;
nodes = (
(505,0,l),
(505,600,l)
);
}
);
width = 610;
}
);
unicode = 78;
},
{
glyphname = O;
lastChange = "2023-06-01 17:39:34 +0000";
layers = (
{
layerId = m01;
shapes = (
{
attr = {
fillColor = (0,255);
lineCapEnd = 1;
lineCapStart = 1;
};
closed = 0;
nodes = (
(300,600,l),
(99,600,l)
);
},
{
attr = {
fillColor = (0,255);
lineCapEnd = 1;
lineCapStart = 1;
};
closed = 0;
nodes = (
(99,600,l),
(0,501,l)
);
},
{
attr = {
fillColor = (0,255);
lineCapEnd = 1;
lineCapStart = 1;
};
closed = 0;
nodes = (
(0,501,l),
(0,100,l)
);
},
{
attr = {
fillColor = (0,255);
lineCapEnd = 1;
lineCapStart = 1;
};
closed = 0;
nodes = (
(0,100,l),
(99,0,l)
);
},
{
attr = {
fillColor = (0,255);
lineCapEnd = 1;
lineCapStart = 1;
};
closed = 0;
nodes = (
(99,0,l),
(300,0,l)
);
},
{
attr = {
fillColor = (0,255);
lineCapEnd = 1;
lineCapStart = 1;
};
closed = 0;
nodes = (
(300,0,l),
(400,100,l)
);
},
{
attr = {
fillColor = (0,255);
lineCapEnd = 1;
lineCapStart = 1;
};
closed = 0;
nodes = (
(400,100,l),
(400,501,l)
);
},
{
attr = {
fillColor = (0,255);
lineCapEnd = 1;
lineCapStart = 1;
};
closed = 0;
nodes = (
(400,501,l),
(300,600,l)
);
}
);
width = 400;
},
{
layerId = "BA8956FC-D56C-4217-8F3F-AABAC9C1291C";
shapes = (
{
attr = {
fillColor = (0,255);
lineCapEnd = 1;
lineCapStart = 1;
strokeWidth = 30;
};
closed = 0;
nodes = (
(345,600,l),
(144,600,l)
);
},
{
attr = {
fillColor = (0,255);
lineCapEnd = 1;
lineCapStart = 1;
strokeWidth = 30;
};
closed = 0;
nodes = (
(144,600,l),
(45,501,l)
);
},
{
attr = {
fillColor = (0,255);
lineCapEnd = 1;
lineCapStart = 1;
strokeWidth = 30;
};
closed = 0;
nodes = (
(45,501,l),
(45,100,l)
);
},
{
attr = {
fillColor = (0,255);
lineCapEnd = 1;
lineCapStart = 1;
strokeWidth = 30;
};
closed = 0;
nodes = (
(45,100,l),
(144,0,l)
);
},
{
attr = {
fillColor = (0,255);
lineCapEnd = 1;
lineCapStart = 1;
strokeWidth = 30;
};
closed = 0;
nodes = (
(144,0,l),
(345,0,l)
);
},
{
attr = {
fillColor = (0,255);
lineCapEnd = 1;
lineCapStart = 1;
strokeWidth = 30;
};
closed = 0;
nodes = (
(345,0,l),
(445,100,l)
);
},
{
attr = {
fillColor = (0,255);
lineCapEnd = 1;
lineCapStart = 1;
strokeWidth = 30;
};
closed = 0;
nodes = (
(445,100,l),
(445,501,l)
);
},
{
attr = {
fillColor = (0,255);
lineCapEnd = 1;
lineCapStart = 1;
strokeWidth = 30;
};
closed = 0;
nodes = (
(445,501,l),
(345,600,l)
);
}
);
width = 490;
},
{
layerId = "95B08458-B918-474B-A742-A9E3D7F32A73";
shapes = (
{
attr = {
fillColor = (0,255);
lineCapEnd = 1;
lineCapStart = 1;
strokeWidth = 40;
};
closed = 0;
nodes = (
(360,600,l),
(159,600,l)
);
},
{
attr = {
fillColor = (0,255);
lineCapEnd = 1;
lineCapStart = 1;
strokeWidth = 40;
};
closed = 0;
nodes = (
(159,600,l),
(60,501,l)
);
},
{
attr = {
fillColor = (0,255);
lineCapEnd = 1;
lineCapStart = 1;
strokeWidth = 40;
};
closed = 0;
nodes = (
(60,501,l),
(60,100,l)
);
},
{
attr = {
fillColor = (0,255);
lineCapEnd = 1;
lineCapStart = 1;
strokeWidth = 40;
};
closed = 0;
nodes = (
(60,100,l),
(159,0,l)
);
},
{
attr = {
fillColor = (0,255);
lineCapEnd = 1;
lineCapStart = 1;
strokeWidth = 40;
};
closed = 0;
nodes = (
(159,0,l),
(360,0,l)
);
},
{
attr = {
fillColor = (0,255);
lineCapEnd = 1;
lineCapStart = 1;
strokeWidth = 40;
};
closed = 0;
nodes = (
(360,0,l),
(460,100,l)
);
},
{
attr = {
fillColor = (0,255);
lineCapEnd = 1;
lineCapStart = 1;
strokeWidth = 40;
};
closed = 0;
nodes = (
(460,100,l),
(460,501,l)
);
},
{
attr = {
fillColor = (0,255);
lineCapEnd = 1;
lineCapStart = 1;
strokeWidth = 40;
};
closed = 0;
nodes = (
(460,501,l),
(360,600,l)
);
}
);
width = 520;
},
{
layerId = "100BDB2C-EC52-4B94-A255-ABC384BB93CE";
shapes = (
{
attr = {
fillColor = (0,255);
lineCapEnd = 1;
lineCapStart = 1;
strokeWidth = 50;
};
closed = 0;
nodes = (
(375,600,l),
(174,600,l)
);
},
{
attr = {
fillColor = (0,255);
lineCapEnd = 1;
lineCapStart = 1;
strokeWidth = 50;
};
closed = 0;
nodes = (
(174,600,l),
(75,501,l)
);
},
{
attr = {
fillColor = (0,255);
lineCapEnd = 1;
lineCapStart = 1;
strokeWidth = 50;
};
closed = 0;
nodes = (
(75,501,l),
(75,100,l)
);
},
{
attr = {
fillColor = (0,255);
lineCapEnd = 1;
lineCapStart = 1;
strokeWidth = 50;
};
closed = 0;
nodes = (
(75,100,l),
(174,0,l)
);
},
{
attr = {
fillColor = (0,255);
lineCapEnd = 1;
lineCapStart = 1;
strokeWidth = 50;
};
closed = 0;
nodes = (
(174,0,l),
(375,0,l)
);
},
{
attr = {
fillColor = (0,255);
lineCapEnd = 1;
lineCapStart = 1;
strokeWidth = 50;
};
closed = 0;
nodes = (
(375,0,l),
(475,100,l)
);
},
{
attr = {
fillColor = (0,255);
lineCapEnd = 1;
lineCapStart = 1;
strokeWidth = 50;
};
closed = 0;
nodes = (
(475,100,l),
(475,501,l)
);
},
{
attr = {
fillColor = (0,255);
lineCapEnd = 1;
lineCapStart = 1;
strokeWidth = 50;
};
closed = 0;
nodes = (
(475,501,l),
(375,600,l)
);
}
);
width = 550;
},
{
layerId = "9358492D-4FF9-4F7B-B997-4920F2B241F5";
shapes = (
{
attr = {
fillColor = (0,255);
lineCapEnd = 1;
lineCapStart = 1;
strokeWidth = 70;
};
closed = 0;
nodes = (
(405,600,l),
(204,600,l)
);
},
{
attr = {
fillColor = (0,255);
lineCapEnd = 1;
lineCapStart = 1;
strokeWidth = 70;
};
closed = 0;
nodes = (
(204,600,l),
(105,501,l)
);
},
{
attr = {
fillColor = (0,255);
lineCapEnd = 1;
lineCapStart = 1;
strokeWidth = 70;
};
closed = 0;
nodes = (
(105,501,l),
(105,100,l)
);
},
{
attr = {
fillColor = (0,255);
lineCapEnd = 1;
lineCapStart = 1;
strokeWidth = 70;
};
closed = 0;
nodes = (
(105,100,l),
(204,0,l)
);
},
{
attr = {
fillColor = (0,255);
lineCapEnd = 1;
lineCapStart = 1;
strokeWidth = 70;
};
closed = 0;
nodes = (
(204,0,l),
(405,0,l)
);
},
{
attr = {
fillColor = (0,255);
lineCapEnd = 1;
lineCapStart = 1;
strokeWidth = 70;
};
closed = 0;
nodes = (
(405,0,l),
(505,100,l)
);
},
{
attr = {
fillColor = (0,255);
lineCapEnd = 1;
lineCapStart = 1;
strokeWidth = 70;
};
closed = 0;
nodes = (
(505,100,l),
(505,501,l)
);
},
{
attr = {
fillColor = (0,255);
lineCapEnd = 1;
lineCapStart = 1;
strokeWidth = 70;
};
closed = 0;
nodes = (
(505,501,l),
(405,600,l)
);
}
);
width = 610;
}
);
unicode = 79;
},
{
glyphname = P;
lastChange = "2023-06-01 17:39:34 +0000";
layers = (
{
layerId = m01;
shapes = (
{
attr = {
fillColor = (0,255);
lineCapEnd = 1;
lineCapStart = 1;
};
closed = 0;
nodes = (
(0,0,l),
(0,600,l)
);
},
{
attr = {
fillColor = (0,255);
lineCapEnd = 1;
lineCapStart = 1;
};
closed = 0;
nodes = (
(0,600,l),
(300,600,l)
);
},
{
attr = {
fillColor = (0,255);
lineCapEnd = 1;
lineCapStart = 1;
};
closed = 0;
nodes = (
(300,600,l),
(400,501,l)
);
},
{
attr = {
fillColor = (0,255);
lineCapEnd = 1;
lineCapStart = 1;
};
closed = 0;
nodes = (
(400,501,l),
(400,300,l)
);
},
{
attr = {
fillColor = (0,255);
lineCapEnd = 1;
lineCapStart = 1;
};
closed = 0;
nodes = (
(400,300,l),
(300,200,l)
);
},
{
attr = {
fillColor = (0,255);
lineCapEnd = 1;
lineCapStart = 1;
};
closed = 0;
nodes = (
(300,200,l),
(0,200,l)
);
}
);
width = 400;
},
{
layerId = "BA8956FC-D56C-4217-8F3F-AABAC9C1291C";
shapes = (
{
attr = {
fillColor = (0,255);
lineCapEnd = 1;
lineCapStart = 1;
strokeWidth = 30;
};
closed = 0;
nodes = (
(45,0,l),
(45,600,l)
);
},
{
attr = {
fillColor = (0,255);
lineCapEnd = 1;
lineCapStart = 1;
strokeWidth = 30;
};
closed = 0;
nodes = (
(45,600,l),
(345,600,l)
);
},
{
attr = {
fillColor = (0,255);
lineCapEnd = 1;
lineCapStart = 1;
strokeWidth = 30;
};
closed = 0;
nodes = (
(345,600,l),
(445,501,l)
);
},
{
attr = {
fillColor = (0,255);
lineCapEnd = 1;
lineCapStart = 1;
strokeWidth = 30;
};
closed = 0;
nodes = (
(445,501,l),
(445,300,l)
);
},
{
attr = {
fillColor = (0,255);
lineCapEnd = 1;
lineCapStart = 1;
strokeWidth = 30;
};
closed = 0;
nodes = (
(445,300,l),
(345,200,l)
);
},
{
attr = {
fillColor = (0,255);
lineCapEnd = 1;
lineCapStart = 1;
strokeWidth = 30;
};
closed = 0;
nodes = (
(345,200,l),
(45,200,l)
);
}
);
width = 490;
},
{
layerId = "95B08458-B918-474B-A742-A9E3D7F32A73";
shapes = (
{
attr = {
fillColor = (0,255);
lineCapEnd = 1;
lineCapStart = 1;
strokeWidth = 40;
};
closed = 0;
nodes = (
(60,0,l),
(60,600,l)
);
},
{
attr = {
fillColor = (0,255);
lineCapEnd = 1;
lineCapStart = 1;
strokeWidth = 40;
};
closed = 0;
nodes = (
(60,600,l),
(360,600,l)
);
},
{
attr = {
fillColor = (0,255);
lineCapEnd = 1;
lineCapStart = 1;
strokeWidth = 40;
};
closed = 0;
nodes = (
(360,600,l),
(460,501,l)
);
},
{
attr = {
fillColor = (0,255);
lineCapEnd = 1;
lineCapStart = 1;
strokeWidth = 40;
};
closed = 0;
nodes = (
(460,501,l),
(460,300,l)
);
},
{
attr = {
fillColor = (0,255);
lineCapEnd = 1;
lineCapStart = 1;
strokeWidth = 40;
};
closed = 0;
nodes = (
(460,300,l),
(360,200,l)
);
},
{
attr = {
fillColor = (0,255);
lineCapEnd = 1;
lineCapStart = 1;
strokeWidth = 40;
};
closed = 0;
nodes = (
(360,200,l),
(60,200,l)
);
}
);
width = 520;
},
{
layerId = "100BDB2C-EC52-4B94-A255-ABC384BB93CE";
shapes = (
{
attr = {
fillColor = (0,255);
lineCapEnd = 1;
lineCapStart = 1;
strokeWidth = 50;
};
closed = 0;
nodes = (
(75,0,l),
(75,600,l)
);
},
{
attr = {
fillColor = (0,255);
lineCapEnd = 1;
lineCapStart = 1;
strokeWidth = 50;
};
closed = 0;
nodes = (
(75,600,l),
(375,600,l)
);
},
{
attr = {
fillColor = (0,255);
lineCapEnd = 1;
lineCapStart = 1;
strokeWidth = 50;
};
closed = 0;
nodes = (
(375,600,l),
(475,501,l)
);
},
{
attr = {
fillColor = (0,255);
lineCapEnd = 1;
lineCapStart = 1;
strokeWidth = 50;
};
closed = 0;
nodes = (
(475,501,l),
(475,300,l)
);
},
{
attr = {
fillColor = (0,255);
lineCapEnd = 1;
lineCapStart = 1;
strokeWidth = 50;
};
closed = 0;
nodes = (
(475,300,l),
(375,200,l)
);
},
{
attr = {
fillColor = (0,255);
lineCapEnd = 1;
lineCapStart = 1;
strokeWidth = 50;
};
closed = 0;
nodes = (
(375,200,l),
(75,200,l)
);
}
);
width = 550;
},
{
layerId = "9358492D-4FF9-4F7B-B997-4920F2B241F5";
shapes = (
{
attr = {
fillColor = (0,255);
lineCapEnd = 1;
lineCapStart = 1;
strokeWidth = 70;
};
closed = 0;
nodes = (
(105,0,l),
(105,600,l)
);
},
{
attr = {
fillColor = (0,255);
lineCapEnd = 1;
lineCapStart = 1;
strokeWidth = 70;
};
closed = 0;
nodes = (
(105,600,l),
(405,600,l)
);
},
{
attr = {
fillColor = (0,255);
lineCapEnd = 1;
lineCapStart = 1;
strokeWidth = 70;
};
closed = 0;
nodes = (
(405,600,l),
(505,501,l)
);
},
{
attr = {
fillColor = (0,255);
lineCapEnd = 1;
lineCapStart = 1;
strokeWidth = 70;
};
closed = 0;
nodes = (
(505,501,l),
(505,300,l)
);
},
{
attr = {
fillColor = (0,255);
lineCapEnd = 1;
lineCapStart = 1;
strokeWidth = 70;
};
closed = 0;
nodes = (
(505,300,l),
(405,200,l)
);
},
{
attr = {
fillColor = (0,255);
lineCapEnd = 1;
lineCapStart = 1;
strokeWidth = 70;
};
closed = 0;
nodes = (
(405,200,l),
(105,200,l)
);
}
);
width = 610;
}
);
unicode = 80;
},
{
glyphname = Q;
lastChange = "2023-06-01 17:39:34 +0000";
layers = (
{
layerId = m01;
shapes = (
{
attr = {
fillColor = (0,255);
lineCapEnd = 1;
lineCapStart = 1;
};
closed = 0;
nodes = (
(400,100,l),
(400,501,l)
);
},
{
attr = {
fillColor = (0,255);
lineCapEnd = 1;
lineCapStart = 1;
};
closed = 0;
nodes = (
(400,501,l),
(300,600,l)
);
},
{
attr = {
fillColor = (0,255);
lineCapEnd = 1;
lineCapStart = 1;
};
closed = 0;
nodes = (
(300,600,l),
(99,600,l)
);
},
{
attr = {
fillColor = (0,255);
lineCapEnd = 1;
lineCapStart = 1;
};
closed = 0;
nodes = (
(99,600,l),
(0,501,l)
);
},
{
attr = {
fillColor = (0,255);
lineCapEnd = 1;
lineCapStart = 1;
};
closed = 0;
nodes = (
(0,501,l),
(0,100,l)
);
},
{
attr = {
fillColor = (0,255);
lineCapEnd = 1;
lineCapStart = 1;
};
closed = 0;
nodes = (
(0,100,l),
(99,0,l)
);
},
{
attr = {
fillColor = (0,255);
lineCapEnd = 1;
lineCapStart = 1;
};
closed = 0;
nodes = (
(99,0,l),
(300,0,l)
);
},
{
attr = {
fillColor = (0,255);
lineCapEnd = 1;
lineCapStart = 1;
};
closed = 0;
nodes = (
(200,200,l),
(400,0,l)
);
},
{
attr = {
fillColor = (0,255);
lineCapEnd = 1;
lineCapStart = 1;
};
closed = 0;
nodes = (
(300,0,l),
(400,100,l)
);
}
);
width = 400;
},
{
layerId = "BA8956FC-D56C-4217-8F3F-AABAC9C1291C";
shapes = (
{
attr = {
fillColor = (0,255);
lineCapEnd = 1;
lineCapStart = 1;
strokeWidth = 30;
};
closed = 0;
nodes = (
(445,100,l),
(445,501,l)
);
},
{
attr = {
fillColor = (0,255);
lineCapEnd = 1;
lineCapStart = 1;
strokeWidth = 30;
};
closed = 0;
nodes = (
(445,501,l),
(345,600,l)
);
},
{
attr = {
fillColor = (0,255);
lineCapEnd = 1;
lineCapStart = 1;
strokeWidth = 30;
};
closed = 0;
nodes = (
(345,600,l),
(144,600,l)
);
},
{
attr = {
fillColor = (0,255);
lineCapEnd = 1;
lineCapStart = 1;
strokeWidth = 30;
};
closed = 0;
nodes = (
(144,600,l),
(45,501,l)
);
},
{
attr = {
fillColor = (0,255);
lineCapEnd = 1;
lineCapStart = 1;
strokeWidth = 30;
};
closed = 0;
nodes = (
(45,501,l),
(45,100,l)
);
},
{
attr = {
fillColor = (0,255);
lineCapEnd = 1;
lineCapStart = 1;
strokeWidth = 30;
};
closed = 0;
nodes = (
(45,100,l),
(144,0,l)
);
},
{
attr = {
fillColor = (0,255);
lineCapEnd = 1;
lineCapStart = 1;
strokeWidth = 30;
};
closed = 0;
nodes = (
(144,0,l),
(345,0,l)
);
},
{
attr = {
fillColor = (0,255);
lineCapEnd = 1;
lineCapStart = 1;
strokeWidth = 30;
};
closed = 0;
nodes = (
(245,200,l),
(445,0,l)
);
},
{
attr = {
fillColor = (0,255);
lineCapEnd = 1;
lineCapStart = 1;
strokeWidth = 30;
};
closed = 0;
nodes = (
(345,0,l),
(445,100,l)
);
}
);
width = 490;
},
{
layerId = "95B08458-B918-474B-A742-A9E3D7F32A73";
shapes = (
{
attr = {
fillColor = (0,255);
lineCapEnd = 1;
lineCapStart = 1;
strokeWidth = 40;
};
closed = 0;
nodes = (
(460,100,l),
(460,501,l)
);
},
{
attr = {
fillColor = (0,255);
lineCapEnd = 1;
lineCapStart = 1;
strokeWidth = 40;
};
closed = 0;
nodes = (
(460,501,l),
(360,600,l)
);
},
{
attr = {
fillColor = (0,255);
lineCapEnd = 1;
lineCapStart = 1;
strokeWidth = 40;
};
closed = 0;
nodes = (
(360,600,l),
(159,600,l)
);
},
{
attr = {
fillColor = (0,255);
lineCapEnd = 1;
lineCapStart = 1;
strokeWidth = 40;
};
closed = 0;
nodes = (
(159,600,l),
(60,501,l)
);
},
{
attr = {
fillColor = (0,255);
lineCapEnd = 1;
lineCapStart = 1;
strokeWidth = 40;
};
closed = 0;
nodes = (
(60,501,l),
(60,100,l)
);
},
{
attr = {
fillColor = (0,255);
lineCapEnd = 1;
lineCapStart = 1;
strokeWidth = 40;
};
closed = 0;
nodes = (
(60,100,l),
(159,0,l)
);
},
{
attr = {
fillColor = (0,255);
lineCapEnd = 1;
lineCapStart = 1;
strokeWidth = 40;
};
closed = 0;
nodes = (
(159,0,l),
(360,0,l)
);
},
{
attr = {
fillColor = (0,255);
lineCapEnd = 1;
lineCapStart = 1;
strokeWidth = 40;
};
closed = 0;
nodes = (
(260,200,l),
(460,0,l)
);
},
{
attr = {
fillColor = (0,255);
lineCapEnd = 1;
lineCapStart = 1;
strokeWidth = 40;
};
closed = 0;
nodes = (
(360,0,l),
(460,100,l)
);
}
);
width = 520;
},
{
layerId = "100BDB2C-EC52-4B94-A255-ABC384BB93CE";
shapes = (
{
attr = {
fillColor = (0,255);
lineCapEnd = 1;
lineCapStart = 1;
strokeWidth = 50;
};
closed = 0;
nodes = (
(475,100,l),
(475,501,l)
);
},
{
attr = {
fillColor = (0,255);
lineCapEnd = 1;
lineCapStart = 1;
strokeWidth = 50;
};
closed = 0;
nodes = (
(475,501,l),
(375,600,l)
);
},
{
attr = {
fillColor = (0,255);
lineCapEnd = 1;
lineCapStart = 1;
strokeWidth = 50;
};
closed = 0;
nodes = (
(375,600,l),
(174,600,l)
);
},
{
attr = {
fillColor = (0,255);
lineCapEnd = 1;
lineCapStart = 1;
strokeWidth = 50;
};
closed = 0;
nodes = (
(174,600,l),
(75,501,l)
);
},
{
attr = {
fillColor = (0,255);
lineCapEnd = 1;
lineCapStart = 1;
strokeWidth = 50;
};
closed = 0;
nodes = (
(75,501,l),
(75,100,l)
);
},
{
attr = {
fillColor = (0,255);
lineCapEnd = 1;
lineCapStart = 1;
strokeWidth = 50;
};
closed = 0;
nodes = (
(75,100,l),
(174,0,l)
);
},
{
attr = {
fillColor = (0,255);
lineCapEnd = 1;
lineCapStart = 1;
strokeWidth = 50;
};
closed = 0;
nodes = (
(174,0,l),
(375,0,l)
);
},
{
attr = {
fillColor = (0,255);
lineCapEnd = 1;
lineCapStart = 1;
strokeWidth = 50;
};
closed = 0;
nodes = (
(275,200,l),
(475,0,l)
);
},
{
attr = {
fillColor = (0,255);
lineCapEnd = 1;
lineCapStart = 1;
strokeWidth = 50;
};
closed = 0;
nodes = (
(375,0,l),
(475,100,l)
);
}
);
width = 550;
},
{
layerId = "9358492D-4FF9-4F7B-B997-4920F2B241F5";
shapes = (
{
attr = {
fillColor = (0,255);
lineCapEnd = 1;
lineCapStart = 1;
strokeWidth = 70;
};
closed = 0;
nodes = (
(505,100,l),
(505,501,l)
);
},
{
attr = {
fillColor = (0,255);
lineCapEnd = 1;
lineCapStart = 1;
strokeWidth = 70;
};
closed = 0;
nodes = (
(505,501,l),
(405,600,l)
);
},
{
attr = {
fillColor = (0,255);
lineCapEnd = 1;
lineCapStart = 1;
strokeWidth = 70;
};
closed = 0;
nodes = (
(405,600,l),
(204,600,l)
);
},
{
attr = {
fillColor = (0,255);
lineCapEnd = 1;
lineCapStart = 1;
strokeWidth = 70;
};
closed = 0;
nodes = (
(204,600,l),
(105,501,l)
);
},
{
attr = {
fillColor = (0,255);
lineCapEnd = 1;
lineCapStart = 1;
strokeWidth = 70;
};
closed = 0;
nodes = (
(105,501,l),
(105,100,l)
);
},
{
attr = {
fillColor = (0,255);
lineCapEnd = 1;
lineCapStart = 1;
strokeWidth = 70;
};
closed = 0;
nodes = (
(105,100,l),
(204,0,l)
);
},
{
attr = {
fillColor = (0,255);
lineCapEnd = 1;
lineCapStart = 1;
strokeWidth = 70;
};
closed = 0;
nodes = (
(204,0,l),
(405,0,l)
);
},
{
attr = {
fillColor = (0,255);
lineCapEnd = 1;
lineCapStart = 1;
strokeWidth = 70;
};
closed = 0;
nodes = (
(305,200,l),
(505,0,l)
);
},
{
attr = {
fillColor = (0,255);
lineCapEnd = 1;
lineCapStart = 1;
strokeWidth = 70;
};
closed = 0;
nodes = (
(405,0,l),
(505,100,l)
);
}
);
width = 610;
}
);
unicode = 81;
},
{
glyphname = R;
lastChange = "2023-06-01 17:39:34 +0000";
layers = (
{
layerId = m01;
shapes = (
{
attr = {
fillColor = (0,255);
lineCapEnd = 1;
lineCapStart = 1;
};
closed = 0;
nodes = (
(0,0,l),
(0,600,l)
);
},
{
attr = {
fillColor = (0,255);
lineCapEnd = 1;
lineCapStart = 1;
};
closed = 0;
nodes = (
(0,600,l),
(300,600,l)
);
},
{
attr = {
fillColor = (0,255);
lineCapEnd = 1;
lineCapStart = 1;
};
closed = 0;
nodes = (
(300,600,l),
(400,501,l)
);
},
{
attr = {
fillColor = (0,255);
lineCapEnd = 1;
lineCapStart = 1;
};
closed = 0;
nodes = (
(400,501,l),
(400,300,l)
);
},
{
attr = {
fillColor = (0,255);
lineCapEnd = 1;
lineCapStart = 1;
};
closed = 0;
nodes = (
(400,300,l),
(300,200,l)
);
},
{
attr = {
fillColor = (0,255);
lineCapEnd = 1;
lineCapStart = 1;
};
closed = 0;
nodes = (
(300,200,l),
(0,200,l)
);
},
{
attr = {
fillColor = (0,255);
lineCapEnd = 1;
lineCapStart = 1;
};
closed = 0;
nodes = (
(200,200,l),
(400,0,l)
);
}
);
width = 400;
},
{
layerId = "BA8956FC-D56C-4217-8F3F-AABAC9C1291C";
shapes = (
{
attr = {
fillColor = (0,255);
lineCapEnd = 1;
lineCapStart = 1;
strokeWidth = 30;
};
closed = 0;
nodes = (
(45,0,l),
(45,600,l)
);
},
{
attr = {
fillColor = (0,255);
lineCapEnd = 1;
lineCapStart = 1;
strokeWidth = 30;
};
closed = 0;
nodes = (
(45,600,l),
(345,600,l)
);
},
{
attr = {
fillColor = (0,255);
lineCapEnd = 1;
lineCapStart = 1;
strokeWidth = 30;
};
closed = 0;
nodes = (
(345,600,l),
(445,501,l)
);
},
{
attr = {
fillColor = (0,255);
lineCapEnd = 1;
lineCapStart = 1;
strokeWidth = 30;
};
closed = 0;
nodes = (
(445,501,l),
(445,300,l)
);
},
{
attr = {
fillColor = (0,255);
lineCapEnd = 1;
lineCapStart = 1;
strokeWidth = 30;
};
closed = 0;
nodes = (
(445,300,l),
(345,200,l)
);
},
{
attr = {
fillColor = (0,255);
lineCapEnd = 1;
lineCapStart = 1;
strokeWidth = 30;
};
closed = 0;
nodes = (
(345,200,l),
(45,200,l)
);
},
{
attr = {
fillColor = (0,255);
lineCapEnd = 1;
lineCapStart = 1;
strokeWidth = 30;
};
closed = 0;
nodes = (
(245,200,l),
(445,0,l)
);
}
);
width = 490;
},
{
layerId = "95B08458-B918-474B-A742-A9E3D7F32A73";
shapes = (
{
attr = {
fillColor = (0,255);
lineCapEnd = 1;
lineCapStart = 1;
strokeWidth = 40;
};
closed = 0;
nodes = (
(60,0,l),
(60,600,l)
);
},
{
attr = {
fillColor = (0,255);
lineCapEnd = 1;
lineCapStart = 1;
strokeWidth = 40;
};
closed = 0;
nodes = (
(60,600,l),
(360,600,l)
);
},
{
attr = {
fillColor = (0,255);
lineCapEnd = 1;
lineCapStart = 1;
strokeWidth = 40;
};
closed = 0;
nodes = (
(360,600,l),
(460,501,l)
);
},
{
attr = {
fillColor = (0,255);
lineCapEnd = 1;
lineCapStart = 1;
strokeWidth = 40;
};
closed = 0;
nodes = (
(460,501,l),
(460,300,l)
);
},
{
attr = {
fillColor = (0,255);
lineCapEnd = 1;
lineCapStart = 1;
strokeWidth = 40;
};
closed = 0;
nodes = (
(460,300,l),
(360,200,l)
);
},
{
attr = {
fillColor = (0,255);
lineCapEnd = 1;
lineCapStart = 1;
strokeWidth = 40;
};
closed = 0;
nodes = (
(360,200,l),
(60,200,l)
);
},
{
attr = {
fillColor = (0,255);
lineCapEnd = 1;
lineCapStart = 1;
strokeWidth = 40;
};
closed = 0;
nodes = (
(260,200,l),
(460,0,l)
);
}
);
width = 520;
},
{
layerId = "100BDB2C-EC52-4B94-A255-ABC384BB93CE";
shapes = (
{
attr = {
fillColor = (0,255);
lineCapEnd = 1;
lineCapStart = 1;
strokeWidth = 50;
};
closed = 0;
nodes = (
(75,0,l),
(75,600,l)
);
},
{
attr = {
fillColor = (0,255);
lineCapEnd = 1;
lineCapStart = 1;
strokeWidth = 50;
};
closed = 0;
nodes = (
(75,600,l),
(375,600,l)
);
},
{
attr = {
fillColor = (0,255);
lineCapEnd = 1;
lineCapStart = 1;
strokeWidth = 50;
};
closed = 0;
nodes = (
(375,600,l),
(475,501,l)
);
},
{
attr = {
fillColor = (0,255);
lineCapEnd = 1;
lineCapStart = 1;
strokeWidth = 50;
};
closed = 0;
nodes = (
(475,501,l),
(475,300,l)
);
},
{
attr = {
fillColor = (0,255);
lineCapEnd = 1;
lineCapStart = 1;
strokeWidth = 50;
};
closed = 0;
nodes = (
(475,300,l),
(375,200,l)
);
},
{
attr = {
fillColor = (0,255);
lineCapEnd = 1;
lineCapStart = 1;
strokeWidth = 50;
};
closed = 0;
nodes = (
(375,200,l),
(75,200,l)
);
},
{
attr = {
fillColor = (0,255);
lineCapEnd = 1;
lineCapStart = 1;
strokeWidth = 50;
};
closed = 0;
nodes = (
(275,200,l),
(475,0,l)
);
}
);
width = 550;
},
{
layerId = "9358492D-4FF9-4F7B-B997-4920F2B241F5";
shapes = (
{
attr = {
fillColor = (0,255);
lineCapEnd = 1;
lineCapStart = 1;
strokeWidth = 70;
};
closed = 0;
nodes = (
(105,0,l),
(105,600,l)
);
},
{
attr = {
fillColor = (0,255);
lineCapEnd = 1;
lineCapStart = 1;
strokeWidth = 70;
};
closed = 0;
nodes = (
(105,600,l),
(405,600,l)
);
},
{
attr = {
fillColor = (0,255);
lineCapEnd = 1;
lineCapStart = 1;
strokeWidth = 70;
};
closed = 0;
nodes = (
(405,600,l),
(505,501,l)
);
},
{
attr = {
fillColor = (0,255);
lineCapEnd = 1;
lineCapStart = 1;
strokeWidth = 70;
};
closed = 0;
nodes = (
(505,501,l),
(505,300,l)
);
},
{
attr = {
fillColor = (0,255);
lineCapEnd = 1;
lineCapStart = 1;
strokeWidth = 70;
};
closed = 0;
nodes = (
(505,300,l),
(405,200,l)
);
},
{
attr = {
fillColor = (0,255);
lineCapEnd = 1;
lineCapStart = 1;
strokeWidth = 70;
};
closed = 0;
nodes = (
(405,200,l),
(105,200,l)
);
},
{
attr = {
fillColor = (0,255);
lineCapEnd = 1;
lineCapStart = 1;
strokeWidth = 70;
};
closed = 0;
nodes = (
(305,200,l),
(505,0,l)
);
}
);
width = 610;
}
);
unicode = 82;
},
{
glyphname = S;
lastChange = "2023-06-01 17:39:34 +0000";
layers = (
{
layerId = m01;
shapes = (
{
attr = {
fillColor = (0,255);
lineCapEnd = 1;
lineCapStart = 1;
};
closed = 0;
nodes = (
(400,501,l),
(300,600,l)
);
},
{
attr = {
fillColor = (0,255);
lineCapEnd = 1;
lineCapStart = 1;
};
closed = 0;
nodes = (
(300,600,l),
(99,600,l)
);
},
{
attr = {
fillColor = (0,255);
lineCapEnd = 1;
lineCapStart = 1;
};
closed = 0;
nodes = (
(99,600,l),
(0,501,l)
);
},
{
attr = {
fillColor = (0,255);
lineCapEnd = 1;
lineCapStart = 1;
};
closed = 0;
nodes = (
(0,501,l),
(0,400,l)
);
},
{
attr = {
fillColor = (0,255);
lineCapEnd = 1;
lineCapStart = 1;
};
closed = 0;
nodes = (
(0,400,l),
(99,300,l)
);
},
{
attr = {
fillColor = (0,255);
lineCapEnd = 1;
lineCapStart = 1;
};
closed = 0;
nodes = (
(99,300,l),
(300,300,l)
);
},
{
attr = {
fillColor = (0,255);
lineCapEnd = 1;
lineCapStart = 1;
};
closed = 0;
nodes = (
(300,300,l),
(400,200,l)
);
},
{
attr = {
fillColor = (0,255);
lineCapEnd = 1;
lineCapStart = 1;
};
closed = 0;
nodes = (
(400,200,l),
(400,100,l)
);
},
{
attr = {
fillColor = (0,255);
lineCapEnd = 1;
lineCapStart = 1;
};
closed = 0;
nodes = (
(400,100,l),
(300,0,l)
);
},
{
attr = {
fillColor = (0,255);
lineCapEnd = 1;
lineCapStart = 1;
};
closed = 0;
nodes = (
(300,0,l),
(99,0,l)
);
},
{
attr = {
fillColor = (0,255);
lineCapEnd = 1;
lineCapStart = 1;
};
closed = 0;
nodes = (
(99,0,l),
(0,100,l)
);
}
);
width = 400;
},
{
layerId = "BA8956FC-D56C-4217-8F3F-AABAC9C1291C";
shapes = (
{
attr = {
fillColor = (0,255);
lineCapEnd = 1;
lineCapStart = 1;
strokeWidth = 30;
};
closed = 0;
nodes = (
(445,501,l),
(345,600,l)
);
},
{
attr = {
fillColor = (0,255);
lineCapEnd = 1;
lineCapStart = 1;
strokeWidth = 30;
};
closed = 0;
nodes = (
(345,600,l),
(144,600,l)
);
},
{
attr = {
fillColor = (0,255);
lineCapEnd = 1;
lineCapStart = 1;
strokeWidth = 30;
};
closed = 0;
nodes = (
(144,600,l),
(45,501,l)
);
},
{
attr = {
fillColor = (0,255);
lineCapEnd = 1;
lineCapStart = 1;
strokeWidth = 30;
};
closed = 0;
nodes = (
(45,501,l),
(45,400,l)
);
},
{
attr = {
fillColor = (0,255);
lineCapEnd = 1;
lineCapStart = 1;
strokeWidth = 30;
};
closed = 0;
nodes = (
(45,400,l),
(144,300,l)
);
},
{
attr = {
fillColor = (0,255);
lineCapEnd = 1;
lineCapStart = 1;
strokeWidth = 30;
};
closed = 0;
nodes = (
(144,300,l),
(345,300,l)
);
},
{
attr = {
fillColor = (0,255);
lineCapEnd = 1;
lineCapStart = 1;
strokeWidth = 30;
};
closed = 0;
nodes = (
(345,300,l),
(445,200,l)
);
},
{
attr = {
fillColor = (0,255);
lineCapEnd = 1;
lineCapStart = 1;
strokeWidth = 30;
};
closed = 0;
nodes = (
(445,200,l),
(445,100,l)
);
},
{
attr = {
fillColor = (0,255);
lineCapEnd = 1;
lineCapStart = 1;
strokeWidth = 30;
};
closed = 0;
nodes = (
(445,100,l),
(345,0,l)
);
},
{
attr = {
fillColor = (0,255);
lineCapEnd = 1;
lineCapStart = 1;
strokeWidth = 30;
};
closed = 0;
nodes = (
(345,0,l),
(144,0,l)
);
},
{
attr = {
fillColor = (0,255);
lineCapEnd = 1;
lineCapStart = 1;
strokeWidth = 30;
};
closed = 0;
nodes = (
(144,0,l),
(45,100,l)
);
}
);
width = 490;
},
{
layerId = "95B08458-B918-474B-A742-A9E3D7F32A73";
shapes = (
{
attr = {
fillColor = (0,255);
lineCapEnd = 1;
lineCapStart = 1;
strokeWidth = 40;
};
closed = 0;
nodes = (
(460,501,l),
(360,600,l)
);
},
{
attr = {
fillColor = (0,255);
lineCapEnd = 1;
lineCapStart = 1;
strokeWidth = 40;
};
closed = 0;
nodes = (
(360,600,l),
(159,600,l)
);
},
{
attr = {
fillColor = (0,255);
lineCapEnd = 1;
lineCapStart = 1;
strokeWidth = 40;
};
closed = 0;
nodes = (
(159,600,l),
(60,501,l)
);
},
{
attr = {
fillColor = (0,255);
lineCapEnd = 1;
lineCapStart = 1;
strokeWidth = 40;
};
closed = 0;
nodes = (
(60,501,l),
(60,400,l)
);
},
{
attr = {
fillColor = (0,255);
lineCapEnd = 1;
lineCapStart = 1;
strokeWidth = 40;
};
closed = 0;
nodes = (
(60,400,l),
(159,300,l)
);
},
{
attr = {
fillColor = (0,255);
lineCapEnd = 1;
lineCapStart = 1;
strokeWidth = 40;
};
closed = 0;
nodes = (
(159,300,l),
(360,300,l)
);
},
{
attr = {
fillColor = (0,255);
lineCapEnd = 1;
lineCapStart = 1;
strokeWidth = 40;
};
closed = 0;
nodes = (
(360,300,l),
(460,200,l)
);
},
{
attr = {
fillColor = (0,255);
lineCapEnd = 1;
lineCapStart = 1;
strokeWidth = 40;
};
closed = 0;
nodes = (
(460,200,l),
(460,100,l)
);
},
{
attr = {
fillColor = (0,255);
lineCapEnd = 1;
lineCapStart = 1;
strokeWidth = 40;
};
closed = 0;
nodes = (
(460,100,l),
(360,0,l)
);
},
{
attr = {
fillColor = (0,255);
lineCapEnd = 1;
lineCapStart = 1;
strokeWidth = 40;
};
closed = 0;
nodes = (
(360,0,l),
(159,0,l)
);
},
{
attr = {
fillColor = (0,255);
lineCapEnd = 1;
lineCapStart = 1;
strokeWidth = 40;
};
closed = 0;
nodes = (
(159,0,l),
(60,100,l)
);
}
);
width = 520;
},
{
layerId = "100BDB2C-EC52-4B94-A255-ABC384BB93CE";
shapes = (
{
attr = {
fillColor = (0,255);
lineCapEnd = 1;
lineCapStart = 1;
strokeWidth = 50;
};
closed = 0;
nodes = (
(475,501,l),
(375,600,l)
);
},
{
attr = {
fillColor = (0,255);
lineCapEnd = 1;
lineCapStart = 1;
strokeWidth = 50;
};
closed = 0;
nodes = (
(375,600,l),
(174,600,l)
);
},
{
attr = {
fillColor = (0,255);
lineCapEnd = 1;
lineCapStart = 1;
strokeWidth = 50;
};
closed = 0;
nodes = (
(174,600,l),
(75,501,l)
);
},
{
attr = {
fillColor = (0,255);
lineCapEnd = 1;
lineCapStart = 1;
strokeWidth = 50;
};
closed = 0;
nodes = (
(75,501,l),
(75,400,l)
);
},
{
attr = {
fillColor = (0,255);
lineCapEnd = 1;
lineCapStart = 1;
strokeWidth = 50;
};
closed = 0;
nodes = (
(75,400,l),
(174,300,l)
);
},
{
attr = {
fillColor = (0,255);
lineCapEnd = 1;
lineCapStart = 1;
strokeWidth = 50;
};
closed = 0;
nodes = (
(174,300,l),
(375,300,l)
);
},
{
attr = {
fillColor = (0,255);
lineCapEnd = 1;
lineCapStart = 1;
strokeWidth = 50;
};
closed = 0;
nodes = (
(375,300,l),
(475,200,l)
);
},
{
attr = {
fillColor = (0,255);
lineCapEnd = 1;
lineCapStart = 1;
strokeWidth = 50;
};
closed = 0;
nodes = (
(475,200,l),
(475,100,l)
);
},
{
attr = {
fillColor = (0,255);
lineCapEnd = 1;
lineCapStart = 1;
strokeWidth = 50;
};
closed = 0;
nodes = (
(475,100,l),
(375,0,l)
);
},
{
attr = {
fillColor = (0,255);
lineCapEnd = 1;
lineCapStart = 1;
strokeWidth = 50;
};
closed = 0;
nodes = (
(375,0,l),
(174,0,l)
);
},
{
attr = {
fillColor = (0,255);
lineCapEnd = 1;
lineCapStart = 1;
strokeWidth = 50;
};
closed = 0;
nodes = (
(174,0,l),
(75,100,l)
);
}
);
width = 550;
},
{
layerId = "9358492D-4FF9-4F7B-B997-4920F2B241F5";
shapes = (
{
attr = {
fillColor = (0,255);
lineCapEnd = 1;
lineCapStart = 1;
strokeWidth = 70;
};
closed = 0;
nodes = (
(505,501,l),
(405,600,l)
);
},
{
attr = {
fillColor = (0,255);
lineCapEnd = 1;
lineCapStart = 1;
strokeWidth = 70;
};
closed = 0;
nodes = (
(405,600,l),
(204,600,l)
);
},
{
attr = {
fillColor = (0,255);
lineCapEnd = 1;
lineCapStart = 1;
strokeWidth = 70;
};
closed = 0;
nodes = (
(204,600,l),
(105,501,l)
);
},
{
attr = {
fillColor = (0,255);
lineCapEnd = 1;
lineCapStart = 1;
strokeWidth = 70;
};
closed = 0;
nodes = (
(105,501,l),
(105,400,l)
);
},
{
attr = {
fillColor = (0,255);
lineCapEnd = 1;
lineCapStart = 1;
strokeWidth = 70;
};
closed = 0;
nodes = (
(105,400,l),
(204,300,l)
);
},
{
attr = {
fillColor = (0,255);
lineCapEnd = 1;
lineCapStart = 1;
strokeWidth = 70;
};
closed = 0;
nodes = (
(204,300,l),
(405,300,l)
);
},
{
attr = {
fillColor = (0,255);
lineCapEnd = 1;
lineCapStart = 1;
strokeWidth = 70;
};
closed = 0;
nodes = (
(405,300,l),
(505,200,l)
);
},
{
attr = {
fillColor = (0,255);
lineCapEnd = 1;
lineCapStart = 1;
strokeWidth = 70;
};
closed = 0;
nodes = (
(505,200,l),
(505,100,l)
);
},
{
attr = {
fillColor = (0,255);
lineCapEnd = 1;
lineCapStart = 1;
strokeWidth = 70;
};
closed = 0;
nodes = (
(505,100,l),
(405,0,l)
);
},
{
attr = {
fillColor = (0,255);
lineCapEnd = 1;
lineCapStart = 1;
strokeWidth = 70;
};
closed = 0;
nodes = (
(405,0,l),
(204,0,l)
);
},
{
attr = {
fillColor = (0,255);
lineCapEnd = 1;
lineCapStart = 1;
strokeWidth = 70;
};
closed = 0;
nodes = (
(204,0,l),
(105,100,l)
);
}
);
width = 610;
}
);
unicode = 83;
},
{
glyphname = T;
lastChange = "2023-06-01 17:39:34 +0000";
layers = (
{
layerId = m01;
shapes = (
{
attr = {
fillColor = (0,255);
lineCapEnd = 1;
lineCapStart = 1;
};
closed = 0;
nodes = (
(0,600,l),
(400,600,l)
);
},
{
attr = {
fillColor = (0,255);
lineCapEnd = 1;
lineCapStart = 1;
};
closed = 0;
nodes = (
(400,600,l),
(200,600,l)
);
},
{
attr = {
fillColor = (0,255);
lineCapEnd = 1;
lineCapStart = 1;
};
closed = 0;
nodes = (
(200,600,l),
(200,0,l)
);
}
);
width = 400;
},
{
layerId = "BA8956FC-D56C-4217-8F3F-AABAC9C1291C";
shapes = (
{
attr = {
fillColor = (0,255);
lineCapEnd = 1;
lineCapStart = 1;
strokeWidth = 30;
};
closed = 0;
nodes = (
(45,600,l),
(445,600,l)
);
},
{
attr = {
fillColor = (0,255);
lineCapEnd = 1;
lineCapStart = 1;
strokeWidth = 30;
};
closed = 0;
nodes = (
(445,600,l),
(245,600,l)
);
},
{
attr = {
fillColor = (0,255);
lineCapEnd = 1;
lineCapStart = 1;
strokeWidth = 30;
};
closed = 0;
nodes = (
(245,600,l),
(245,0,l)
);
}
);
width = 490;
},
{
layerId = "95B08458-B918-474B-A742-A9E3D7F32A73";
shapes = (
{
attr = {
fillColor = (0,255);
lineCapEnd = 1;
lineCapStart = 1;
strokeWidth = 40;
};
closed = 0;
nodes = (
(60,600,l),
(460,600,l)
);
},
{
attr = {
fillColor = (0,255);
lineCapEnd = 1;
lineCapStart = 1;
strokeWidth = 40;
};
closed = 0;
nodes = (
(460,600,l),
(260,600,l)
);
},
{
attr = {
fillColor = (0,255);
lineCapEnd = 1;
lineCapStart = 1;
strokeWidth = 40;
};
closed = 0;
nodes = (
(260,600,l),
(260,0,l)
);
}
);
width = 520;
},
{
layerId = "100BDB2C-EC52-4B94-A255-ABC384BB93CE";
shapes = (
{
attr = {
fillColor = (0,255);
lineCapEnd = 1;
lineCapStart = 1;
strokeWidth = 50;
};
closed = 0;
nodes = (
(75,600,l),
(475,600,l)
);
},
{
attr = {
fillColor = (0,255);
lineCapEnd = 1;
lineCapStart = 1;
strokeWidth = 50;
};
closed = 0;
nodes = (
(475,600,l),
(275,600,l)
);
},
{
attr = {
fillColor = (0,255);
lineCapEnd = 1;
lineCapStart = 1;
strokeWidth = 50;
};
closed = 0;
nodes = (
(275,600,l),
(275,0,l)
);
}
);
width = 550;
},
{
layerId = "9358492D-4FF9-4F7B-B997-4920F2B241F5";
shapes = (
{
attr = {
fillColor = (0,255);
lineCapEnd = 1;
lineCapStart = 1;
strokeWidth = 70;
};
closed = 0;
nodes = (
(105,600,l),
(505,600,l)
);
},
{
attr = {
fillColor = (0,255);
lineCapEnd = 1;
lineCapStart = 1;
strokeWidth = 70;
};
closed = 0;
nodes = (
(505,600,l),
(305,600,l)
);
},
{
attr = {
fillColor = (0,255);
lineCapEnd = 1;
lineCapStart = 1;
strokeWidth = 70;
};
closed = 0;
nodes = (
(305,600,l),
(305,0,l)
);
}
);
width = 610;
}
);
unicode = 84;
},
{
glyphname = U;
lastChange = "2023-06-01 17:39:34 +0000";
layers = (
{
layerId = m01;
shapes = (
{
attr = {
fillColor = (0,255);
lineCapEnd = 1;
lineCapStart = 1;
};
closed = 0;
nodes = (
(0,600,l),
(0,100,l)
);
},
{
attr = {
fillColor = (0,255);
lineCapEnd = 1;
lineCapStart = 1;
};
closed = 0;
nodes = (
(0,100,l),
(99,0,l)
);
},
{
attr = {
fillColor = (0,255);
lineCapEnd = 1;
lineCapStart = 1;
};
closed = 0;
nodes = (
(99,0,l),
(300,0,l)
);
},
{
attr = {
fillColor = (0,255);
lineCapEnd = 1;
lineCapStart = 1;
};
closed = 0;
nodes = (
(300,0,l),
(400,100,l)
);
},
{
attr = {
fillColor = (0,255);
lineCapEnd = 1;
lineCapStart = 1;
};
closed = 0;
nodes = (
(400,100,l),
(400,600,l)
);
}
);
width = 400;
},
{
layerId = "BA8956FC-D56C-4217-8F3F-AABAC9C1291C";
shapes = (
{
attr = {
fillColor = (0,255);
lineCapEnd = 1;
lineCapStart = 1;
strokeWidth = 30;
};
closed = 0;
nodes = (
(45,600,l),
(45,100,l)
);
},
{
attr = {
fillColor = (0,255);
lineCapEnd = 1;
lineCapStart = 1;
strokeWidth = 30;
};
closed = 0;
nodes = (
(45,100,l),
(144,0,l)
);
},
{
attr = {
fillColor = (0,255);
lineCapEnd = 1;
lineCapStart = 1;
strokeWidth = 30;
};
closed = 0;
nodes = (
(144,0,l),
(345,0,l)
);
},
{
attr = {
fillColor = (0,255);
lineCapEnd = 1;
lineCapStart = 1;
strokeWidth = 30;
};
closed = 0;
nodes = (
(345,0,l),
(445,100,l)
);
},
{
attr = {
fillColor = (0,255);
lineCapEnd = 1;
lineCapStart = 1;
strokeWidth = 30;
};
closed = 0;
nodes = (
(445,100,l),
(445,600,l)
);
}
);
width = 490;
},
{
layerId = "95B08458-B918-474B-A742-A9E3D7F32A73";
shapes = (
{
attr = {
fillColor = (0,255);
lineCapEnd = 1;
lineCapStart = 1;
strokeWidth = 40;
};
closed = 0;
nodes = (
(60,600,l),
(60,100,l)
);
},
{
attr = {
fillColor = (0,255);
lineCapEnd = 1;
lineCapStart = 1;
strokeWidth = 40;
};
closed = 0;
nodes = (
(60,100,l),
(159,0,l)
);
},
{
attr = {
fillColor = (0,255);
lineCapEnd = 1;
lineCapStart = 1;
strokeWidth = 40;
};
closed = 0;
nodes = (
(159,0,l),
(360,0,l)
);
},
{
attr = {
fillColor = (0,255);
lineCapEnd = 1;
lineCapStart = 1;
strokeWidth = 40;
};
closed = 0;
nodes = (
(360,0,l),
(460,100,l)
);
},
{
attr = {
fillColor = (0,255);
lineCapEnd = 1;
lineCapStart = 1;
strokeWidth = 40;
};
closed = 0;
nodes = (
(460,100,l),
(460,600,l)
);
}
);
width = 520;
},
{
layerId = "100BDB2C-EC52-4B94-A255-ABC384BB93CE";
shapes = (
{
attr = {
fillColor = (0,255);
lineCapEnd = 1;
lineCapStart = 1;
strokeWidth = 50;
};
closed = 0;
nodes = (
(75,600,l),
(75,100,l)
);
},
{
attr = {
fillColor = (0,255);
lineCapEnd = 1;
lineCapStart = 1;
strokeWidth = 50;
};
closed = 0;
nodes = (
(75,100,l),
(174,0,l)
);
},
{
attr = {
fillColor = (0,255);
lineCapEnd = 1;
lineCapStart = 1;
strokeWidth = 50;
};
closed = 0;
nodes = (
(174,0,l),
(375,0,l)
);
},
{
attr = {
fillColor = (0,255);
lineCapEnd = 1;
lineCapStart = 1;
strokeWidth = 50;
};
closed = 0;
nodes = (
(375,0,l),
(475,100,l)
);
},
{
attr = {
fillColor = (0,255);
lineCapEnd = 1;
lineCapStart = 1;
strokeWidth = 50;
};
closed = 0;
nodes = (
(475,100,l),
(475,600,l)
);
}
);
width = 550;
},
{
layerId = "9358492D-4FF9-4F7B-B997-4920F2B241F5";
shapes = (
{
attr = {
fillColor = (0,255);
lineCapEnd = 1;
lineCapStart = 1;
strokeWidth = 70;
};
closed = 0;
nodes = (
(105,600,l),
(105,100,l)
);
},
{
attr = {
fillColor = (0,255);
lineCapEnd = 1;
lineCapStart = 1;
strokeWidth = 70;
};
closed = 0;
nodes = (
(105,100,l),
(204,0,l)
);
},
{
attr = {
fillColor = (0,255);
lineCapEnd = 1;
lineCapStart = 1;
strokeWidth = 70;
};
closed = 0;
nodes = (
(204,0,l),
(405,0,l)
);
},
{
attr = {
fillColor = (0,255);
lineCapEnd = 1;
lineCapStart = 1;
strokeWidth = 70;
};
closed = 0;
nodes = (
(405,0,l),
(505,100,l)
);
},
{
attr = {
fillColor = (0,255);
lineCapEnd = 1;
lineCapStart = 1;
strokeWidth = 70;
};
closed = 0;
nodes = (
(505,100,l),
(505,600,l)
);
}
);
width = 610;
}
);
unicode = 85;
},
{
glyphname = V;
lastChange = "2023-06-01 17:39:34 +0000";
layers = (
{
layerId = m01;
shapes = (
{
attr = {
fillColor = (0,255);
lineCapEnd = 1;
lineCapStart = 1;
};
closed = 0;
nodes = (
(0,600,l),
(0,200,l)
);
},
{
attr = {
fillColor = (0,255);
lineCapEnd = 1;
lineCapStart = 1;
};
closed = 0;
nodes = (
(0,200,l),
(200,0,l)
);
},
{
attr = {
fillColor = (0,255);
lineCapEnd = 1;
lineCapStart = 1;
};
closed = 0;
nodes = (
(200,0,l),
(400,200,l)
);
},
{
attr = {
fillColor = (0,255);
lineCapEnd = 1;
lineCapStart = 1;
};
closed = 0;
nodes = (
(400,200,l),
(400,600,l)
);
}
);
width = 400;
},
{
layerId = "BA8956FC-D56C-4217-8F3F-AABAC9C1291C";
shapes = (
{
attr = {
fillColor = (0,255);
lineCapEnd = 1;
lineCapStart = 1;
strokeWidth = 30;
};
closed = 0;
nodes = (
(45,600,l),
(45,200,l)
);
},
{
attr = {
fillColor = (0,255);
lineCapEnd = 1;
lineCapStart = 1;
strokeWidth = 30;
};
closed = 0;
nodes = (
(45,200,l),
(245,0,l)
);
},
{
attr = {
fillColor = (0,255);
lineCapEnd = 1;
lineCapStart = 1;
strokeWidth = 30;
};
closed = 0;
nodes = (
(245,0,l),
(445,200,l)
);
},
{
attr = {
fillColor = (0,255);
lineCapEnd = 1;
lineCapStart = 1;
strokeWidth = 30;
};
closed = 0;
nodes = (
(445,200,l),
(445,600,l)
);
}
);
width = 490;
},
{
layerId = "95B08458-B918-474B-A742-A9E3D7F32A73";
shapes = (
{
attr = {
fillColor = (0,255);
lineCapEnd = 1;
lineCapStart = 1;
strokeWidth = 40;
};
closed = 0;
nodes = (
(60,600,l),
(60,200,l)
);
},
{
attr = {
fillColor = (0,255);
lineCapEnd = 1;
lineCapStart = 1;
strokeWidth = 40;
};
closed = 0;
nodes = (
(60,200,l),
(260,0,l)
);
},
{
attr = {
fillColor = (0,255);
lineCapEnd = 1;
lineCapStart = 1;
strokeWidth = 40;
};
closed = 0;
nodes = (
(260,0,l),
(460,200,l)
);
},
{
attr = {
fillColor = (0,255);
lineCapEnd = 1;
lineCapStart = 1;
strokeWidth = 40;
};
closed = 0;
nodes = (
(460,200,l),
(460,600,l)
);
}
);
width = 520;
},
{
layerId = "100BDB2C-EC52-4B94-A255-ABC384BB93CE";
shapes = (
{
attr = {
fillColor = (0,255);
lineCapEnd = 1;
lineCapStart = 1;
strokeWidth = 50;
};
closed = 0;
nodes = (
(75,600,l),
(75,200,l)
);
},
{
attr = {
fillColor = (0,255);
lineCapEnd = 1;
lineCapStart = 1;
strokeWidth = 50;
};
closed = 0;
nodes = (
(75,200,l),
(275,0,l)
);
},
{
attr = {
fillColor = (0,255);
lineCapEnd = 1;
lineCapStart = 1;
strokeWidth = 50;
};
closed = 0;
nodes = (
(275,0,l),
(475,200,l)
);
},
{
attr = {
fillColor = (0,255);
lineCapEnd = 1;
lineCapStart = 1;
strokeWidth = 50;
};
closed = 0;
nodes = (
(475,200,l),
(475,600,l)
);
}
);
width = 550;
},
{
layerId = "9358492D-4FF9-4F7B-B997-4920F2B241F5";
shapes = (
{
attr = {
fillColor = (0,255);
lineCapEnd = 1;
lineCapStart = 1;
strokeWidth = 70;
};
closed = 0;
nodes = (
(105,600,l),
(105,200,l)
);
},
{
attr = {
fillColor = (0,255);
lineCapEnd = 1;
lineCapStart = 1;
strokeWidth = 70;
};
closed = 0;
nodes = (
(105,200,l),
(305,0,l)
);
},
{
attr = {
fillColor = (0,255);
lineCapEnd = 1;
lineCapStart = 1;
strokeWidth = 70;
};
closed = 0;
nodes = (
(305,0,l),
(505,200,l)
);
},
{
attr = {
fillColor = (0,255);
lineCapEnd = 1;
lineCapStart = 1;
strokeWidth = 70;
};
closed = 0;
nodes = (
(505,200,l),
(505,600,l)
);
}
);
width = 610;
}
);
unicode = 86;
},
{
glyphname = W;
lastChange = "2023-06-01 17:39:34 +0000";
layers = (
{
layerId = m01;
shapes = (
{
attr = {
fillColor = (0,255);
lineCapEnd = 1;
lineCapStart = 1;
};
closed = 0;
nodes = (
(0,600,l),
(0,0,l)
);
},
{
attr = {
fillColor = (0,255);
lineCapEnd = 1;
lineCapStart = 1;
};
closed = 0;
nodes = (
(0,0,l),
(200,200,l)
);
},
{
attr = {
fillColor = (0,255);
lineCapEnd = 1;
lineCapStart = 1;
};
closed = 0;
nodes = (
(200,200,l),
(400,0,l)
);
},
{
attr = {
fillColor = (0,255);
lineCapEnd = 1;
lineCapStart = 1;
};
closed = 0;
nodes = (
(400,0,l),
(400,600,l)
);
}
);
width = 400;
},
{
layerId = "BA8956FC-D56C-4217-8F3F-AABAC9C1291C";
shapes = (
{
attr = {
fillColor = (0,255);
lineCapEnd = 1;
lineCapStart = 1;
strokeWidth = 30;
};
closed = 0;
nodes = (
(45,600,l),
(45,0,l)
);
},
{
attr = {
fillColor = (0,255);
lineCapEnd = 1;
lineCapStart = 1;
strokeWidth = 30;
};
closed = 0;
nodes = (
(45,0,l),
(245,200,l)
);
},
{
attr = {
fillColor = (0,255);
lineCapEnd = 1;
lineCapStart = 1;
strokeWidth = 30;
};
closed = 0;
nodes = (
(245,200,l),
(445,0,l)
);
},
{
attr = {
fillColor = (0,255);
lineCapEnd = 1;
lineCapStart = 1;
strokeWidth = 30;
};
closed = 0;
nodes = (
(445,0,l),
(445,600,l)
);
}
);
width = 490;
},
{
layerId = "95B08458-B918-474B-A742-A9E3D7F32A73";
shapes = (
{
attr = {
fillColor = (0,255);
lineCapEnd = 1;
lineCapStart = 1;
strokeWidth = 40;
};
closed = 0;
nodes = (
(60,600,l),
(60,0,l)
);
},
{
attr = {
fillColor = (0,255);
lineCapEnd = 1;
lineCapStart = 1;
strokeWidth = 40;
};
closed = 0;
nodes = (
(60,0,l),
(260,200,l)
);
},
{
attr = {
fillColor = (0,255);
lineCapEnd = 1;
lineCapStart = 1;
strokeWidth = 40;
};
closed = 0;
nodes = (
(260,200,l),
(460,0,l)
);
},
{
attr = {
fillColor = (0,255);
lineCapEnd = 1;
lineCapStart = 1;
strokeWidth = 40;
};
closed = 0;
nodes = (
(460,0,l),
(460,600,l)
);
}
);
width = 520;
},
{
layerId = "100BDB2C-EC52-4B94-A255-ABC384BB93CE";
shapes = (
{
attr = {
fillColor = (0,255);
lineCapEnd = 1;
lineCapStart = 1;
strokeWidth = 50;
};
closed = 0;
nodes = (
(75,600,l),
(75,0,l)
);
},
{
attr = {
fillColor = (0,255);
lineCapEnd = 1;
lineCapStart = 1;
strokeWidth = 50;
};
closed = 0;
nodes = (
(75,0,l),
(275,200,l)
);
},
{
attr = {
fillColor = (0,255);
lineCapEnd = 1;
lineCapStart = 1;
strokeWidth = 50;
};
closed = 0;
nodes = (
(275,200,l),
(475,0,l)
);
},
{
attr = {
fillColor = (0,255);
lineCapEnd = 1;
lineCapStart = 1;
strokeWidth = 50;
};
closed = 0;
nodes = (
(475,0,l),
(475,600,l)
);
}
);
width = 550;
},
{
layerId = "9358492D-4FF9-4F7B-B997-4920F2B241F5";
shapes = (
{
attr = {
fillColor = (0,255);
lineCapEnd = 1;
lineCapStart = 1;
strokeWidth = 70;
};
closed = 0;
nodes = (
(105,600,l),
(105,0,l)
);
},
{
attr = {
fillColor = (0,255);
lineCapEnd = 1;
lineCapStart = 1;
strokeWidth = 70;
};
closed = 0;
nodes = (
(105,0,l),
(305,200,l)
);
},
{
attr = {
fillColor = (0,255);
lineCapEnd = 1;
lineCapStart = 1;
strokeWidth = 70;
};
closed = 0;
nodes = (
(305,200,l),
(505,0,l)
);
},
{
attr = {
fillColor = (0,255);
lineCapEnd = 1;
lineCapStart = 1;
strokeWidth = 70;
};
closed = 0;
nodes = (
(505,0,l),
(505,600,l)
);
}
);
width = 610;
}
);
unicode = 87;
},
{
glyphname = X;
lastChange = "2023-06-01 17:39:34 +0000";
layers = (
{
layerId = m01;
shapes = (
{
attr = {
fillColor = (0,255);
lineCapEnd = 1;
lineCapStart = 1;
};
closed = 0;
nodes = (
(0,600,l),
(400,0,l)
);
},
{
attr = {
fillColor = (0,255);
lineCapEnd = 1;
lineCapStart = 1;
};
closed = 0;
nodes = (
(400,600,l),
(0,0,l)
);
}
);
width = 400;
},
{
layerId = "BA8956FC-D56C-4217-8F3F-AABAC9C1291C";
shapes = (
{
attr = {
fillColor = (0,255);
lineCapEnd = 1;
lineCapStart = 1;
strokeWidth = 30;
};
closed = 0;
nodes = (
(45,600,l),
(445,0,l)
);
},
{
attr = {
fillColor = (0,255);
lineCapEnd = 1;
lineCapStart = 1;
strokeWidth = 30;
};
closed = 0;
nodes = (
(445,600,l),
(45,0,l)
);
}
);
width = 490;
},
{
layerId = "95B08458-B918-474B-A742-A9E3D7F32A73";
shapes = (
{
attr = {
fillColor = (0,255);
lineCapEnd = 1;
lineCapStart = 1;
strokeWidth = 40;
};
closed = 0;
nodes = (
(60,600,l),
(460,0,l)
);
},
{
attr = {
fillColor = (0,255);
lineCapEnd = 1;
lineCapStart = 1;
strokeWidth = 40;
};
closed = 0;
nodes = (
(460,600,l),
(60,0,l)
);
}
);
width = 520;
},
{
layerId = "100BDB2C-EC52-4B94-A255-ABC384BB93CE";
shapes = (
{
attr = {
fillColor = (0,255);
lineCapEnd = 1;
lineCapStart = 1;
strokeWidth = 50;
};
closed = 0;
nodes = (
(75,600,l),
(475,0,l)
);
},
{
attr = {
fillColor = (0,255);
lineCapEnd = 1;
lineCapStart = 1;
strokeWidth = 50;
};
closed = 0;
nodes = (
(475,600,l),
(75,0,l)
);
}
);
width = 550;
},
{
layerId = "9358492D-4FF9-4F7B-B997-4920F2B241F5";
shapes = (
{
attr = {
fillColor = (0,255);
lineCapEnd = 1;
lineCapStart = 1;
strokeWidth = 70;
};
closed = 0;
nodes = (
(105,600,l),
(505,0,l)
);
},
{
attr = {
fillColor = (0,255);
lineCapEnd = 1;
lineCapStart = 1;
strokeWidth = 70;
};
closed = 0;
nodes = (
(505,600,l),
(105,0,l)
);
}
);
width = 610;
}
);
unicode = 88;
},
{
glyphname = Y;
lastChange = "2023-06-01 17:39:34 +0000";
layers = (
{
layerId = m01;
shapes = (
{
attr = {
fillColor = (0,255);
lineCapEnd = 1;
lineCapStart = 1;
};
closed = 0;
nodes = (
(0,600,l),
(0,501,l)
);
},
{
attr = {
fillColor = (0,255);
lineCapEnd = 1;
lineCapStart = 1;
};
closed = 0;
nodes = (
(0,501,l),
(200,300,l)
);
},
{
attr = {
fillColor = (0,255);
lineCapEnd = 1;
lineCapStart = 1;
};
closed = 0;
nodes = (
(200,300,l),
(400,501,l)
);
},
{
attr = {
fillColor = (0,255);
lineCapEnd = 1;
lineCapStart = 1;
};
closed = 0;
nodes = (
(400,501,l),
(400,600,l)
);
},
{
attr = {
fillColor = (0,255);
lineCapEnd = 1;
lineCapStart = 1;
};
closed = 0;
nodes = (
(200,300,l),
(200,0,l)
);
}
);
width = 400;
},
{
layerId = "BA8956FC-D56C-4217-8F3F-AABAC9C1291C";
shapes = (
{
attr = {
fillColor = (0,255);
lineCapEnd = 1;
lineCapStart = 1;
strokeWidth = 30;
};
closed = 0;
nodes = (
(45,600,l),
(45,501,l)
);
},
{
attr = {
fillColor = (0,255);
lineCapEnd = 1;
lineCapStart = 1;
strokeWidth = 30;
};
closed = 0;
nodes = (
(45,501,l),
(245,300,l)
);
},
{
attr = {
fillColor = (0,255);
lineCapEnd = 1;
lineCapStart = 1;
strokeWidth = 30;
};
closed = 0;
nodes = (
(245,300,l),
(445,501,l)
);
},
{
attr = {
fillColor = (0,255);
lineCapEnd = 1;
lineCapStart = 1;
strokeWidth = 30;
};
closed = 0;
nodes = (
(445,501,l),
(445,600,l)
);
},
{
attr = {
fillColor = (0,255);
lineCapEnd = 1;
lineCapStart = 1;
strokeWidth = 30;
};
closed = 0;
nodes = (
(245,300,l),
(245,0,l)
);
}
);
width = 490;
},
{
layerId = "95B08458-B918-474B-A742-A9E3D7F32A73";
shapes = (
{
attr = {
fillColor = (0,255);
lineCapEnd = 1;
lineCapStart = 1;
strokeWidth = 40;
};
closed = 0;
nodes = (
(60,600,l),
(60,501,l)
);
},
{
attr = {
fillColor = (0,255);
lineCapEnd = 1;
lineCapStart = 1;
strokeWidth = 40;
};
closed = 0;
nodes = (
(60,501,l),
(260,300,l)
);
},
{
attr = {
fillColor = (0,255);
lineCapEnd = 1;
lineCapStart = 1;
strokeWidth = 40;
};
closed = 0;
nodes = (
(260,300,l),
(460,501,l)
);
},
{
attr = {
fillColor = (0,255);
lineCapEnd = 1;
lineCapStart = 1;
strokeWidth = 40;
};
closed = 0;
nodes = (
(460,501,l),
(460,600,l)
);
},
{
attr = {
fillColor = (0,255);
lineCapEnd = 1;
lineCapStart = 1;
strokeWidth = 40;
};
closed = 0;
nodes = (
(260,300,l),
(260,0,l)
);
}
);
width = 520;
},
{
layerId = "100BDB2C-EC52-4B94-A255-ABC384BB93CE";
shapes = (
{
attr = {
fillColor = (0,255);
lineCapEnd = 1;
lineCapStart = 1;
strokeWidth = 50;
};
closed = 0;
nodes = (
(75,600,l),
(75,501,l)
);
},
{
attr = {
fillColor = (0,255);
lineCapEnd = 1;
lineCapStart = 1;
strokeWidth = 50;
};
closed = 0;
nodes = (
(75,501,l),
(275,300,l)
);
},
{
attr = {
fillColor = (0,255);
lineCapEnd = 1;
lineCapStart = 1;
strokeWidth = 50;
};
closed = 0;
nodes = (
(275,300,l),
(475,501,l)
);
},
{
attr = {
fillColor = (0,255);
lineCapEnd = 1;
lineCapStart = 1;
strokeWidth = 50;
};
closed = 0;
nodes = (
(475,501,l),
(475,600,l)
);
},
{
attr = {
fillColor = (0,255);
lineCapEnd = 1;
lineCapStart = 1;
strokeWidth = 50;
};
closed = 0;
nodes = (
(275,300,l),
(275,0,l)
);
}
);
width = 550;
},
{
layerId = "9358492D-4FF9-4F7B-B997-4920F2B241F5";
shapes = (
{
attr = {
fillColor = (0,255);
lineCapEnd = 1;
lineCapStart = 1;
strokeWidth = 70;
};
closed = 0;
nodes = (
(105,600,l),
(105,501,l)
);
},
{
attr = {
fillColor = (0,255);
lineCapEnd = 1;
lineCapStart = 1;
strokeWidth = 70;
};
closed = 0;
nodes = (
(105,501,l),
(305,300,l)
);
},
{
attr = {
fillColor = (0,255);
lineCapEnd = 1;
lineCapStart = 1;
strokeWidth = 70;
};
closed = 0;
nodes = (
(305,300,l),
(505,501,l)
);
},
{
attr = {
fillColor = (0,255);
lineCapEnd = 1;
lineCapStart = 1;
strokeWidth = 70;
};
closed = 0;
nodes = (
(505,501,l),
(505,600,l)
);
},
{
attr = {
fillColor = (0,255);
lineCapEnd = 1;
lineCapStart = 1;
strokeWidth = 70;
};
closed = 0;
nodes = (
(305,300,l),
(305,0,l)
);
}
);
width = 610;
}
);
unicode = 89;
},
{
glyphname = Z;
lastChange = "2023-06-01 17:39:34 +0000";
layers = (
{
layerId = m01;
shapes = (
{
attr = {
fillColor = (0,255);
lineCapEnd = 1;
lineCapStart = 1;
};
closed = 0;
nodes = (
(0,600,l),
(400,600,l)
);
},
{
attr = {
fillColor = (0,255);
lineCapEnd = 1;
lineCapStart = 1;
};
closed = 0;
nodes = (
(400,600,l),
(400,501,l)
);
},
{
attr = {
fillColor = (0,255);
lineCapEnd = 1;
lineCapStart = 1;
};
closed = 0;
nodes = (
(400,501,l),
(0,100,l)
);
},
{
attr = {
fillColor = (0,255);
lineCapEnd = 1;
lineCapStart = 1;
};
closed = 0;
nodes = (
(0,100,l),
(0,0,l)
);
},
{
attr = {
fillColor = (0,255);
lineCapEnd = 1;
lineCapStart = 1;
};
closed = 0;
nodes = (
(0,0,l),
(400,0,l)
);
}
);
width = 400;
},
{
layerId = "BA8956FC-D56C-4217-8F3F-AABAC9C1291C";
shapes = (
{
attr = {
fillColor = (0,255);
lineCapEnd = 1;
lineCapStart = 1;
strokeWidth = 30;
};
closed = 0;
nodes = (
(45,600,l),
(445,600,l)
);
},
{
attr = {
fillColor = (0,255);
lineCapEnd = 1;
lineCapStart = 1;
strokeWidth = 30;
};
closed = 0;
nodes = (
(445,600,l),
(445,501,l)
);
},
{
attr = {
fillColor = (0,255);
lineCapEnd = 1;
lineCapStart = 1;
strokeWidth = 30;
};
closed = 0;
nodes = (
(445,501,l),
(45,100,l)
);
},
{
attr = {
fillColor = (0,255);
lineCapEnd = 1;
lineCapStart = 1;
strokeWidth = 30;
};
closed = 0;
nodes = (
(45,100,l),
(45,0,l)
);
},
{
attr = {
fillColor = (0,255);
lineCapEnd = 1;
lineCapStart = 1;
strokeWidth = 30;
};
closed = 0;
nodes = (
(45,0,l),
(445,0,l)
);
}
);
width = 490;
},
{
layerId = "95B08458-B918-474B-A742-A9E3D7F32A73";
shapes = (
{
attr = {
fillColor = (0,255);
lineCapEnd = 1;
lineCapStart = 1;
strokeWidth = 40;
};
closed = 0;
nodes = (
(60,600,l),
(460,600,l)
);
},
{
attr = {
fillColor = (0,255);
lineCapEnd = 1;
lineCapStart = 1;
strokeWidth = 40;
};
closed = 0;
nodes = (
(460,600,l),
(460,501,l)
);
},
{
attr = {
fillColor = (0,255);
lineCapEnd = 1;
lineCapStart = 1;
strokeWidth = 40;
};
closed = 0;
nodes = (
(460,501,l),
(60,100,l)
);
},
{
attr = {
fillColor = (0,255);
lineCapEnd = 1;
lineCapStart = 1;
strokeWidth = 40;
};
closed = 0;
nodes = (
(60,100,l),
(60,0,l)
);
},
{
attr = {
fillColor = (0,255);
lineCapEnd = 1;
lineCapStart = 1;
strokeWidth = 40;
};
closed = 0;
nodes = (
(60,0,l),
(460,0,l)
);
}
);
width = 520;
},
{
layerId = "100BDB2C-EC52-4B94-A255-ABC384BB93CE";
shapes = (
{
attr = {
fillColor = (0,255);
lineCapEnd = 1;
lineCapStart = 1;
strokeWidth = 50;
};
closed = 0;
nodes = (
(75,600,l),
(475,600,l)
);
},
{
attr = {
fillColor = (0,255);
lineCapEnd = 1;
lineCapStart = 1;
strokeWidth = 50;
};
closed = 0;
nodes = (
(475,600,l),
(475,501,l)
);
},
{
attr = {
fillColor = (0,255);
lineCapEnd = 1;
lineCapStart = 1;
strokeWidth = 50;
};
closed = 0;
nodes = (
(475,501,l),
(75,100,l)
);
},
{
attr = {
fillColor = (0,255);
lineCapEnd = 1;
lineCapStart = 1;
strokeWidth = 50;
};
closed = 0;
nodes = (
(75,100,l),
(75,0,l)
);
},
{
attr = {
fillColor = (0,255);
lineCapEnd = 1;
lineCapStart = 1;
strokeWidth = 50;
};
closed = 0;
nodes = (
(75,0,l),
(475,0,l)
);
}
);
width = 550;
},
{
layerId = "9358492D-4FF9-4F7B-B997-4920F2B241F5";
shapes = (
{
attr = {
fillColor = (0,255);
lineCapEnd = 1;
lineCapStart = 1;
strokeWidth = 70;
};
closed = 0;
nodes = (
(105,600,l),
(505,600,l)
);
},
{
attr = {
fillColor = (0,255);
lineCapEnd = 1;
lineCapStart = 1;
strokeWidth = 70;
};
closed = 0;
nodes = (
(505,600,l),
(505,501,l)
);
},
{
attr = {
fillColor = (0,255);
lineCapEnd = 1;
lineCapStart = 1;
strokeWidth = 70;
};
closed = 0;
nodes = (
(505,501,l),
(105,100,l)
);
},
{
attr = {
fillColor = (0,255);
lineCapEnd = 1;
lineCapStart = 1;
strokeWidth = 70;
};
closed = 0;
nodes = (
(105,100,l),
(105,0,l)
);
},
{
attr = {
fillColor = (0,255);
lineCapEnd = 1;
lineCapStart = 1;
strokeWidth = 70;
};
closed = 0;
nodes = (
(105,0,l),
(505,0,l)
);
}
);
width = 610;
}
);
unicode = 90;
},
{
glyphname = a;
lastChange = "2023-06-01 17:39:34 +0000";
layers = (
{
layerId = m01;
shapes = (
{
attr = {
fillColor = (0,255);
lineCapEnd = 1;
lineCapStart = 1;
};
closed = 0;
nodes = (
(100,400,l),
(300,400,l)
);
},
{
attr = {
fillColor = (0,255);
lineCapEnd = 1;
lineCapStart = 1;
};
closed = 0;
nodes = (
(300,400,l),
(400,300,l)
);
},
{
attr = {
fillColor = (0,255);
lineCapEnd = 1;
lineCapStart = 1;
};
closed = 0;
nodes = (
(400,300,l),
(400,0,l)
);
},
{
attr = {
fillColor = (0,255);
lineCapEnd = 1;
lineCapStart = 1;
};
closed = 0;
nodes = (
(400,0,l),
(100,0,l)
);
},
{
attr = {
fillColor = (0,255);
lineCapEnd = 1;
lineCapStart = 1;
};
closed = 0;
nodes = (
(100,0,l),
(0,100,l)
);
},
{
attr = {
fillColor = (0,255);
lineCapEnd = 1;
lineCapStart = 1;
};
closed = 0;
nodes = (
(0,100,l),
(100,200,l)
);
},
{
attr = {
fillColor = (0,255);
lineCapEnd = 1;
lineCapStart = 1;
};
closed = 0;
nodes = (
(100,200,l),
(400,200,l)
);
}
);
width = 400;
},
{
layerId = "BA8956FC-D56C-4217-8F3F-AABAC9C1291C";
shapes = (
{
attr = {
fillColor = (0,255);
lineCapEnd = 1;
lineCapStart = 1;
strokeWidth = 30;
};
closed = 0;
nodes = (
(145,400,l),
(345,400,l)
);
},
{
attr = {
fillColor = (0,255);
lineCapEnd = 1;
lineCapStart = 1;
strokeWidth = 30;
};
closed = 0;
nodes = (
(345,400,l),
(445,300,l)
);
},
{
attr = {
fillColor = (0,255);
lineCapEnd = 1;
lineCapStart = 1;
strokeWidth = 30;
};
closed = 0;
nodes = (
(445,300,l),
(445,0,l)
);
},
{
attr = {
fillColor = (0,255);
lineCapEnd = 1;
lineCapStart = 1;
strokeWidth = 30;
};
closed = 0;
nodes = (
(445,0,l),
(145,0,l)
);
},
{
attr = {
fillColor = (0,255);
lineCapEnd = 1;
lineCapStart = 1;
strokeWidth = 30;
};
closed = 0;
nodes = (
(145,0,l),
(45,100,l)
);
},
{
attr = {
fillColor = (0,255);
lineCapEnd = 1;
lineCapStart = 1;
strokeWidth = 30;
};
closed = 0;
nodes = (
(45,100,l),
(145,200,l)
);
},
{
attr = {
fillColor = (0,255);
lineCapEnd = 1;
lineCapStart = 1;
strokeWidth = 30;
};
closed = 0;
nodes = (
(145,200,l),
(445,200,l)
);
}
);
width = 490;
},
{
layerId = "95B08458-B918-474B-A742-A9E3D7F32A73";
shapes = (
{
attr = {
fillColor = (0,255);
lineCapEnd = 1;
lineCapStart = 1;
strokeWidth = 40;
};
closed = 0;
nodes = (
(160,400,l),
(360,400,l)
);
},
{
attr = {
fillColor = (0,255);
lineCapEnd = 1;
lineCapStart = 1;
strokeWidth = 40;
};
closed = 0;
nodes = (
(360,400,l),
(460,300,l)
);
},
{
attr = {
fillColor = (0,255);
lineCapEnd = 1;
lineCapStart = 1;
strokeWidth = 40;
};
closed = 0;
nodes = (
(460,300,l),
(460,0,l)
);
},
{
attr = {
fillColor = (0,255);
lineCapEnd = 1;
lineCapStart = 1;
strokeWidth = 40;
};
closed = 0;
nodes = (
(460,0,l),
(160,0,l)
);
},
{
attr = {
fillColor = (0,255);
lineCapEnd = 1;
lineCapStart = 1;
strokeWidth = 40;
};
closed = 0;
nodes = (
(160,0,l),
(60,100,l)
);
},
{
attr = {
fillColor = (0,255);
lineCapEnd = 1;
lineCapStart = 1;
strokeWidth = 40;
};
closed = 0;
nodes = (
(60,100,l),
(160,200,l)
);
},
{
attr = {
fillColor = (0,255);
lineCapEnd = 1;
lineCapStart = 1;
strokeWidth = 40;
};
closed = 0;
nodes = (
(160,200,l),
(460,200,l)
);
}
);
width = 520;
},
{
layerId = "100BDB2C-EC52-4B94-A255-ABC384BB93CE";
shapes = (
{
attr = {
fillColor = (0,255);
lineCapEnd = 1;
lineCapStart = 1;
strokeWidth = 50;
};
closed = 0;
nodes = (
(175,400,l),
(375,400,l)
);
},
{
attr = {
fillColor = (0,255);
lineCapEnd = 1;
lineCapStart = 1;
strokeWidth = 50;
};
closed = 0;
nodes = (
(375,400,l),
(475,300,l)
);
},
{
attr = {
fillColor = (0,255);
lineCapEnd = 1;
lineCapStart = 1;
strokeWidth = 50;
};
closed = 0;
nodes = (
(475,300,l),
(475,0,l)
);
},
{
attr = {
fillColor = (0,255);
lineCapEnd = 1;
lineCapStart = 1;
strokeWidth = 50;
};
closed = 0;
nodes = (
(475,0,l),
(175,0,l)
);
},
{
attr = {
fillColor = (0,255);
lineCapEnd = 1;
lineCapStart = 1;
strokeWidth = 50;
};
closed = 0;
nodes = (
(175,0,l),
(75,100,l)
);
},
{
attr = {
fillColor = (0,255);
lineCapEnd = 1;
lineCapStart = 1;
strokeWidth = 50;
};
closed = 0;
nodes = (
(75,100,l),
(175,200,l)
);
},
{
attr = {
fillColor = (0,255);
lineCapEnd = 1;
lineCapStart = 1;
strokeWidth = 50;
};
closed = 0;
nodes = (
(175,200,l),
(475,200,l)
);
}
);
width = 550;
},
{
layerId = "9358492D-4FF9-4F7B-B997-4920F2B241F5";
shapes = (
{
attr = {
fillColor = (0,255);
lineCapEnd = 1;
lineCapStart = 1;
strokeWidth = 70;
};
closed = 0;
nodes = (
(205,400,l),
(405,400,l)
);
},
{
attr = {
fillColor = (0,255);
lineCapEnd = 1;
lineCapStart = 1;
strokeWidth = 70;
};
closed = 0;
nodes = (
(405,400,l),
(505,300,l)
);
},
{
attr = {
fillColor = (0,255);
lineCapEnd = 1;
lineCapStart = 1;
strokeWidth = 70;
};
closed = 0;
nodes = (
(505,300,l),
(505,0,l)
);
},
{
attr = {
fillColor = (0,255);
lineCapEnd = 1;
lineCapStart = 1;
strokeWidth = 70;
};
closed = 0;
nodes = (
(505,0,l),
(205,0,l)
);
},
{
attr = {
fillColor = (0,255);
lineCapEnd = 1;
lineCapStart = 1;
strokeWidth = 70;
};
closed = 0;
nodes = (
(205,0,l),
(105,100,l)
);
},
{
attr = {
fillColor = (0,255);
lineCapEnd = 1;
lineCapStart = 1;
strokeWidth = 70;
};
closed = 0;
nodes = (
(105,100,l),
(205,200,l)
);
},
{
attr = {
fillColor = (0,255);
lineCapEnd = 1;
lineCapStart = 1;
strokeWidth = 70;
};
closed = 0;
nodes = (
(205,200,l),
(505,200,l)
);
}
);
width = 610;
}
);
unicode = 97;
},
{
glyphname = b;
lastChange = "2023-06-01 17:39:34 +0000";
layers = (
{
layerId = m01;
shapes = (
{
attr = {
fillColor = (0,255);
lineCapEnd = 1;
lineCapStart = 1;
};
closed = 0;
nodes = (
(0,600,l),
(0,0,l)
);
},
{
attr = {
fillColor = (0,255);
lineCapEnd = 1;
lineCapStart = 1;
};
closed = 0;
nodes = (
(0,0,l),
(300,0,l)
);
},
{
attr = {
fillColor = (0,255);
lineCapEnd = 1;
lineCapStart = 1;
};
closed = 0;
nodes = (
(300,0,l),
(400,100,l)
);
},
{
attr = {
fillColor = (0,255);
lineCapEnd = 1;
lineCapStart = 1;
};
closed = 0;
nodes = (
(400,100,l),
(400,200,l)
);
},
{
attr = {
fillColor = (0,255);
lineCapEnd = 1;
lineCapStart = 1;
};
closed = 0;
nodes = (
(400,200,l),
(400,300,l)
);
},
{
attr = {
fillColor = (0,255);
lineCapEnd = 1;
lineCapStart = 1;
};
closed = 0;
nodes = (
(400,300,l),
(300,400,l)
);
},
{
attr = {
fillColor = (0,255);
lineCapEnd = 1;
lineCapStart = 1;
};
closed = 0;
nodes = (
(300,400,l),
(0,400,l)
);
}
);
width = 400;
},
{
layerId = "BA8956FC-D56C-4217-8F3F-AABAC9C1291C";
shapes = (
{
attr = {
fillColor = (0,255);
lineCapEnd = 1;
lineCapStart = 1;
strokeWidth = 30;
};
closed = 0;
nodes = (
(45,600,l),
(45,0,l)
);
},
{
attr = {
fillColor = (0,255);
lineCapEnd = 1;
lineCapStart = 1;
strokeWidth = 30;
};
closed = 0;
nodes = (
(45,0,l),
(345,0,l)
);
},
{
attr = {
fillColor = (0,255);
lineCapEnd = 1;
lineCapStart = 1;
strokeWidth = 30;
};
closed = 0;
nodes = (
(345,0,l),
(445,100,l)
);
},
{
attr = {
fillColor = (0,255);
lineCapEnd = 1;
lineCapStart = 1;
strokeWidth = 30;
};
closed = 0;
nodes = (
(445,100,l),
(445,200,l)
);
},
{
attr = {
fillColor = (0,255);
lineCapEnd = 1;
lineCapStart = 1;
strokeWidth = 30;
};
closed = 0;
nodes = (
(445,200,l),
(445,300,l)
);
},
{
attr = {
fillColor = (0,255);
lineCapEnd = 1;
lineCapStart = 1;
strokeWidth = 30;
};
closed = 0;
nodes = (
(445,300,l),
(345,400,l)
);
},
{
attr = {
fillColor = (0,255);
lineCapEnd = 1;
lineCapStart = 1;
strokeWidth = 30;
};
closed = 0;
nodes = (
(345,400,l),
(45,400,l)
);
}
);
width = 490;
},
{
layerId = "95B08458-B918-474B-A742-A9E3D7F32A73";
shapes = (
{
attr = {
fillColor = (0,255);
lineCapEnd = 1;
lineCapStart = 1;
strokeWidth = 40;
};
closed = 0;
nodes = (
(60,600,l),
(60,0,l)
);
},
{
attr = {
fillColor = (0,255);
lineCapEnd = 1;
lineCapStart = 1;
strokeWidth = 40;
};
closed = 0;
nodes = (
(60,0,l),
(360,0,l)
);
},
{
attr = {
fillColor = (0,255);
lineCapEnd = 1;
lineCapStart = 1;
strokeWidth = 40;
};
closed = 0;
nodes = (
(360,0,l),
(460,100,l)
);
},
{
attr = {
fillColor = (0,255);
lineCapEnd = 1;
lineCapStart = 1;
strokeWidth = 40;
};
closed = 0;
nodes = (
(460,100,l),
(460,200,l)
);
},
{
attr = {
fillColor = (0,255);
lineCapEnd = 1;
lineCapStart = 1;
strokeWidth = 40;
};
closed = 0;
nodes = (
(460,200,l),
(460,300,l)
);
},
{
attr = {
fillColor = (0,255);
lineCapEnd = 1;
lineCapStart = 1;
strokeWidth = 40;
};
closed = 0;
nodes = (
(460,300,l),
(360,400,l)
);
},
{
attr = {
fillColor = (0,255);
lineCapEnd = 1;
lineCapStart = 1;
strokeWidth = 40;
};
closed = 0;
nodes = (
(360,400,l),
(60,400,l)
);
}
);
width = 520;
},
{
layerId = "100BDB2C-EC52-4B94-A255-ABC384BB93CE";
shapes = (
{
attr = {
fillColor = (0,255);
lineCapEnd = 1;
lineCapStart = 1;
strokeWidth = 50;
};
closed = 0;
nodes = (
(75,600,l),
(75,0,l)
);
},
{
attr = {
fillColor = (0,255);
lineCapEnd = 1;
lineCapStart = 1;
strokeWidth = 50;
};
closed = 0;
nodes = (
(75,0,l),
(375,0,l)
);
},
{
attr = {
fillColor = (0,255);
lineCapEnd = 1;
lineCapStart = 1;
strokeWidth = 50;
};
closed = 0;
nodes = (
(375,0,l),
(475,100,l)
);
},
{
attr = {
fillColor = (0,255);
lineCapEnd = 1;
lineCapStart = 1;
strokeWidth = 50;
};
closed = 0;
nodes = (
(475,100,l),
(475,200,l)
);
},
{
attr = {
fillColor = (0,255);
lineCapEnd = 1;
lineCapStart = 1;
strokeWidth = 50;
};
closed = 0;
nodes = (
(475,200,l),
(475,300,l)
);
},
{
attr = {
fillColor = (0,255);
lineCapEnd = 1;
lineCapStart = 1;
strokeWidth = 50;
};
closed = 0;
nodes = (
(475,300,l),
(375,400,l)
);
},
{
attr = {
fillColor = (0,255);
lineCapEnd = 1;
lineCapStart = 1;
strokeWidth = 50;
};
closed = 0;
nodes = (
(375,400,l),
(75,400,l)
);
}
);
width = 550;
},
{
layerId = "9358492D-4FF9-4F7B-B997-4920F2B241F5";
shapes = (
{
attr = {
fillColor = (0,255);
lineCapEnd = 1;
lineCapStart = 1;
strokeWidth = 70;
};
closed = 0;
nodes = (
(105,600,l),
(105,0,l)
);
},
{
attr = {
fillColor = (0,255);
lineCapEnd = 1;
lineCapStart = 1;
strokeWidth = 70;
};
closed = 0;
nodes = (
(105,0,l),
(405,0,l)
);
},
{
attr = {
fillColor = (0,255);
lineCapEnd = 1;
lineCapStart = 1;
strokeWidth = 70;
};
closed = 0;
nodes = (
(405,0,l),
(505,100,l)
);
},
{
attr = {
fillColor = (0,255);
lineCapEnd = 1;
lineCapStart = 1;
strokeWidth = 70;
};
closed = 0;
nodes = (
(505,100,l),
(505,200,l)
);
},
{
attr = {
fillColor = (0,255);
lineCapEnd = 1;
lineCapStart = 1;
strokeWidth = 70;
};
closed = 0;
nodes = (
(505,200,l),
(505,300,l)
);
},
{
attr = {
fillColor = (0,255);
lineCapEnd = 1;
lineCapStart = 1;
strokeWidth = 70;
};
closed = 0;
nodes = (
(505,300,l),
(405,400,l)
);
},
{
attr = {
fillColor = (0,255);
lineCapEnd = 1;
lineCapStart = 1;
strokeWidth = 70;
};
closed = 0;
nodes = (
(405,400,l),
(105,400,l)
);
}
);
width = 610;
}
);
unicode = 98;
},
{
glyphname = c;
lastChange = "2023-06-01 17:39:34 +0000";
layers = (
{
layerId = m01;
shapes = (
{
attr = {
fillColor = (0,255);
lineCapEnd = 1;
lineCapStart = 1;
};
closed = 0;
nodes = (
(400,400,l),
(100,400,l)
);
},
{
attr = {
fillColor = (0,255);
lineCapEnd = 1;
lineCapStart = 1;
};
closed = 0;
nodes = (
(100,400,l),
(0,300,l)
);
},
{
attr = {
fillColor = (0,255);
lineCapEnd = 1;
lineCapStart = 1;
};
closed = 0;
nodes = (
(0,300,l),
(0,100,l)
);
},
{
attr = {
fillColor = (0,255);
lineCapEnd = 1;
lineCapStart = 1;
};
closed = 0;
nodes = (
(0,100,l),
(100,0,l)
);
},
{
attr = {
fillColor = (0,255);
lineCapEnd = 1;
lineCapStart = 1;
};
closed = 0;
nodes = (
(100,0,l),
(400,0,l)
);
}
);
width = 400;
},
{
layerId = "BA8956FC-D56C-4217-8F3F-AABAC9C1291C";
shapes = (
{
attr = {
fillColor = (0,255);
lineCapEnd = 1;
lineCapStart = 1;
strokeWidth = 30;
};
closed = 0;
nodes = (
(445,400,l),
(145,400,l)
);
},
{
attr = {
fillColor = (0,255);
lineCapEnd = 1;
lineCapStart = 1;
strokeWidth = 30;
};
closed = 0;
nodes = (
(145,400,l),
(45,300,l)
);
},
{
attr = {
fillColor = (0,255);
lineCapEnd = 1;
lineCapStart = 1;
strokeWidth = 30;
};
closed = 0;
nodes = (
(45,300,l),
(45,100,l)
);
},
{
attr = {
fillColor = (0,255);
lineCapEnd = 1;
lineCapStart = 1;
strokeWidth = 30;
};
closed = 0;
nodes = (
(45,100,l),
(145,0,l)
);
},
{
attr = {
fillColor = (0,255);
lineCapEnd = 1;
lineCapStart = 1;
strokeWidth = 30;
};
closed = 0;
nodes = (
(145,0,l),
(445,0,l)
);
}
);
width = 490;
},
{
layerId = "95B08458-B918-474B-A742-A9E3D7F32A73";
shapes = (
{
attr = {
fillColor = (0,255);
lineCapEnd = 1;
lineCapStart = 1;
strokeWidth = 40;
};
closed = 0;
nodes = (
(460,400,l),
(160,400,l)
);
},
{
attr = {
fillColor = (0,255);
lineCapEnd = 1;
lineCapStart = 1;
strokeWidth = 40;
};
closed = 0;
nodes = (
(160,400,l),
(60,300,l)
);
},
{
attr = {
fillColor = (0,255);
lineCapEnd = 1;
lineCapStart = 1;
strokeWidth = 40;
};
closed = 0;
nodes = (
(60,300,l),
(60,100,l)
);
},
{
attr = {
fillColor = (0,255);
lineCapEnd = 1;
lineCapStart = 1;
strokeWidth = 40;
};
closed = 0;
nodes = (
(60,100,l),
(160,0,l)
);
},
{
attr = {
fillColor = (0,255);
lineCapEnd = 1;
lineCapStart = 1;
strokeWidth = 40;
};
closed = 0;
nodes = (
(160,0,l),
(460,0,l)
);
}
);
width = 520;
},
{
layerId = "100BDB2C-EC52-4B94-A255-ABC384BB93CE";
shapes = (
{
attr = {
fillColor = (0,255);
lineCapEnd = 1;
lineCapStart = 1;
strokeWidth = 50;
};
closed = 0;
nodes = (
(475,400,l),
(175,400,l)
);
},
{
attr = {
fillColor = (0,255);
lineCapEnd = 1;
lineCapStart = 1;
strokeWidth = 50;
};
closed = 0;
nodes = (
(175,400,l),
(75,300,l)
);
},
{
attr = {
fillColor = (0,255);
lineCapEnd = 1;
lineCapStart = 1;
strokeWidth = 50;
};
closed = 0;
nodes = (
(75,300,l),
(75,100,l)
);
},
{
attr = {
fillColor = (0,255);
lineCapEnd = 1;
lineCapStart = 1;
strokeWidth = 50;
};
closed = 0;
nodes = (
(75,100,l),
(175,0,l)
);
},
{
attr = {
fillColor = (0,255);
lineCapEnd = 1;
lineCapStart = 1;
strokeWidth = 50;
};
closed = 0;
nodes = (
(175,0,l),
(475,0,l)
);
}
);
width = 550;
},
{
layerId = "9358492D-4FF9-4F7B-B997-4920F2B241F5";
shapes = (
{
attr = {
fillColor = (0,255);
lineCapEnd = 1;
lineCapStart = 1;
strokeWidth = 70;
};
closed = 0;
nodes = (
(505,400,l),
(205,400,l)
);
},
{
attr = {
fillColor = (0,255);
lineCapEnd = 1;
lineCapStart = 1;
strokeWidth = 70;
};
closed = 0;
nodes = (
(205,400,l),
(105,300,l)
);
},
{
attr = {
fillColor = (0,255);
lineCapEnd = 1;
lineCapStart = 1;
strokeWidth = 70;
};
closed = 0;
nodes = (
(105,300,l),
(105,100,l)
);
},
{
attr = {
fillColor = (0,255);
lineCapEnd = 1;
lineCapStart = 1;
strokeWidth = 70;
};
closed = 0;
nodes = (
(105,100,l),
(205,0,l)
);
},
{
attr = {
fillColor = (0,255);
lineCapEnd = 1;
lineCapStart = 1;
strokeWidth = 70;
};
closed = 0;
nodes = (
(205,0,l),
(505,0,l)
);
}
);
width = 610;
}
);
unicode = 99;
},
{
glyphname = d;
lastChange = "2023-06-01 17:39:34 +0000";
layers = (
{
layerId = m01;
shapes = (
{
attr = {
fillColor = (0,255);
lineCapEnd = 1;
lineCapStart = 1;
};
closed = 0;
nodes = (
(400,600,l),
(400,0,l)
);
},
{
attr = {
fillColor = (0,255);
lineCapEnd = 1;
lineCapStart = 1;
};
closed = 0;
nodes = (
(400,0,l),
(100,0,l)
);
},
{
attr = {
fillColor = (0,255);
lineCapEnd = 1;
lineCapStart = 1;
};
closed = 0;
nodes = (
(100,0,l),
(0,100,l)
);
},
{
attr = {
fillColor = (0,255);
lineCapEnd = 1;
lineCapStart = 1;
};
closed = 0;
nodes = (
(0,100,l),
(0,300,l)
);
},
{
attr = {
fillColor = (0,255);
lineCapEnd = 1;
lineCapStart = 1;
};
closed = 0;
nodes = (
(0,300,l),
(100,400,l)
);
},
{
attr = {
fillColor = (0,255);
lineCapEnd = 1;
lineCapStart = 1;
};
closed = 0;
nodes = (
(100,400,l),
(400,400,l)
);
}
);
width = 400;
},
{
layerId = "BA8956FC-D56C-4217-8F3F-AABAC9C1291C";
shapes = (
{
attr = {
fillColor = (0,255);
lineCapEnd = 1;
lineCapStart = 1;
strokeWidth = 30;
};
closed = 0;
nodes = (
(445,600,l),
(445,0,l)
);
},
{
attr = {
fillColor = (0,255);
lineCapEnd = 1;
lineCapStart = 1;
strokeWidth = 30;
};
closed = 0;
nodes = (
(445,0,l),
(145,0,l)
);
},
{
attr = {
fillColor = (0,255);
lineCapEnd = 1;
lineCapStart = 1;
strokeWidth = 30;
};
closed = 0;
nodes = (
(145,0,l),
(45,100,l)
);
},
{
attr = {
fillColor = (0,255);
lineCapEnd = 1;
lineCapStart = 1;
strokeWidth = 30;
};
closed = 0;
nodes = (
(45,100,l),
(45,300,l)
);
},
{
attr = {
fillColor = (0,255);
lineCapEnd = 1;
lineCapStart = 1;
strokeWidth = 30;
};
closed = 0;
nodes = (
(45,300,l),
(145,400,l)
);
},
{
attr = {
fillColor = (0,255);
lineCapEnd = 1;
lineCapStart = 1;
strokeWidth = 30;
};
closed = 0;
nodes = (
(145,400,l),
(445,400,l)
);
}
);
width = 490;
},
{
layerId = "95B08458-B918-474B-A742-A9E3D7F32A73";
shapes = (
{
attr = {
fillColor = (0,255);
lineCapEnd = 1;
lineCapStart = 1;
strokeWidth = 40;
};
closed = 0;
nodes = (
(460,600,l),
(460,0,l)
);
},
{
attr = {
fillColor = (0,255);
lineCapEnd = 1;
lineCapStart = 1;
strokeWidth = 40;
};
closed = 0;
nodes = (
(460,0,l),
(160,0,l)
);
},
{
attr = {
fillColor = (0,255);
lineCapEnd = 1;
lineCapStart = 1;
strokeWidth = 40;
};
closed = 0;
nodes = (
(160,0,l),
(60,100,l)
);
},
{
attr = {
fillColor = (0,255);
lineCapEnd = 1;
lineCapStart = 1;
strokeWidth = 40;
};
closed = 0;
nodes = (
(60,100,l),
(60,300,l)
);
},
{
attr = {
fillColor = (0,255);
lineCapEnd = 1;
lineCapStart = 1;
strokeWidth = 40;
};
closed = 0;
nodes = (
(60,300,l),
(160,400,l)
);
},
{
attr = {
fillColor = (0,255);
lineCapEnd = 1;
lineCapStart = 1;
strokeWidth = 40;
};
closed = 0;
nodes = (
(160,400,l),
(460,400,l)
);
}
);
width = 520;
},
{
layerId = "100BDB2C-EC52-4B94-A255-ABC384BB93CE";
shapes = (
{
attr = {
fillColor = (0,255);
lineCapEnd = 1;
lineCapStart = 1;
strokeWidth = 50;
};
closed = 0;
nodes = (
(475,600,l),
(475,0,l)
);
},
{
attr = {
fillColor = (0,255);
lineCapEnd = 1;
lineCapStart = 1;
strokeWidth = 50;
};
closed = 0;
nodes = (
(475,0,l),
(175,0,l)
);
},
{
attr = {
fillColor = (0,255);
lineCapEnd = 1;
lineCapStart = 1;
strokeWidth = 50;
};
closed = 0;
nodes = (
(175,0,l),
(75,100,l)
);
},
{
attr = {
fillColor = (0,255);
lineCapEnd = 1;
lineCapStart = 1;
strokeWidth = 50;
};
closed = 0;
nodes = (
(75,100,l),
(75,300,l)
);
},
{
attr = {
fillColor = (0,255);
lineCapEnd = 1;
lineCapStart = 1;
strokeWidth = 50;
};
closed = 0;
nodes = (
(75,300,l),
(175,400,l)
);
},
{
attr = {
fillColor = (0,255);
lineCapEnd = 1;
lineCapStart = 1;
strokeWidth = 50;
};
closed = 0;
nodes = (
(175,400,l),
(475,400,l)
);
}
);
width = 550;
},
{
layerId = "9358492D-4FF9-4F7B-B997-4920F2B241F5";
shapes = (
{
attr = {
fillColor = (0,255);
lineCapEnd = 1;
lineCapStart = 1;
strokeWidth = 70;
};
closed = 0;
nodes = (
(505,600,l),
(505,0,l)
);
},
{
attr = {
fillColor = (0,255);
lineCapEnd = 1;
lineCapStart = 1;
strokeWidth = 70;
};
closed = 0;
nodes = (
(505,0,l),
(205,0,l)
);
},
{
attr = {
fillColor = (0,255);
lineCapEnd = 1;
lineCapStart = 1;
strokeWidth = 70;
};
closed = 0;
nodes = (
(205,0,l),
(105,100,l)
);
},
{
attr = {
fillColor = (0,255);
lineCapEnd = 1;
lineCapStart = 1;
strokeWidth = 70;
};
closed = 0;
nodes = (
(105,100,l),
(105,300,l)
);
},
{
attr = {
fillColor = (0,255);
lineCapEnd = 1;
lineCapStart = 1;
strokeWidth = 70;
};
closed = 0;
nodes = (
(105,300,l),
(205,400,l)
);
},
{
attr = {
fillColor = (0,255);
lineCapEnd = 1;
lineCapStart = 1;
strokeWidth = 70;
};
closed = 0;
nodes = (
(205,400,l),
(505,400,l)
);
}
);
width = 610;
}
);
unicode = 100;
},
{
glyphname = e;
lastChange = "2023-06-01 17:39:34 +0000";
layers = (
{
layerId = m01;
shapes = (
{
attr = {
fillColor = (0,255);
lineCapEnd = 1;
lineCapStart = 1;
};
closed = 0;
nodes = (
(298,0,l),
(100,0,l)
);
},
{
attr = {
fillColor = (0,255);
lineCapEnd = 1;
lineCapStart = 1;
};
closed = 0;
nodes = (
(100,0,l),
(0,100,l)
);
},
{
attr = {
fillColor = (0,255);
lineCapEnd = 1;
lineCapStart = 1;
};
closed = 0;
nodes = (
(0,100,l),
(0,301,l)
);
},
{
attr = {
fillColor = (0,255);
lineCapEnd = 1;
lineCapStart = 1;
};
closed = 0;
nodes = (
(0,301,l),
(100,400,l)
);
},
{
attr = {
fillColor = (0,255);
lineCapEnd = 1;
lineCapStart = 1;
};
closed = 0;
nodes = (
(100,400,l),
(298,400,l)
);
},
{
attr = {
fillColor = (0,255);
lineCapEnd = 1;
lineCapStart = 1;
};
closed = 0;
nodes = (
(298,400,l),
(400,301,l)
);
},
{
attr = {
fillColor = (0,255);
lineCapEnd = 1;
lineCapStart = 1;
};
closed = 0;
nodes = (
(400,301,l),
(400,200,l)
);
},
{
attr = {
fillColor = (0,255);
lineCapEnd = 1;
lineCapStart = 1;
};
closed = 0;
nodes = (
(400,200,l),
(0,200,l)
);
}
);
width = 400;
},
{
layerId = "BA8956FC-D56C-4217-8F3F-AABAC9C1291C";
shapes = (
{
attr = {
fillColor = (0,255);
lineCapEnd = 1;
lineCapStart = 1;
strokeWidth = 30;
};
closed = 0;
nodes = (
(343,0,l),
(145,0,l)
);
},
{
attr = {
fillColor = (0,255);
lineCapEnd = 1;
lineCapStart = 1;
strokeWidth = 30;
};
closed = 0;
nodes = (
(145,0,l),
(45,100,l)
);
},
{
attr = {
fillColor = (0,255);
lineCapEnd = 1;
lineCapStart = 1;
strokeWidth = 30;
};
closed = 0;
nodes = (
(45,100,l),
(45,301,l)
);
},
{
attr = {
fillColor = (0,255);
lineCapEnd = 1;
lineCapStart = 1;
strokeWidth = 30;
};
closed = 0;
nodes = (
(45,301,l),
(145,400,l)
);
},
{
attr = {
fillColor = (0,255);
lineCapEnd = 1;
lineCapStart = 1;
strokeWidth = 30;
};
closed = 0;
nodes = (
(145,400,l),
(343,400,l)
);
},
{
attr = {
fillColor = (0,255);
lineCapEnd = 1;
lineCapStart = 1;
strokeWidth = 30;
};
closed = 0;
nodes = (
(343,400,l),
(445,301,l)
);
},
{
attr = {
fillColor = (0,255);
lineCapEnd = 1;
lineCapStart = 1;
strokeWidth = 30;
};
closed = 0;
nodes = (
(445,301,l),
(445,200,l)
);
},
{
attr = {
fillColor = (0,255);
lineCapEnd = 1;
lineCapStart = 1;
strokeWidth = 30;
};
closed = 0;
nodes = (
(445,200,l),
(45,200,l)
);
}
);
width = 490;
},
{
layerId = "95B08458-B918-474B-A742-A9E3D7F32A73";
shapes = (
{
attr = {
fillColor = (0,255);
lineCapEnd = 1;
lineCapStart = 1;
strokeWidth = 40;
};
closed = 0;
nodes = (
(358,0,l),
(160,0,l)
);
},
{
attr = {
fillColor = (0,255);
lineCapEnd = 1;
lineCapStart = 1;
strokeWidth = 40;
};
closed = 0;
nodes = (
(160,0,l),
(60,100,l)
);
},
{
attr = {
fillColor = (0,255);
lineCapEnd = 1;
lineCapStart = 1;
strokeWidth = 40;
};
closed = 0;
nodes = (
(60,100,l),
(60,301,l)
);
},
{
attr = {
fillColor = (0,255);
lineCapEnd = 1;
lineCapStart = 1;
strokeWidth = 40;
};
closed = 0;
nodes = (
(60,301,l),
(160,400,l)
);
},
{
attr = {
fillColor = (0,255);
lineCapEnd = 1;
lineCapStart = 1;
strokeWidth = 40;
};
closed = 0;
nodes = (
(160,400,l),
(358,400,l)
);
},
{
attr = {
fillColor = (0,255);
lineCapEnd = 1;
lineCapStart = 1;
strokeWidth = 40;
};
closed = 0;
nodes = (
(358,400,l),
(460,301,l)
);
},
{
attr = {
fillColor = (0,255);
lineCapEnd = 1;
lineCapStart = 1;
strokeWidth = 40;
};
closed = 0;
nodes = (
(460,301,l),
(460,200,l)
);
},
{
attr = {
fillColor = (0,255);
lineCapEnd = 1;
lineCapStart = 1;
strokeWidth = 40;
};
closed = 0;
nodes = (
(460,200,l),
(60,200,l)
);
}
);
width = 520;
},
{
layerId = "100BDB2C-EC52-4B94-A255-ABC384BB93CE";
shapes = (
{
attr = {
fillColor = (0,255);
lineCapEnd = 1;
lineCapStart = 1;
strokeWidth = 50;
};
closed = 0;
nodes = (
(373,0,l),
(175,0,l)
);
},
{
attr = {
fillColor = (0,255);
lineCapEnd = 1;
lineCapStart = 1;
strokeWidth = 50;
};
closed = 0;
nodes = (
(175,0,l),
(75,100,l)
);
},
{
attr = {
fillColor = (0,255);
lineCapEnd = 1;
lineCapStart = 1;
strokeWidth = 50;
};
closed = 0;
nodes = (
(75,100,l),
(75,301,l)
);
},
{
attr = {
fillColor = (0,255);
lineCapEnd = 1;
lineCapStart = 1;
strokeWidth = 50;
};
closed = 0;
nodes = (
(75,301,l),
(175,400,l)
);
},
{
attr = {
fillColor = (0,255);
lineCapEnd = 1;
lineCapStart = 1;
strokeWidth = 50;
};
closed = 0;
nodes = (
(175,400,l),
(373,400,l)
);
},
{
attr = {
fillColor = (0,255);
lineCapEnd = 1;
lineCapStart = 1;
strokeWidth = 50;
};
closed = 0;
nodes = (
(373,400,l),
(475,301,l)
);
},
{
attr = {
fillColor = (0,255);
lineCapEnd = 1;
lineCapStart = 1;
strokeWidth = 50;
};
closed = 0;
nodes = (
(475,301,l),
(475,200,l)
);
},
{
attr = {
fillColor = (0,255);
lineCapEnd = 1;
lineCapStart = 1;
strokeWidth = 50;
};
closed = 0;
nodes = (
(475,200,l),
(75,200,l)
);
}
);
width = 550;
},
{
layerId = "9358492D-4FF9-4F7B-B997-4920F2B241F5";
shapes = (
{
attr = {
fillColor = (0,255);
lineCapEnd = 1;
lineCapStart = 1;
strokeWidth = 70;
};
closed = 0;
nodes = (
(403,0,l),
(205,0,l)
);
},
{
attr = {
fillColor = (0,255);
lineCapEnd = 1;
lineCapStart = 1;
strokeWidth = 70;
};
closed = 0;
nodes = (
(205,0,l),
(105,100,l)
);
},
{
attr = {
fillColor = (0,255);
lineCapEnd = 1;
lineCapStart = 1;
strokeWidth = 70;
};
closed = 0;
nodes = (
(105,100,l),
(105,301,l)
);
},
{
attr = {
fillColor = (0,255);
lineCapEnd = 1;
lineCapStart = 1;
strokeWidth = 70;
};
closed = 0;
nodes = (
(105,301,l),
(205,400,l)
);
},
{
attr = {
fillColor = (0,255);
lineCapEnd = 1;
lineCapStart = 1;
strokeWidth = 70;
};
closed = 0;
nodes = (
(205,400,l),
(403,400,l)
);
},
{
attr = {
fillColor = (0,255);
lineCapEnd = 1;
lineCapStart = 1;
strokeWidth = 70;
};
closed = 0;
nodes = (
(403,400,l),
(505,301,l)
);
},
{
attr = {
fillColor = (0,255);
lineCapEnd = 1;
lineCapStart = 1;
strokeWidth = 70;
};
closed = 0;
nodes = (
(505,301,l),
(505,200,l)
);
},
{
attr = {
fillColor = (0,255);
lineCapEnd = 1;
lineCapStart = 1;
strokeWidth = 70;
};
closed = 0;
nodes = (
(505,200,l),
(105,200,l)
);
}
);
width = 610;
}
);
unicode = 101;
},
{
glyphname = f;
lastChange = "2023-06-01 17:39:34 +0000";
layers = (
{
layerId = m01;
shapes = (
{
attr = {
fillColor = (0,255);
lineCapEnd = 1;
lineCapStart = 1;
};
closed = 0;
nodes = (
(100,0,l),
(100,500,l)
);
},
{
attr = {
fillColor = (0,255);
lineCapEnd = 1;
lineCapStart = 1;
};
closed = 0;
nodes = (
(100,500,l),
(100,300,l)
);
},
{
attr = {
fillColor = (0,255);
lineCapEnd = 1;
lineCapStart = 1;
};
closed = 0;
nodes = (
(100,300,l),
(0,300,l)
);
},
{
attr = {
fillColor = (0,255);
lineCapEnd = 1;
lineCapStart = 1;
};
closed = 0;
nodes = (
(0,300,l),
(200,300,l)
);
},
{
attr = {
fillColor = (0,255);
lineCapEnd = 1;
lineCapStart = 1;
};
closed = 0;
nodes = (
(200,300,l),
(100,300,l)
);
},
{
attr = {
fillColor = (0,255);
lineCapEnd = 1;
lineCapStart = 1;
};
closed = 0;
nodes = (
(100,300,l),
(100,500,l)
);
},
{
attr = {
fillColor = (0,255);
lineCapEnd = 1;
lineCapStart = 1;
};
closed = 0;
nodes = (
(100,500,l),
(200,600,l)
);
}
);
width = 200;
},
{
layerId = "BA8956FC-D56C-4217-8F3F-AABAC9C1291C";
shapes = (
{
attr = {
fillColor = (0,255);
lineCapEnd = 1;
lineCapStart = 1;
strokeWidth = 30;
};
closed = 0;
nodes = (
(145,0,l),
(145,500,l)
);
},
{
attr = {
fillColor = (0,255);
lineCapEnd = 1;
lineCapStart = 1;
strokeWidth = 30;
};
closed = 0;
nodes = (
(145,500,l),
(145,300,l)
);
},
{
attr = {
fillColor = (0,255);
lineCapEnd = 1;
lineCapStart = 1;
strokeWidth = 30;
};
closed = 0;
nodes = (
(145,300,l),
(45,300,l)
);
},
{
attr = {
fillColor = (0,255);
lineCapEnd = 1;
lineCapStart = 1;
strokeWidth = 30;
};
closed = 0;
nodes = (
(45,300,l),
(245,300,l)
);
},
{
attr = {
fillColor = (0,255);
lineCapEnd = 1;
lineCapStart = 1;
strokeWidth = 30;
};
closed = 0;
nodes = (
(245,300,l),
(145,300,l)
);
},
{
attr = {
fillColor = (0,255);
lineCapEnd = 1;
lineCapStart = 1;
strokeWidth = 30;
};
closed = 0;
nodes = (
(145,300,l),
(145,500,l)
);
},
{
attr = {
fillColor = (0,255);
lineCapEnd = 1;
lineCapStart = 1;
strokeWidth = 30;
};
closed = 0;
nodes = (
(145,500,l),
(245,600,l)
);
}
);
width = 290;
},
{
layerId = "95B08458-B918-474B-A742-A9E3D7F32A73";
shapes = (
{
attr = {
fillColor = (0,255);
lineCapEnd = 1;
lineCapStart = 1;
strokeWidth = 40;
};
closed = 0;
nodes = (
(160,0,l),
(160,500,l)
);
},
{
attr = {
fillColor = (0,255);
lineCapEnd = 1;
lineCapStart = 1;
strokeWidth = 40;
};
closed = 0;
nodes = (
(160,500,l),
(160,300,l)
);
},
{
attr = {
fillColor = (0,255);
lineCapEnd = 1;
lineCapStart = 1;
strokeWidth = 40;
};
closed = 0;
nodes = (
(160,300,l),
(60,300,l)
);
},
{
attr = {
fillColor = (0,255);
lineCapEnd = 1;
lineCapStart = 1;
strokeWidth = 40;
};
closed = 0;
nodes = (
(60,300,l),
(260,300,l)
);
},
{
attr = {
fillColor = (0,255);
lineCapEnd = 1;
lineCapStart = 1;
strokeWidth = 40;
};
closed = 0;
nodes = (
(260,300,l),
(160,300,l)
);
},
{
attr = {
fillColor = (0,255);
lineCapEnd = 1;
lineCapStart = 1;
strokeWidth = 40;
};
closed = 0;
nodes = (
(160,300,l),
(160,500,l)
);
},
{
attr = {
fillColor = (0,255);
lineCapEnd = 1;
lineCapStart = 1;
strokeWidth = 40;
};
closed = 0;
nodes = (
(160,500,l),
(260,600,l)
);
}
);
width = 320;
},
{
layerId = "100BDB2C-EC52-4B94-A255-ABC384BB93CE";
shapes = (
{
attr = {
fillColor = (0,255);
lineCapEnd = 1;
lineCapStart = 1;
strokeWidth = 50;
};
closed = 0;
nodes = (
(175,0,l),
(175,500,l)
);
},
{
attr = {
fillColor = (0,255);
lineCapEnd = 1;
lineCapStart = 1;
strokeWidth = 50;
};
closed = 0;
nodes = (
(175,500,l),
(175,300,l)
);
},
{
attr = {
fillColor = (0,255);
lineCapEnd = 1;
lineCapStart = 1;
strokeWidth = 50;
};
closed = 0;
nodes = (
(175,300,l),
(75,300,l)
);
},
{
attr = {
fillColor = (0,255);
lineCapEnd = 1;
lineCapStart = 1;
strokeWidth = 50;
};
closed = 0;
nodes = (
(75,300,l),
(275,300,l)
);
},
{
attr = {
fillColor = (0,255);
lineCapEnd = 1;
lineCapStart = 1;
strokeWidth = 50;
};
closed = 0;
nodes = (
(275,300,l),
(175,300,l)
);
},
{
attr = {
fillColor = (0,255);
lineCapEnd = 1;
lineCapStart = 1;
strokeWidth = 50;
};
closed = 0;
nodes = (
(175,300,l),
(175,500,l)
);
},
{
attr = {
fillColor = (0,255);
lineCapEnd = 1;
lineCapStart = 1;
strokeWidth = 50;
};
closed = 0;
nodes = (
(175,500,l),
(275,600,l)
);
}
);
width = 350;
},
{
layerId = "9358492D-4FF9-4F7B-B997-4920F2B241F5";
shapes = (
{
attr = {
fillColor = (0,255);
lineCapEnd = 1;
lineCapStart = 1;
strokeWidth = 70;
};
closed = 0;
nodes = (
(205,0,l),
(205,500,l)
);
},
{
attr = {
fillColor = (0,255);
lineCapEnd = 1;
lineCapStart = 1;
strokeWidth = 70;
};
closed = 0;
nodes = (
(205,500,l),
(205,300,l)
);
},
{
attr = {
fillColor = (0,255);
lineCapEnd = 1;
lineCapStart = 1;
strokeWidth = 70;
};
closed = 0;
nodes = (
(205,300,l),
(105,300,l)
);
},
{
attr = {
fillColor = (0,255);
lineCapEnd = 1;
lineCapStart = 1;
strokeWidth = 70;
};
closed = 0;
nodes = (
(105,300,l),
(305,300,l)
);
},
{
attr = {
fillColor = (0,255);
lineCapEnd = 1;
lineCapStart = 1;
strokeWidth = 70;
};
closed = 0;
nodes = (
(305,300,l),
(205,300,l)
);
},
{
attr = {
fillColor = (0,255);
lineCapEnd = 1;
lineCapStart = 1;
strokeWidth = 70;
};
closed = 0;
nodes = (
(205,300,l),
(205,500,l)
);
},
{
attr = {
fillColor = (0,255);
lineCapEnd = 1;
lineCapStart = 1;
strokeWidth = 70;
};
closed = 0;
nodes = (
(205,500,l),
(305,600,l)
);
}
);
width = 410;
}
);
unicode = 102;
},
{
glyphname = g;
lastChange = "2023-06-01 17:39:34 +0000";
layers = (
{
layerId = m01;
shapes = (
{
attr = {
fillColor = (0,255);
lineCapEnd = 1;
lineCapStart = 1;
};
closed = 0;
nodes = (
(200,-200,l),
(301,-200,l)
);
},
{
attr = {
fillColor = (0,255);
lineCapEnd = 1;
lineCapStart = 1;
};
closed = 0;
nodes = (
(301,-200,l),
(400,-100,l)
);
},
{
attr = {
fillColor = (0,255);
lineCapEnd = 1;
lineCapStart = 1;
};
closed = 0;
nodes = (
(400,-100,l),
(400,400,l)
);
},
{
attr = {
fillColor = (0,255);
lineCapEnd = 1;
lineCapStart = 1;
};
closed = 0;
nodes = (
(400,400,l),
(99,400,l)
);
},
{
attr = {
fillColor = (0,255);
lineCapEnd = 1;
lineCapStart = 1;
};
closed = 0;
nodes = (
(99,400,l),
(0,301,l)
);
},
{
attr = {
fillColor = (0,255);
lineCapEnd = 1;
lineCapStart = 1;
};
closed = 0;
nodes = (
(0,301,l),
(0,101,l)
);
},
{
attr = {
fillColor = (0,255);
lineCapEnd = 1;
lineCapStart = 1;
};
closed = 0;
nodes = (
(0,101,l),
(99,0,l)
);
},
{
attr = {
fillColor = (0,255);
lineCapEnd = 1;
lineCapStart = 1;
};
closed = 0;
nodes = (
(99,0,l),
(400,0,l)
);
}
);
width = 400;
},
{
layerId = "BA8956FC-D56C-4217-8F3F-AABAC9C1291C";
shapes = (
{
attr = {
fillColor = (0,255);
lineCapEnd = 1;
lineCapStart = 1;
strokeWidth = 30;
};
closed = 0;
nodes = (
(245,-200,l),
(346,-200,l)
);
},
{
attr = {
fillColor = (0,255);
lineCapEnd = 1;
lineCapStart = 1;
strokeWidth = 30;
};
closed = 0;
nodes = (
(346,-200,l),
(445,-100,l)
);
},
{
attr = {
fillColor = (0,255);
lineCapEnd = 1;
lineCapStart = 1;
strokeWidth = 30;
};
closed = 0;
nodes = (
(445,-100,l),
(445,400,l)
);
},
{
attr = {
fillColor = (0,255);
lineCapEnd = 1;
lineCapStart = 1;
strokeWidth = 30;
};
closed = 0;
nodes = (
(445,400,l),
(144,400,l)
);
},
{
attr = {
fillColor = (0,255);
lineCapEnd = 1;
lineCapStart = 1;
strokeWidth = 30;
};
closed = 0;
nodes = (
(144,400,l),
(45,301,l)
);
},
{
attr = {
fillColor = (0,255);
lineCapEnd = 1;
lineCapStart = 1;
strokeWidth = 30;
};
closed = 0;
nodes = (
(45,301,l),
(45,101,l)
);
},
{
attr = {
fillColor = (0,255);
lineCapEnd = 1;
lineCapStart = 1;
strokeWidth = 30;
};
closed = 0;
nodes = (
(45,101,l),
(144,0,l)
);
},
{
attr = {
fillColor = (0,255);
lineCapEnd = 1;
lineCapStart = 1;
strokeWidth = 30;
};
closed = 0;
nodes = (
(144,0,l),
(445,0,l)
);
}
);
width = 490;
},
{
layerId = "95B08458-B918-474B-A742-A9E3D7F32A73";
shapes = (
{
attr = {
fillColor = (0,255);
lineCapEnd = 1;
lineCapStart = 1;
strokeWidth = 40;
};
closed = 0;
nodes = (
(260,-200,l),
(361,-200,l)
);
},
{
attr = {
fillColor = (0,255);
lineCapEnd = 1;
lineCapStart = 1;
strokeWidth = 40;
};
closed = 0;
nodes = (
(361,-200,l),
(460,-100,l)
);
},
{
attr = {
fillColor = (0,255);
lineCapEnd = 1;
lineCapStart = 1;
strokeWidth = 40;
};
closed = 0;
nodes = (
(460,-100,l),
(460,400,l)
);
},
{
attr = {
fillColor = (0,255);
lineCapEnd = 1;
lineCapStart = 1;
strokeWidth = 40;
};
closed = 0;
nodes = (
(460,400,l),
(159,400,l)
);
},
{
attr = {
fillColor = (0,255);
lineCapEnd = 1;
lineCapStart = 1;
strokeWidth = 40;
};
closed = 0;
nodes = (
(159,400,l),
(60,301,l)
);
},
{
attr = {
fillColor = (0,255);
lineCapEnd = 1;
lineCapStart = 1;
strokeWidth = 40;
};
closed = 0;
nodes = (
(60,301,l),
(60,101,l)
);
},
{
attr = {
fillColor = (0,255);
lineCapEnd = 1;
lineCapStart = 1;
strokeWidth = 40;
};
closed = 0;
nodes = (
(60,101,l),
(159,0,l)
);
},
{
attr = {
fillColor = (0,255);
lineCapEnd = 1;
lineCapStart = 1;
strokeWidth = 40;
};
closed = 0;
nodes = (
(159,0,l),
(460,0,l)
);
}
);
width = 520;
},
{
layerId = "100BDB2C-EC52-4B94-A255-ABC384BB93CE";
shapes = (
{
attr = {
fillColor = (0,255);
lineCapEnd = 1;
lineCapStart = 1;
strokeWidth = 50;
};
closed = 0;
nodes = (
(275,-200,l),
(376,-200,l)
);
},
{
attr = {
fillColor = (0,255);
lineCapEnd = 1;
lineCapStart = 1;
strokeWidth = 50;
};
closed = 0;
nodes = (
(376,-200,l),
(475,-100,l)
);
},
{
attr = {
fillColor = (0,255);
lineCapEnd = 1;
lineCapStart = 1;
strokeWidth = 50;
};
closed = 0;
nodes = (
(475,-100,l),
(475,400,l)
);
},
{
attr = {
fillColor = (0,255);
lineCapEnd = 1;
lineCapStart = 1;
strokeWidth = 50;
};
closed = 0;
nodes = (
(475,400,l),
(174,400,l)
);
},
{
attr = {
fillColor = (0,255);
lineCapEnd = 1;
lineCapStart = 1;
strokeWidth = 50;
};
closed = 0;
nodes = (
(174,400,l),
(75,301,l)
);
},
{
attr = {
fillColor = (0,255);
lineCapEnd = 1;
lineCapStart = 1;
strokeWidth = 50;
};
closed = 0;
nodes = (
(75,301,l),
(75,101,l)
);
},
{
attr = {
fillColor = (0,255);
lineCapEnd = 1;
lineCapStart = 1;
strokeWidth = 50;
};
closed = 0;
nodes = (
(75,101,l),
(174,0,l)
);
},
{
attr = {
fillColor = (0,255);
lineCapEnd = 1;
lineCapStart = 1;
strokeWidth = 50;
};
closed = 0;
nodes = (
(174,0,l),
(475,0,l)
);
}
);
width = 550;
},
{
layerId = "9358492D-4FF9-4F7B-B997-4920F2B241F5";
shapes = (
{
attr = {
fillColor = (0,255);
lineCapEnd = 1;
lineCapStart = 1;
strokeWidth = 70;
};
closed = 0;
nodes = (
(305,-200,l),
(406,-200,l)
);
},
{
attr = {
fillColor = (0,255);
lineCapEnd = 1;
lineCapStart = 1;
strokeWidth = 70;
};
closed = 0;
nodes = (
(406,-200,l),
(505,-100,l)
);
},
{
attr = {
fillColor = (0,255);
lineCapEnd = 1;
lineCapStart = 1;
strokeWidth = 70;
};
closed = 0;
nodes = (
(505,-100,l),
(505,400,l)
);
},
{
attr = {
fillColor = (0,255);
lineCapEnd = 1;
lineCapStart = 1;
strokeWidth = 70;
};
closed = 0;
nodes = (
(505,400,l),
(204,400,l)
);
},
{
attr = {
fillColor = (0,255);
lineCapEnd = 1;
lineCapStart = 1;
strokeWidth = 70;
};
closed = 0;
nodes = (
(204,400,l),
(105,301,l)
);
},
{
attr = {
fillColor = (0,255);
lineCapEnd = 1;
lineCapStart = 1;
strokeWidth = 70;
};
closed = 0;
nodes = (
(105,301,l),
(105,101,l)
);
},
{
attr = {
fillColor = (0,255);
lineCapEnd = 1;
lineCapStart = 1;
strokeWidth = 70;
};
closed = 0;
nodes = (
(105,101,l),
(204,0,l)
);
},
{
attr = {
fillColor = (0,255);
lineCapEnd = 1;
lineCapStart = 1;
strokeWidth = 70;
};
closed = 0;
nodes = (
(204,0,l),
(505,0,l)
);
}
);
width = 610;
}
);
unicode = 103;
},
{
glyphname = h;
lastChange = "2023-06-01 17:39:34 +0000";
layers = (
{
layerId = m01;
shapes = (
{
attr = {
fillColor = (0,255);
lineCapEnd = 1;
lineCapStart = 1;
};
closed = 0;
nodes = (
(0,600,l),
(0,0,l)
);
},
{
attr = {
fillColor = (0,255);
lineCapEnd = 1;
lineCapStart = 1;
};
closed = 0;
nodes = (
(0,0,l),
(0,300,l)
);
},
{
attr = {
fillColor = (0,255);
lineCapEnd = 1;
lineCapStart = 1;
};
closed = 0;
nodes = (
(0,300,l),
(100,400,l)
);
},
{
attr = {
fillColor = (0,255);
lineCapEnd = 1;
lineCapStart = 1;
};
closed = 0;
nodes = (
(100,400,l),
(300,400,l)
);
},
{
attr = {
fillColor = (0,255);
lineCapEnd = 1;
lineCapStart = 1;
};
closed = 0;
nodes = (
(300,400,l),
(400,300,l)
);
},
{
attr = {
fillColor = (0,255);
lineCapEnd = 1;
lineCapStart = 1;
};
closed = 0;
nodes = (
(400,300,l),
(400,0,l)
);
}
);
width = 400;
},
{
layerId = "BA8956FC-D56C-4217-8F3F-AABAC9C1291C";
shapes = (
{
attr = {
fillColor = (0,255);
lineCapEnd = 1;
lineCapStart = 1;
strokeWidth = 30;
};
closed = 0;
nodes = (
(45,600,l),
(45,0,l)
);
},
{
attr = {
fillColor = (0,255);
lineCapEnd = 1;
lineCapStart = 1;
strokeWidth = 30;
};
closed = 0;
nodes = (
(45,0,l),
(45,300,l)
);
},
{
attr = {
fillColor = (0,255);
lineCapEnd = 1;
lineCapStart = 1;
strokeWidth = 30;
};
closed = 0;
nodes = (
(45,300,l),
(145,400,l)
);
},
{
attr = {
fillColor = (0,255);
lineCapEnd = 1;
lineCapStart = 1;
strokeWidth = 30;
};
closed = 0;
nodes = (
(145,400,l),
(345,400,l)
);
},
{
attr = {
fillColor = (0,255);
lineCapEnd = 1;
lineCapStart = 1;
strokeWidth = 30;
};
closed = 0;
nodes = (
(345,400,l),
(445,300,l)
);
},
{
attr = {
fillColor = (0,255);
lineCapEnd = 1;
lineCapStart = 1;
strokeWidth = 30;
};
closed = 0;
nodes = (
(445,300,l),
(445,0,l)
);
}
);
width = 490;
},
{
layerId = "95B08458-B918-474B-A742-A9E3D7F32A73";
shapes = (
{
attr = {
fillColor = (0,255);
lineCapEnd = 1;
lineCapStart = 1;
strokeWidth = 40;
};
closed = 0;
nodes = (
(60,600,l),
(60,0,l)
);
},
{
attr = {
fillColor = (0,255);
lineCapEnd = 1;
lineCapStart = 1;
strokeWidth = 40;
};
closed = 0;
nodes = (
(60,0,l),
(60,300,l)
);
},
{
attr = {
fillColor = (0,255);
lineCapEnd = 1;
lineCapStart = 1;
strokeWidth = 40;
};
closed = 0;
nodes = (
(60,300,l),
(160,400,l)
);
},
{
attr = {
fillColor = (0,255);
lineCapEnd = 1;
lineCapStart = 1;
strokeWidth = 40;
};
closed = 0;
nodes = (
(160,400,l),
(360,400,l)
);
},
{
attr = {
fillColor = (0,255);
lineCapEnd = 1;
lineCapStart = 1;
strokeWidth = 40;
};
closed = 0;
nodes = (
(360,400,l),
(460,300,l)
);
},
{
attr = {
fillColor = (0,255);
lineCapEnd = 1;
lineCapStart = 1;
strokeWidth = 40;
};
closed = 0;
nodes = (
(460,300,l),
(460,0,l)
);
}
);
width = 520;
},
{
layerId = "100BDB2C-EC52-4B94-A255-ABC384BB93CE";
shapes = (
{
attr = {
fillColor = (0,255);
lineCapEnd = 1;
lineCapStart = 1;
strokeWidth = 50;
};
closed = 0;
nodes = (
(75,600,l),
(75,0,l)
);
},
{
attr = {
fillColor = (0,255);
lineCapEnd = 1;
lineCapStart = 1;
strokeWidth = 50;
};
closed = 0;
nodes = (
(75,0,l),
(75,300,l)
);
},
{
attr = {
fillColor = (0,255);
lineCapEnd = 1;
lineCapStart = 1;
strokeWidth = 50;
};
closed = 0;
nodes = (
(75,300,l),
(175,400,l)
);
},
{
attr = {
fillColor = (0,255);
lineCapEnd = 1;
lineCapStart = 1;
strokeWidth = 50;
};
closed = 0;
nodes = (
(175,400,l),
(375,400,l)
);
},
{
attr = {
fillColor = (0,255);
lineCapEnd = 1;
lineCapStart = 1;
strokeWidth = 50;
};
closed = 0;
nodes = (
(375,400,l),
(475,300,l)
);
},
{
attr = {
fillColor = (0,255);
lineCapEnd = 1;
lineCapStart = 1;
strokeWidth = 50;
};
closed = 0;
nodes = (
(475,300,l),
(475,0,l)
);
}
);
width = 550;
},
{
layerId = "9358492D-4FF9-4F7B-B997-4920F2B241F5";
shapes = (
{
attr = {
fillColor = (0,255);
lineCapEnd = 1;
lineCapStart = 1;
strokeWidth = 70;
};
closed = 0;
nodes = (
(105,600,l),
(105,0,l)
);
},
{
attr = {
fillColor = (0,255);
lineCapEnd = 1;
lineCapStart = 1;
strokeWidth = 70;
};
closed = 0;
nodes = (
(105,0,l),
(105,300,l)
);
},
{
attr = {
fillColor = (0,255);
lineCapEnd = 1;
lineCapStart = 1;
strokeWidth = 70;
};
closed = 0;
nodes = (
(105,300,l),
(205,400,l)
);
},
{
attr = {
fillColor = (0,255);
lineCapEnd = 1;
lineCapStart = 1;
strokeWidth = 70;
};
closed = 0;
nodes = (
(205,400,l),
(405,400,l)
);
},
{
attr = {
fillColor = (0,255);
lineCapEnd = 1;
lineCapStart = 1;
strokeWidth = 70;
};
closed = 0;
nodes = (
(405,400,l),
(505,300,l)
);
},
{
attr = {
fillColor = (0,255);
lineCapEnd = 1;
lineCapStart = 1;
strokeWidth = 70;
};
closed = 0;
nodes = (
(505,300,l),
(505,0,l)
);
}
);
width = 610;
}
);
unicode = 104;
},
{
glyphname = i;
lastChange = "2023-06-01 17:39:34 +0000";
layers = (
{
layerId = m01;
shapes = (
{
attr = {
fillColor = (0,255);
lineCapEnd = 1;
lineCapStart = 1;
};
closed = 0;
nodes = (
(0,0,l),
(200,0,l)
);
},
{
attr = {
fillColor = (0,255);
lineCapEnd = 1;
lineCapStart = 1;
};
closed = 0;
nodes = (
(200,0,l),
(100,0,l)
);
},
{
attr = {
fillColor = (0,255);
lineCapEnd = 1;
lineCapStart = 1;
};
closed = 0;
nodes = (
(100,0,l),
(100,400,l)
);
},
{
attr = {
fillColor = (0,255);
lineCapEnd = 1;
lineCapStart = 1;
};
closed = 0;
nodes = (
(100,400,l),
(0,400,l)
);
},
{
attr = {
fillColor = (0,255);
lineCapEnd = 1;
lineCapStart = 1;
};
closed = 0;
nodes = (
(100,600,l),
(100,600,l)
);
}
);
width = 200;
},
{
layerId = "BA8956FC-D56C-4217-8F3F-AABAC9C1291C";
shapes = (
{
attr = {
fillColor = (0,255);
lineCapEnd = 1;
lineCapStart = 1;
strokeWidth = 30;
};
closed = 0;
nodes = (
(45,0,l),
(245,0,l)
);
},
{
attr = {
fillColor = (0,255);
lineCapEnd = 1;
lineCapStart = 1;
strokeWidth = 30;
};
closed = 0;
nodes = (
(245,0,l),
(145,0,l)
);
},
{
attr = {
fillColor = (0,255);
lineCapEnd = 1;
lineCapStart = 1;
strokeWidth = 30;
};
closed = 0;
nodes = (
(145,0,l),
(145,400,l)
);
},
{
attr = {
fillColor = (0,255);
lineCapEnd = 1;
lineCapStart = 1;
strokeWidth = 30;
};
closed = 0;
nodes = (
(145,400,l),
(45,400,l)
);
},
{
attr = {
fillColor = (0,255);
lineCapEnd = 1;
lineCapStart = 1;
strokeWidth = 30;
};
closed = 0;
nodes = (
(145,600,l),
(145,600,l)
);
},
{
attr = {
strokeWidth = 30;
};
closed = 1;
nodes = (
(153,585,o),
(160,592,o),
(160,600,cs),
(160,608,o),
(153,615,o),
(145,615,cs),
(137,615,o),
(130,608,o),
(130,600,cs),
(130,592,o),
(137,585,o),
(145,585,cs)
);
}
);
width = 290;
},
{
layerId = "95B08458-B918-474B-A742-A9E3D7F32A73";
shapes = (
{
attr = {
fillColor = (0,255);
lineCapEnd = 1;
lineCapStart = 1;
strokeWidth = 40;
};
closed = 0;
nodes = (
(60,0,l),
(260,0,l)
);
},
{
attr = {
fillColor = (0,255);
lineCapEnd = 1;
lineCapStart = 1;
strokeWidth = 40;
};
closed = 0;
nodes = (
(260,0,l),
(160,0,l)
);
},
{
attr = {
fillColor = (0,255);
lineCapEnd = 1;
lineCapStart = 1;
strokeWidth = 40;
};
closed = 0;
nodes = (
(160,0,l),
(160,400,l)
);
},
{
attr = {
fillColor = (0,255);
lineCapEnd = 1;
lineCapStart = 1;
strokeWidth = 40;
};
closed = 0;
nodes = (
(160,400,l),
(60,400,l)
);
},
{
attr = {
fillColor = (0,255);
lineCapEnd = 1;
lineCapStart = 1;
strokeWidth = 40;
};
closed = 0;
nodes = (
(160,600,l),
(160,600,l)
);
},
{
attr = {
strokeWidth = 40;
};
closed = 1;
nodes = (
(171,580,o),
(180,589,o),
(180,600,cs),
(180,611,o),
(171,620,o),
(160,620,cs),
(149,620,o),
(140,611,o),
(140,600,cs),
(140,589,o),
(149,580,o),
(160,580,cs)
);
}
);
width = 320;
},
{
layerId = "100BDB2C-EC52-4B94-A255-ABC384BB93CE";
shapes = (
{
attr = {
fillColor = (0,255);
lineCapEnd = 1;
lineCapStart = 1;
strokeWidth = 50;
};
closed = 0;
nodes = (
(75,0,l),
(275,0,l)
);
},
{
attr = {
fillColor = (0,255);
lineCapEnd = 1;
lineCapStart = 1;
strokeWidth = 50;
};
closed = 0;
nodes = (
(275,0,l),
(175,0,l)
);
},
{
attr = {
fillColor = (0,255);
lineCapEnd = 1;
lineCapStart = 1;
strokeWidth = 50;
};
closed = 0;
nodes = (
(175,0,l),
(175,400,l)
);
},
{
attr = {
fillColor = (0,255);
lineCapEnd = 1;
lineCapStart = 1;
strokeWidth = 50;
};
closed = 0;
nodes = (
(175,400,l),
(75,400,l)
);
},
{
attr = {
fillColor = (0,255);
lineCapEnd = 1;
lineCapStart = 1;
strokeWidth = 50;
};
closed = 0;
nodes = (
(175,600,l),
(175,600,l)
);
},
{
attr = {
strokeWidth = 50;
};
closed = 1;
nodes = (
(189,575,o),
(200,586,o),
(200,600,cs),
(200,614,o),
(189,625,o),
(175,625,cs),
(161,625,o),
(150,614,o),
(150,600,cs),
(150,586,o),
(161,575,o),
(175,575,cs)
);
}
);
width = 350;
},
{
layerId = "9358492D-4FF9-4F7B-B997-4920F2B241F5";
shapes = (
{
attr = {
fillColor = (0,255);
lineCapEnd = 1;
lineCapStart = 1;
strokeWidth = 70;
};
closed = 0;
nodes = (
(105,0,l),
(305,0,l)
);
},
{
attr = {
fillColor = (0,255);
lineCapEnd = 1;
lineCapStart = 1;
strokeWidth = 70;
};
closed = 0;
nodes = (
(305,0,l),
(205,0,l)
);
},
{
attr = {
fillColor = (0,255);
lineCapEnd = 1;
lineCapStart = 1;
strokeWidth = 70;
};
closed = 0;
nodes = (
(205,0,l),
(205,400,l)
);
},
{
attr = {
fillColor = (0,255);
lineCapEnd = 1;
lineCapStart = 1;
strokeWidth = 70;
};
closed = 0;
nodes = (
(205,400,l),
(105,400,l)
);
},
{
attr = {
fillColor = (0,255);
lineCapEnd = 1;
lineCapStart = 1;
strokeWidth = 70;
};
closed = 0;
nodes = (
(205,600,l),
(205,600,l)
);
},
{
attr = {
strokeWidth = 70;
};
closed = 1;
nodes = (
(224,565,o),
(240,581,o),
(240,600,cs),
(240,619,o),
(224,635,o),
(205,635,cs),
(186,635,o),
(170,619,o),
(170,600,cs),
(170,581,o),
(186,565,o),
(205,565,cs)
);
}
);
width = 410;
}
);
unicode = 105;
},
{
glyphname = j;
lastChange = "2023-06-01 17:39:34 +0000";
layers = (
{
layerId = m01;
shapes = (
{
attr = {
fillColor = (0,255);
lineCapEnd = 1;
lineCapStart = 1;
};
closed = 0;
nodes = (
(0,-200,l),
(100,-200,l)
);
},
{
attr = {
fillColor = (0,255);
lineCapEnd = 1;
lineCapStart = 1;
};
closed = 0;
nodes = (
(100,-200,l),
(200,-100,l)
);
},
{
attr = {
fillColor = (0,255);
lineCapEnd = 1;
lineCapStart = 1;
};
closed = 0;
nodes = (
(200,-100,l),
(200,400,l)
);
},
{
attr = {
fillColor = (0,255);
lineCapEnd = 1;
lineCapStart = 1;
};
closed = 0;
nodes = (
(200,600,l),
(200,600,l)
);
}
);
width = 200;
},
{
layerId = "BA8956FC-D56C-4217-8F3F-AABAC9C1291C";
shapes = (
{
attr = {
fillColor = (0,255);
lineCapEnd = 1;
lineCapStart = 1;
strokeWidth = 30;
};
closed = 0;
nodes = (
(45,-200,l),
(145,-200,l)
);
},
{
attr = {
fillColor = (0,255);
lineCapEnd = 1;
lineCapStart = 1;
strokeWidth = 30;
};
closed = 0;
nodes = (
(145,-200,l),
(245,-100,l)
);
},
{
attr = {
fillColor = (0,255);
lineCapEnd = 1;
lineCapStart = 1;
strokeWidth = 30;
};
closed = 0;
nodes = (
(245,-100,l),
(245,400,l)
);
},
{
attr = {
fillColor = (0,255);
lineCapEnd = 1;
lineCapStart = 1;
strokeWidth = 30;
};
closed = 0;
nodes = (
(245,600,l),
(245,600,l)
);
},
{
attr = {
strokeWidth = 30;
};
closed = 1;
nodes = (
(253,585,o),
(260,592,o),
(260,600,cs),
(260,608,o),
(253,615,o),
(245,615,cs),
(237,615,o),
(230,608,o),
(230,600,cs),
(230,592,o),
(237,585,o),
(245,585,cs)
);
}
);
width = 305;
},
{
layerId = "95B08458-B918-474B-A742-A9E3D7F32A73";
shapes = (
{
attr = {
fillColor = (0,255);
lineCapEnd = 1;
lineCapStart = 1;
strokeWidth = 40;
};
closed = 0;
nodes = (
(60,-200,l),
(160,-200,l)
);
},
{
attr = {
fillColor = (0,255);
lineCapEnd = 1;
lineCapStart = 1;
strokeWidth = 40;
};
closed = 0;
nodes = (
(160,-200,l),
(260,-100,l)
);
},
{
attr = {
fillColor = (0,255);
lineCapEnd = 1;
lineCapStart = 1;
strokeWidth = 40;
};
closed = 0;
nodes = (
(260,-100,l),
(260,400,l)
);
},
{
attr = {
fillColor = (0,255);
lineCapEnd = 1;
lineCapStart = 1;
strokeWidth = 40;
};
closed = 0;
nodes = (
(260,600,l),
(260,600,l)
);
},
{
attr = {
strokeWidth = 40;
};
closed = 1;
nodes = (
(271,580,o),
(280,589,o),
(280,600,cs),
(280,611,o),
(271,620,o),
(260,620,cs),
(249,620,o),
(240,611,o),
(240,600,cs),
(240,589,o),
(249,580,o),
(260,580,cs)
);
}
);
width = 340;
},
{
layerId = "100BDB2C-EC52-4B94-A255-ABC384BB93CE";
shapes = (
{
attr = {
fillColor = (0,255);
lineCapEnd = 1;
lineCapStart = 1;
strokeWidth = 50;
};
closed = 0;
nodes = (
(75,-200,l),
(175,-200,l)
);
},
{
attr = {
fillColor = (0,255);
lineCapEnd = 1;
lineCapStart = 1;
strokeWidth = 50;
};
closed = 0;
nodes = (
(175,-200,l),
(275,-100,l)
);
},
{
attr = {
fillColor = (0,255);
lineCapEnd = 1;
lineCapStart = 1;
strokeWidth = 50;
};
closed = 0;
nodes = (
(275,-100,l),
(275,400,l)
);
},
{
attr = {
fillColor = (0,255);
lineCapEnd = 1;
lineCapStart = 1;
strokeWidth = 50;
};
closed = 0;
nodes = (
(275,600,l),
(275,600,l)
);
},
{
attr = {
strokeWidth = 50;
};
closed = 1;
nodes = (
(289,575,o),
(300,586,o),
(300,600,cs),
(300,614,o),
(289,625,o),
(275,625,cs),
(261,625,o),
(250,614,o),
(250,600,cs),
(250,586,o),
(261,575,o),
(275,575,cs)
);
}
);
width = 375;
},
{
layerId = "9358492D-4FF9-4F7B-B997-4920F2B241F5";
shapes = (
{
attr = {
fillColor = (0,255);
lineCapEnd = 1;
lineCapStart = 1;
strokeWidth = 70;
};
closed = 0;
nodes = (
(105,-200,l),
(205,-200,l)
);
},
{
attr = {
fillColor = (0,255);
lineCapEnd = 1;
lineCapStart = 1;
strokeWidth = 70;
};
closed = 0;
nodes = (
(205,-200,l),
(305,-100,l)
);
},
{
attr = {
fillColor = (0,255);
lineCapEnd = 1;
lineCapStart = 1;
strokeWidth = 70;
};
closed = 0;
nodes = (
(305,-100,l),
(305,400,l)
);
},
{
attr = {
fillColor = (0,255);
lineCapEnd = 1;
lineCapStart = 1;
strokeWidth = 70;
};
closed = 0;
nodes = (
(305,600,l),
(305,600,l)
);
},
{
attr = {
strokeWidth = 70;
};
closed = 1;
nodes = (
(324,565,o),
(340,581,o),
(340,600,cs),
(340,619,o),
(324,635,o),
(305,635,cs),
(286,635,o),
(270,619,o),
(270,600,cs),
(270,581,o),
(286,565,o),
(305,565,cs)
);
}
);
width = 445;
}
);
unicode = 106;
},
{
glyphname = k;
lastChange = "2023-06-01 17:39:34 +0000";
layers = (
{
layerId = m01;
shapes = (
{
attr = {
fillColor = (0,255);
lineCapEnd = 1;
lineCapStart = 1;
};
closed = 0;
nodes = (
(0,0,l),
(0,600,l)
);
},
{
attr = {
fillColor = (0,255);
lineCapEnd = 1;
lineCapStart = 1;
};
closed = 0;
nodes = (
(0,200,l),
(300,400,l)
);
},
{
attr = {
fillColor = (0,255);
lineCapEnd = 1;
lineCapStart = 1;
};
closed = 0;
nodes = (
(0,200,l),
(300,0,l)
);
}
);
width = 300;
},
{
layerId = "BA8956FC-D56C-4217-8F3F-AABAC9C1291C";
shapes = (
{
attr = {
fillColor = (0,255);
lineCapEnd = 1;
lineCapStart = 1;
strokeWidth = 30;
};
closed = 0;
nodes = (
(45,0,l),
(45,600,l)
);
},
{
attr = {
fillColor = (0,255);
lineCapEnd = 1;
lineCapStart = 1;
strokeWidth = 30;
};
closed = 0;
nodes = (
(45,200,l),
(345,400,l)
);
},
{
attr = {
fillColor = (0,255);
lineCapEnd = 1;
lineCapStart = 1;
strokeWidth = 30;
};
closed = 0;
nodes = (
(45,200,l),
(345,0,l)
);
}
);
width = 390;
},
{
layerId = "95B08458-B918-474B-A742-A9E3D7F32A73";
shapes = (
{
attr = {
fillColor = (0,255);
lineCapEnd = 1;
lineCapStart = 1;
strokeWidth = 40;
};
closed = 0;
nodes = (
(60,0,l),
(60,600,l)
);
},
{
attr = {
fillColor = (0,255);
lineCapEnd = 1;
lineCapStart = 1;
strokeWidth = 40;
};
closed = 0;
nodes = (
(60,200,l),
(360,400,l)
);
},
{
attr = {
fillColor = (0,255);
lineCapEnd = 1;
lineCapStart = 1;
strokeWidth = 40;
};
closed = 0;
nodes = (
(60,200,l),
(360,0,l)
);
}
);
width = 420;
},
{
layerId = "100BDB2C-EC52-4B94-A255-ABC384BB93CE";
shapes = (
{
attr = {
fillColor = (0,255);
lineCapEnd = 1;
lineCapStart = 1;
strokeWidth = 50;
};
closed = 0;
nodes = (
(75,0,l),
(75,600,l)
);
},
{
attr = {
fillColor = (0,255);
lineCapEnd = 1;
lineCapStart = 1;
strokeWidth = 50;
};
closed = 0;
nodes = (
(75,200,l),
(375,400,l)
);
},
{
attr = {
fillColor = (0,255);
lineCapEnd = 1;
lineCapStart = 1;
strokeWidth = 50;
};
closed = 0;
nodes = (
(75,200,l),
(375,0,l)
);
}
);
width = 450;
},
{
layerId = "9358492D-4FF9-4F7B-B997-4920F2B241F5";
shapes = (
{
attr = {
fillColor = (0,255);
lineCapEnd = 1;
lineCapStart = 1;
strokeWidth = 70;
};
closed = 0;
nodes = (
(105,0,l),
(105,600,l)
);
},
{
attr = {
fillColor = (0,255);
lineCapEnd = 1;
lineCapStart = 1;
strokeWidth = 70;
};
closed = 0;
nodes = (
(105,200,l),
(405,400,l)
);
},
{
attr = {
fillColor = (0,255);
lineCapEnd = 1;
lineCapStart = 1;
strokeWidth = 70;
};
closed = 0;
nodes = (
(105,200,l),
(405,0,l)
);
}
);
width = 510;
}
);
unicode = 107;
},
{
glyphname = l;
lastChange = "2023-06-01 17:39:34 +0000";
layers = (
{
layerId = m01;
shapes = (
{
attr = {
fillColor = (0,255);
lineCapEnd = 1;
lineCapStart = 1;
};
closed = 0;
nodes = (
(0,0,l),
(200,0,l)
);
},
{
attr = {
fillColor = (0,255);
lineCapEnd = 1;
lineCapStart = 1;
};
closed = 0;
nodes = (
(200,0,l),
(100,0,l)
);
},
{
attr = {
fillColor = (0,255);
lineCapEnd = 1;
lineCapStart = 1;
};
closed = 0;
nodes = (
(100,0,l),
(100,600,l)
);
},
{
attr = {
fillColor = (0,255);
lineCapEnd = 1;
lineCapStart = 1;
};
closed = 0;
nodes = (
(100,600,l),
(0,600,l)
);
}
);
width = 200;
},
{
layerId = "BA8956FC-D56C-4217-8F3F-AABAC9C1291C";
shapes = (
{
attr = {
fillColor = (0,255);
lineCapEnd = 1;
lineCapStart = 1;
strokeWidth = 30;
};
closed = 0;
nodes = (
(45,0,l),
(245,0,l)
);
},
{
attr = {
fillColor = (0,255);
lineCapEnd = 1;
lineCapStart = 1;
strokeWidth = 30;
};
closed = 0;
nodes = (
(245,0,l),
(145,0,l)
);
},
{
attr = {
fillColor = (0,255);
lineCapEnd = 1;
lineCapStart = 1;
strokeWidth = 30;
};
closed = 0;
nodes = (
(145,0,l),
(145,600,l)
);
},
{
attr = {
fillColor = (0,255);
lineCapEnd = 1;
lineCapStart = 1;
strokeWidth = 30;
};
closed = 0;
nodes = (
(145,600,l),
(45,600,l)
);
}
);
width = 290;
},
{
layerId = "95B08458-B918-474B-A742-A9E3D7F32A73";
shapes = (
{
attr = {
fillColor = (0,255);
lineCapEnd = 1;
lineCapStart = 1;
strokeWidth = 40;
};
closed = 0;
nodes = (
(60,0,l),
(260,0,l)
);
},
{
attr = {
fillColor = (0,255);
lineCapEnd = 1;
lineCapStart = 1;
strokeWidth = 40;
};
closed = 0;
nodes = (
(260,0,l),
(160,0,l)
);
},
{
attr = {
fillColor = (0,255);
lineCapEnd = 1;
lineCapStart = 1;
strokeWidth = 40;
};
closed = 0;
nodes = (
(160,0,l),
(160,600,l)
);
},
{
attr = {
fillColor = (0,255);
lineCapEnd = 1;
lineCapStart = 1;
strokeWidth = 40;
};
closed = 0;
nodes = (
(160,600,l),
(60,600,l)
);
}
);
width = 320;
},
{
layerId = "100BDB2C-EC52-4B94-A255-ABC384BB93CE";
shapes = (
{
attr = {
fillColor = (0,255);
lineCapEnd = 1;
lineCapStart = 1;
strokeWidth = 50;
};
closed = 0;
nodes = (
(75,0,l),
(275,0,l)
);
},
{
attr = {
fillColor = (0,255);
lineCapEnd = 1;
lineCapStart = 1;
strokeWidth = 50;
};
closed = 0;
nodes = (
(275,0,l),
(175,0,l)
);
},
{
attr = {
fillColor = (0,255);
lineCapEnd = 1;
lineCapStart = 1;
strokeWidth = 50;
};
closed = 0;
nodes = (
(175,0,l),
(175,600,l)
);
},
{
attr = {
fillColor = (0,255);
lineCapEnd = 1;
lineCapStart = 1;
strokeWidth = 50;
};
closed = 0;
nodes = (
(175,600,l),
(75,600,l)
);
}
);
width = 350;
},
{
layerId = "9358492D-4FF9-4F7B-B997-4920F2B241F5";
shapes = (
{
attr = {
fillColor = (0,255);
lineCapEnd = 1;
lineCapStart = 1;
strokeWidth = 70;
};
closed = 0;
nodes = (
(105,0,l),
(305,0,l)
);
},
{
attr = {
fillColor = (0,255);
lineCapEnd = 1;
lineCapStart = 1;
strokeWidth = 70;
};
closed = 0;
nodes = (
(305,0,l),
(205,0,l)
);
},
{
attr = {
fillColor = (0,255);
lineCapEnd = 1;
lineCapStart = 1;
strokeWidth = 70;
};
closed = 0;
nodes = (
(205,0,l),
(205,600,l)
);
},
{
attr = {
fillColor = (0,255);
lineCapEnd = 1;
lineCapStart = 1;
strokeWidth = 70;
};
closed = 0;
nodes = (
(205,600,l),
(105,600,l)
);
}
);
width = 410;
}
);
unicode = 108;
},
{
glyphname = m;
lastChange = "2023-06-01 17:39:34 +0000";
layers = (
{
layerId = m01;
shapes = (
{
attr = {
fillColor = (0,255);
lineCapEnd = 1;
lineCapStart = 1;
};
closed = 0;
nodes = (
(0,0,l),
(0,400,l)
);
},
{
attr = {
fillColor = (0,255);
lineCapEnd = 1;
lineCapStart = 1;
};
closed = 0;
nodes = (
(0,400,l),
(100,400,l)
);
},
{
attr = {
fillColor = (0,255);
lineCapEnd = 1;
lineCapStart = 1;
};
closed = 0;
nodes = (
(100,400,l),
(200,300,l)
);
},
{
attr = {
fillColor = (0,255);
lineCapEnd = 1;
lineCapStart = 1;
};
closed = 0;
nodes = (
(200,300,l),
(200,0,l)
);
},
{
attr = {
fillColor = (0,255);
lineCapEnd = 1;
lineCapStart = 1;
};
closed = 0;
nodes = (
(200,0,l),
(200,300,l)
);
},
{
attr = {
fillColor = (0,255);
lineCapEnd = 1;
lineCapStart = 1;
};
closed = 0;
nodes = (
(200,300,l),
(301,400,l)
);
},
{
attr = {
fillColor = (0,255);
lineCapEnd = 1;
lineCapStart = 1;
};
closed = 0;
nodes = (
(301,400,l),
(400,300,l)
);
},
{
attr = {
fillColor = (0,255);
lineCapEnd = 1;
lineCapStart = 1;
};
closed = 0;
nodes = (
(400,300,l),
(400,0,l)
);
}
);
width = 400;
},
{
layerId = "BA8956FC-D56C-4217-8F3F-AABAC9C1291C";
shapes = (
{
attr = {
fillColor = (0,255);
lineCapEnd = 1;
lineCapStart = 1;
strokeWidth = 30;
};
closed = 0;
nodes = (
(45,0,l),
(45,400,l)
);
},
{
attr = {
fillColor = (0,255);
lineCapEnd = 1;
lineCapStart = 1;
strokeWidth = 30;
};
closed = 0;
nodes = (
(45,400,l),
(145,400,l)
);
},
{
attr = {
fillColor = (0,255);
lineCapEnd = 1;
lineCapStart = 1;
strokeWidth = 30;
};
closed = 0;
nodes = (
(145,400,l),
(245,300,l)
);
},
{
attr = {
fillColor = (0,255);
lineCapEnd = 1;
lineCapStart = 1;
strokeWidth = 30;
};
closed = 0;
nodes = (
(245,300,l),
(245,0,l)
);
},
{
attr = {
fillColor = (0,255);
lineCapEnd = 1;
lineCapStart = 1;
strokeWidth = 30;
};
closed = 0;
nodes = (
(245,0,l),
(245,300,l)
);
},
{
attr = {
fillColor = (0,255);
lineCapEnd = 1;
lineCapStart = 1;
strokeWidth = 30;
};
closed = 0;
nodes = (
(245,300,l),
(346,400,l)
);
},
{
attr = {
fillColor = (0,255);
lineCapEnd = 1;
lineCapStart = 1;
strokeWidth = 30;
};
closed = 0;
nodes = (
(346,400,l),
(445,300,l)
);
},
{
attr = {
fillColor = (0,255);
lineCapEnd = 1;
lineCapStart = 1;
strokeWidth = 30;
};
closed = 0;
nodes = (
(445,300,l),
(445,0,l)
);
}
);
width = 490;
},
{
layerId = "95B08458-B918-474B-A742-A9E3D7F32A73";
shapes = (
{
attr = {
fillColor = (0,255);
lineCapEnd = 1;
lineCapStart = 1;
strokeWidth = 40;
};
closed = 0;
nodes = (
(60,0,l),
(60,400,l)
);
},
{
attr = {
fillColor = (0,255);
lineCapEnd = 1;
lineCapStart = 1;
strokeWidth = 40;
};
closed = 0;
nodes = (
(60,400,l),
(160,400,l)
);
},
{
attr = {
fillColor = (0,255);
lineCapEnd = 1;
lineCapStart = 1;
strokeWidth = 40;
};
closed = 0;
nodes = (
(160,400,l),
(260,300,l)
);
},
{
attr = {
fillColor = (0,255);
lineCapEnd = 1;
lineCapStart = 1;
strokeWidth = 40;
};
closed = 0;
nodes = (
(260,300,l),
(260,0,l)
);
},
{
attr = {
fillColor = (0,255);
lineCapEnd = 1;
lineCapStart = 1;
strokeWidth = 40;
};
closed = 0;
nodes = (
(260,0,l),
(260,300,l)
);
},
{
attr = {
fillColor = (0,255);
lineCapEnd = 1;
lineCapStart = 1;
strokeWidth = 40;
};
closed = 0;
nodes = (
(260,300,l),
(361,400,l)
);
},
{
attr = {
fillColor = (0,255);
lineCapEnd = 1;
lineCapStart = 1;
strokeWidth = 40;
};
closed = 0;
nodes = (
(361,400,l),
(460,300,l)
);
},
{
attr = {
fillColor = (0,255);
lineCapEnd = 1;
lineCapStart = 1;
strokeWidth = 40;
};
closed = 0;
nodes = (
(460,300,l),
(460,0,l)
);
}
);
width = 520;
},
{
layerId = "100BDB2C-EC52-4B94-A255-ABC384BB93CE";
shapes = (
{
attr = {
fillColor = (0,255);
lineCapEnd = 1;
lineCapStart = 1;
strokeWidth = 50;
};
closed = 0;
nodes = (
(75,0,l),
(75,400,l)
);
},
{
attr = {
fillColor = (0,255);
lineCapEnd = 1;
lineCapStart = 1;
strokeWidth = 50;
};
closed = 0;
nodes = (
(75,400,l),
(175,400,l)
);
},
{
attr = {
fillColor = (0,255);
lineCapEnd = 1;
lineCapStart = 1;
strokeWidth = 50;
};
closed = 0;
nodes = (
(175,400,l),
(275,300,l)
);
},
{
attr = {
fillColor = (0,255);
lineCapEnd = 1;
lineCapStart = 1;
strokeWidth = 50;
};
closed = 0;
nodes = (
(275,300,l),
(275,0,l)
);
},
{
attr = {
fillColor = (0,255);
lineCapEnd = 1;
lineCapStart = 1;
strokeWidth = 50;
};
closed = 0;
nodes = (
(275,0,l),
(275,300,l)
);
},
{
attr = {
fillColor = (0,255);
lineCapEnd = 1;
lineCapStart = 1;
strokeWidth = 50;
};
closed = 0;
nodes = (
(275,300,l),
(376,400,l)
);
},
{
attr = {
fillColor = (0,255);
lineCapEnd = 1;
lineCapStart = 1;
strokeWidth = 50;
};
closed = 0;
nodes = (
(376,400,l),
(475,300,l)
);
},
{
attr = {
fillColor = (0,255);
lineCapEnd = 1;
lineCapStart = 1;
strokeWidth = 50;
};
closed = 0;
nodes = (
(475,300,l),
(475,0,l)
);
}
);
width = 550;
},
{
layerId = "9358492D-4FF9-4F7B-B997-4920F2B241F5";
shapes = (
{
attr = {
fillColor = (0,255);
lineCapEnd = 1;
lineCapStart = 1;
strokeWidth = 70;
};
closed = 0;
nodes = (
(105,0,l),
(105,400,l)
);
},
{
attr = {
fillColor = (0,255);
lineCapEnd = 1;
lineCapStart = 1;
strokeWidth = 70;
};
closed = 0;
nodes = (
(105,400,l),
(205,400,l)
);
},
{
attr = {
fillColor = (0,255);
lineCapEnd = 1;
lineCapStart = 1;
strokeWidth = 70;
};
closed = 0;
nodes = (
(205,400,l),
(305,300,l)
);
},
{
attr = {
fillColor = (0,255);
lineCapEnd = 1;
lineCapStart = 1;
strokeWidth = 70;
};
closed = 0;
nodes = (
(305,300,l),
(305,0,l)
);
},
{
attr = {
fillColor = (0,255);
lineCapEnd = 1;
lineCapStart = 1;
strokeWidth = 70;
};
closed = 0;
nodes = (
(305,0,l),
(305,300,l)
);
},
{
attr = {
fillColor = (0,255);
lineCapEnd = 1;
lineCapStart = 1;
strokeWidth = 70;
};
closed = 0;
nodes = (
(305,300,l),
(406,400,l)
);
},
{
attr = {
fillColor = (0,255);
lineCapEnd = 1;
lineCapStart = 1;
strokeWidth = 70;
};
closed = 0;
nodes = (
(406,400,l),
(505,300,l)
);
},
{
attr = {
fillColor = (0,255);
lineCapEnd = 1;
lineCapStart = 1;
strokeWidth = 70;
};
closed = 0;
nodes = (
(505,300,l),
(505,0,l)
);
}
);
width = 610;
}
);
unicode = 109;
},
{
glyphname = n;
lastChange = "2023-06-01 17:39:34 +0000";
layers = (
{
layerId = m01;
shapes = (
{
attr = {
fillColor = (0,255);
lineCapEnd = 1;
lineCapStart = 1;
};
closed = 0;
nodes = (
(0,0,l),
(0,400,l)
);
},
{
attr = {
fillColor = (0,255);
lineCapEnd = 1;
lineCapStart = 1;
};
closed = 0;
nodes = (
(0,400,l),
(301,400,l)
);
},
{
attr = {
fillColor = (0,255);
lineCapEnd = 1;
lineCapStart = 1;
};
closed = 0;
nodes = (
(301,400,l),
(400,300,l)
);
},
{
attr = {
fillColor = (0,255);
lineCapEnd = 1;
lineCapStart = 1;
};
closed = 0;
nodes = (
(400,300,l),
(400,0,l)
);
}
);
width = 400;
},
{
layerId = "BA8956FC-D56C-4217-8F3F-AABAC9C1291C";
shapes = (
{
attr = {
fillColor = (0,255);
lineCapEnd = 1;
lineCapStart = 1;
strokeWidth = 30;
};
closed = 0;
nodes = (
(45,0,l),
(45,400,l)
);
},
{
attr = {
fillColor = (0,255);
lineCapEnd = 1;
lineCapStart = 1;
strokeWidth = 30;
};
closed = 0;
nodes = (
(45,400,l),
(346,400,l)
);
},
{
attr = {
fillColor = (0,255);
lineCapEnd = 1;
lineCapStart = 1;
strokeWidth = 30;
};
closed = 0;
nodes = (
(346,400,l),
(445,300,l)
);
},
{
attr = {
fillColor = (0,255);
lineCapEnd = 1;
lineCapStart = 1;
strokeWidth = 30;
};
closed = 0;
nodes = (
(445,300,l),
(445,0,l)
);
}
);
width = 490;
},
{
layerId = "95B08458-B918-474B-A742-A9E3D7F32A73";
shapes = (
{
attr = {
fillColor = (0,255);
lineCapEnd = 1;
lineCapStart = 1;
strokeWidth = 40;
};
closed = 0;
nodes = (
(60,0,l),
(60,400,l)
);
},
{
attr = {
fillColor = (0,255);
lineCapEnd = 1;
lineCapStart = 1;
strokeWidth = 40;
};
closed = 0;
nodes = (
(60,400,l),
(361,400,l)
);
},
{
attr = {
fillColor = (0,255);
lineCapEnd = 1;
lineCapStart = 1;
strokeWidth = 40;
};
closed = 0;
nodes = (
(361,400,l),
(460,300,l)
);
},
{
attr = {
fillColor = (0,255);
lineCapEnd = 1;
lineCapStart = 1;
strokeWidth = 40;
};
closed = 0;
nodes = (
(460,300,l),
(460,0,l)
);
}
);
width = 520;
},
{
layerId = "100BDB2C-EC52-4B94-A255-ABC384BB93CE";
shapes = (
{
attr = {
fillColor = (0,255);
lineCapEnd = 1;
lineCapStart = 1;
strokeWidth = 50;
};
closed = 0;
nodes = (
(75,0,l),
(75,400,l)
);
},
{
attr = {
fillColor = (0,255);
lineCapEnd = 1;
lineCapStart = 1;
strokeWidth = 50;
};
closed = 0;
nodes = (
(75,400,l),
(376,400,l)
);
},
{
attr = {
fillColor = (0,255);
lineCapEnd = 1;
lineCapStart = 1;
strokeWidth = 50;
};
closed = 0;
nodes = (
(376,400,l),
(475,300,l)
);
},
{
attr = {
fillColor = (0,255);
lineCapEnd = 1;
lineCapStart = 1;
strokeWidth = 50;
};
closed = 0;
nodes = (
(475,300,l),
(475,0,l)
);
}
);
width = 550;
},
{
layerId = "9358492D-4FF9-4F7B-B997-4920F2B241F5";
shapes = (
{
attr = {
fillColor = (0,255);
lineCapEnd = 1;
lineCapStart = 1;
strokeWidth = 70;
};
closed = 0;
nodes = (
(105,0,l),
(105,400,l)
);
},
{
attr = {
fillColor = (0,255);
lineCapEnd = 1;
lineCapStart = 1;
strokeWidth = 70;
};
closed = 0;
nodes = (
(105,400,l),
(406,400,l)
);
},
{
attr = {
fillColor = (0,255);
lineCapEnd = 1;
lineCapStart = 1;
strokeWidth = 70;
};
closed = 0;
nodes = (
(406,400,l),
(505,300,l)
);
},
{
attr = {
fillColor = (0,255);
lineCapEnd = 1;
lineCapStart = 1;
strokeWidth = 70;
};
closed = 0;
nodes = (
(505,300,l),
(505,0,l)
);
}
);
width = 610;
}
);
unicode = 110;
},
{
glyphname = o;
lastChange = "2023-06-01 17:39:34 +0000";
layers = (
{
layerId = m01;
shapes = (
{
attr = {
fillColor = (0,255);
lineCapEnd = 1;
lineCapStart = 1;
};
closed = 0;
nodes = (
(100,0,l),
(301,0,l)
);
},
{
attr = {
fillColor = (0,255);
lineCapEnd = 1;
lineCapStart = 1;
};
closed = 0;
nodes = (
(301,0,l),
(400,99,l)
);
},
{
attr = {
fillColor = (0,255);
lineCapEnd = 1;
lineCapStart = 1;
};
closed = 0;
nodes = (
(400,99,l),
(400,300,l)
);
},
{
attr = {
fillColor = (0,255);
lineCapEnd = 1;
lineCapStart = 1;
};
closed = 0;
nodes = (
(400,300,l),
(301,400,l)
);
},
{
attr = {
fillColor = (0,255);
lineCapEnd = 1;
lineCapStart = 1;
};
closed = 0;
nodes = (
(301,400,l),
(100,400,l)
);
},
{
attr = {
fillColor = (0,255);
lineCapEnd = 1;
lineCapStart = 1;
};
closed = 0;
nodes = (
(100,400,l),
(0,300,l)
);
},
{
attr = {
fillColor = (0,255);
lineCapEnd = 1;
lineCapStart = 1;
};
closed = 0;
nodes = (
(0,300,l),
(0,99,l)
);
},
{
attr = {
fillColor = (0,255);
lineCapEnd = 1;
lineCapStart = 1;
};
closed = 0;
nodes = (
(0,99,l),
(100,0,l)
);
}
);
width = 400;
},
{
layerId = "BA8956FC-D56C-4217-8F3F-AABAC9C1291C";
shapes = (
{
attr = {
fillColor = (0,255);
lineCapEnd = 1;
lineCapStart = 1;
strokeWidth = 30;
};
closed = 0;
nodes = (
(145,0,l),
(346,0,l)
);
},
{
attr = {
fillColor = (0,255);
lineCapEnd = 1;
lineCapStart = 1;
strokeWidth = 30;
};
closed = 0;
nodes = (
(346,0,l),
(445,99,l)
);
},
{
attr = {
fillColor = (0,255);
lineCapEnd = 1;
lineCapStart = 1;
strokeWidth = 30;
};
closed = 0;
nodes = (
(445,99,l),
(445,300,l)
);
},
{
attr = {
fillColor = (0,255);
lineCapEnd = 1;
lineCapStart = 1;
strokeWidth = 30;
};
closed = 0;
nodes = (
(445,300,l),
(346,400,l)
);
},
{
attr = {
fillColor = (0,255);
lineCapEnd = 1;
lineCapStart = 1;
strokeWidth = 30;
};
closed = 0;
nodes = (
(346,400,l),
(145,400,l)
);
},
{
attr = {
fillColor = (0,255);
lineCapEnd = 1;
lineCapStart = 1;
strokeWidth = 30;
};
closed = 0;
nodes = (
(145,400,l),
(45,300,l)
);
},
{
attr = {
fillColor = (0,255);
lineCapEnd = 1;
lineCapStart = 1;
strokeWidth = 30;
};
closed = 0;
nodes = (
(45,300,l),
(45,99,l)
);
},
{
attr = {
fillColor = (0,255);
lineCapEnd = 1;
lineCapStart = 1;
strokeWidth = 30;
};
closed = 0;
nodes = (
(45,99,l),
(145,0,l)
);
}
);
width = 490;
},
{
layerId = "95B08458-B918-474B-A742-A9E3D7F32A73";
shapes = (
{
attr = {
fillColor = (0,255);
lineCapEnd = 1;
lineCapStart = 1;
strokeWidth = 40;
};
closed = 0;
nodes = (
(160,0,l),
(361,0,l)
);
},
{
attr = {
fillColor = (0,255);
lineCapEnd = 1;
lineCapStart = 1;
strokeWidth = 40;
};
closed = 0;
nodes = (
(361,0,l),
(460,99,l)
);
},
{
attr = {
fillColor = (0,255);
lineCapEnd = 1;
lineCapStart = 1;
strokeWidth = 40;
};
closed = 0;
nodes = (
(460,99,l),
(460,300,l)
);
},
{
attr = {
fillColor = (0,255);
lineCapEnd = 1;
lineCapStart = 1;
strokeWidth = 40;
};
closed = 0;
nodes = (
(460,300,l),
(361,400,l)
);
},
{
attr = {
fillColor = (0,255);
lineCapEnd = 1;
lineCapStart = 1;
strokeWidth = 40;
};
closed = 0;
nodes = (
(361,400,l),
(160,400,l)
);
},
{
attr = {
fillColor = (0,255);
lineCapEnd = 1;
lineCapStart = 1;
strokeWidth = 40;
};
closed = 0;
nodes = (
(160,400,l),
(60,300,l)
);
},
{
attr = {
fillColor = (0,255);
lineCapEnd = 1;
lineCapStart = 1;
strokeWidth = 40;
};
closed = 0;
nodes = (
(60,300,l),
(60,99,l)
);
},
{
attr = {
fillColor = (0,255);
lineCapEnd = 1;
lineCapStart = 1;
strokeWidth = 40;
};
closed = 0;
nodes = (
(60,99,l),
(160,0,l)
);
}
);
width = 520;
},
{
layerId = "100BDB2C-EC52-4B94-A255-ABC384BB93CE";
shapes = (
{
attr = {
fillColor = (0,255);
lineCapEnd = 1;
lineCapStart = 1;
strokeWidth = 50;
};
closed = 0;
nodes = (
(175,0,l),
(376,0,l)
);
},
{
attr = {
fillColor = (0,255);
lineCapEnd = 1;
lineCapStart = 1;
strokeWidth = 50;
};
closed = 0;
nodes = (
(376,0,l),
(475,99,l)
);
},
{
attr = {
fillColor = (0,255);
lineCapEnd = 1;
lineCapStart = 1;
strokeWidth = 50;
};
closed = 0;
nodes = (
(475,99,l),
(475,300,l)
);
},
{
attr = {
fillColor = (0,255);
lineCapEnd = 1;
lineCapStart = 1;
strokeWidth = 50;
};
closed = 0;
nodes = (
(475,300,l),
(376,400,l)
);
},
{
attr = {
fillColor = (0,255);
lineCapEnd = 1;
lineCapStart = 1;
strokeWidth = 50;
};
closed = 0;
nodes = (
(376,400,l),
(175,400,l)
);
},
{
attr = {
fillColor = (0,255);
lineCapEnd = 1;
lineCapStart = 1;
strokeWidth = 50;
};
closed = 0;
nodes = (
(175,400,l),
(75,300,l)
);
},
{
attr = {
fillColor = (0,255);
lineCapEnd = 1;
lineCapStart = 1;
strokeWidth = 50;
};
closed = 0;
nodes = (
(75,300,l),
(75,99,l)
);
},
{
attr = {
fillColor = (0,255);
lineCapEnd = 1;
lineCapStart = 1;
strokeWidth = 50;
};
closed = 0;
nodes = (
(75,99,l),
(175,0,l)
);
}
);
width = 550;
},
{
layerId = "9358492D-4FF9-4F7B-B997-4920F2B241F5";
shapes = (
{
attr = {
fillColor = (0,255);
lineCapEnd = 1;
lineCapStart = 1;
strokeWidth = 70;
};
closed = 0;
nodes = (
(205,0,l),
(406,0,l)
);
},
{
attr = {
fillColor = (0,255);
lineCapEnd = 1;
lineCapStart = 1;
strokeWidth = 70;
};
closed = 0;
nodes = (
(406,0,l),
(505,99,l)
);
},
{
attr = {
fillColor = (0,255);
lineCapEnd = 1;
lineCapStart = 1;
strokeWidth = 70;
};
closed = 0;
nodes = (
(505,99,l),
(505,300,l)
);
},
{
attr = {
fillColor = (0,255);
lineCapEnd = 1;
lineCapStart = 1;
strokeWidth = 70;
};
closed = 0;
nodes = (
(505,300,l),
(406,400,l)
);
},
{
attr = {
fillColor = (0,255);
lineCapEnd = 1;
lineCapStart = 1;
strokeWidth = 70;
};
closed = 0;
nodes = (
(406,400,l),
(205,400,l)
);
},
{
attr = {
fillColor = (0,255);
lineCapEnd = 1;
lineCapStart = 1;
strokeWidth = 70;
};
closed = 0;
nodes = (
(205,400,l),
(105,300,l)
);
},
{
attr = {
fillColor = (0,255);
lineCapEnd = 1;
lineCapStart = 1;
strokeWidth = 70;
};
closed = 0;
nodes = (
(105,300,l),
(105,99,l)
);
},
{
attr = {
fillColor = (0,255);
lineCapEnd = 1;
lineCapStart = 1;
strokeWidth = 70;
};
closed = 0;
nodes = (
(105,99,l),
(205,0,l)
);
}
);
width = 610;
}
);
unicode = 111;
},
{
glyphname = p;
lastChange = "2023-06-01 17:39:34 +0000";
layers = (
{
layerId = m01;
shapes = (
{
attr = {
fillColor = (0,255);
lineCapEnd = 1;
lineCapStart = 1;
};
closed = 0;
nodes = (
(0,-200,l),
(0,400,l)
);
},
{
attr = {
fillColor = (0,255);
lineCapEnd = 1;
lineCapStart = 1;
};
closed = 0;
nodes = (
(0,400,l),
(300,400,l)
);
},
{
attr = {
fillColor = (0,255);
lineCapEnd = 1;
lineCapStart = 1;
};
closed = 0;
nodes = (
(300,400,l),
(400,300,l)
);
},
{
attr = {
fillColor = (0,255);
lineCapEnd = 1;
lineCapStart = 1;
};
closed = 0;
nodes = (
(400,300,l),
(400,100,l)
);
},
{
attr = {
fillColor = (0,255);
lineCapEnd = 1;
lineCapStart = 1;
};
closed = 0;
nodes = (
(400,100,l),
(300,0,l)
);
},
{
attr = {
fillColor = (0,255);
lineCapEnd = 1;
lineCapStart = 1;
};
closed = 0;
nodes = (
(300,0,l),
(0,0,l)
);
}
);
width = 400;
},
{
layerId = "BA8956FC-D56C-4217-8F3F-AABAC9C1291C";
shapes = (
{
attr = {
fillColor = (0,255);
lineCapEnd = 1;
lineCapStart = 1;
strokeWidth = 30;
};
closed = 0;
nodes = (
(45,-200,l),
(45,400,l)
);
},
{
attr = {
fillColor = (0,255);
lineCapEnd = 1;
lineCapStart = 1;
strokeWidth = 30;
};
closed = 0;
nodes = (
(45,400,l),
(345,400,l)
);
},
{
attr = {
fillColor = (0,255);
lineCapEnd = 1;
lineCapStart = 1;
strokeWidth = 30;
};
closed = 0;
nodes = (
(345,400,l),
(445,300,l)
);
},
{
attr = {
fillColor = (0,255);
lineCapEnd = 1;
lineCapStart = 1;
strokeWidth = 30;
};
closed = 0;
nodes = (
(445,300,l),
(445,100,l)
);
},
{
attr = {
fillColor = (0,255);
lineCapEnd = 1;
lineCapStart = 1;
strokeWidth = 30;
};
closed = 0;
nodes = (
(445,100,l),
(345,0,l)
);
},
{
attr = {
fillColor = (0,255);
lineCapEnd = 1;
lineCapStart = 1;
strokeWidth = 30;
};
closed = 0;
nodes = (
(345,0,l),
(45,0,l)
);
}
);
width = 490;
},
{
layerId = "95B08458-B918-474B-A742-A9E3D7F32A73";
shapes = (
{
attr = {
fillColor = (0,255);
lineCapEnd = 1;
lineCapStart = 1;
strokeWidth = 40;
};
closed = 0;
nodes = (
(60,-200,l),
(60,400,l)
);
},
{
attr = {
fillColor = (0,255);
lineCapEnd = 1;
lineCapStart = 1;
strokeWidth = 40;
};
closed = 0;
nodes = (
(60,400,l),
(360,400,l)
);
},
{
attr = {
fillColor = (0,255);
lineCapEnd = 1;
lineCapStart = 1;
strokeWidth = 40;
};
closed = 0;
nodes = (
(360,400,l),
(460,300,l)
);
},
{
attr = {
fillColor = (0,255);
lineCapEnd = 1;
lineCapStart = 1;
strokeWidth = 40;
};
closed = 0;
nodes = (
(460,300,l),
(460,100,l)
);
},
{
attr = {
fillColor = (0,255);
lineCapEnd = 1;
lineCapStart = 1;
strokeWidth = 40;
};
closed = 0;
nodes = (
(460,100,l),
(360,0,l)
);
},
{
attr = {
fillColor = (0,255);
lineCapEnd = 1;
lineCapStart = 1;
strokeWidth = 40;
};
closed = 0;
nodes = (
(360,0,l),
(60,0,l)
);
}
);
width = 520;
},
{
layerId = "100BDB2C-EC52-4B94-A255-ABC384BB93CE";
shapes = (
{
attr = {
fillColor = (0,255);
lineCapEnd = 1;
lineCapStart = 1;
strokeWidth = 50;
};
closed = 0;
nodes = (
(75,-200,l),
(75,400,l)
);
},
{
attr = {
fillColor = (0,255);
lineCapEnd = 1;
lineCapStart = 1;
strokeWidth = 50;
};
closed = 0;
nodes = (
(75,400,l),
(375,400,l)
);
},
{
attr = {
fillColor = (0,255);
lineCapEnd = 1;
lineCapStart = 1;
strokeWidth = 50;
};
closed = 0;
nodes = (
(375,400,l),
(475,300,l)
);
},
{
attr = {
fillColor = (0,255);
lineCapEnd = 1;
lineCapStart = 1;
strokeWidth = 50;
};
closed = 0;
nodes = (
(475,300,l),
(475,100,l)
);
},
{
attr = {
fillColor = (0,255);
lineCapEnd = 1;
lineCapStart = 1;
strokeWidth = 50;
};
closed = 0;
nodes = (
(475,100,l),
(375,0,l)
);
},
{
attr = {
fillColor = (0,255);
lineCapEnd = 1;
lineCapStart = 1;
strokeWidth = 50;
};
closed = 0;
nodes = (
(375,0,l),
(75,0,l)
);
}
);
width = 550;
},
{
layerId = "9358492D-4FF9-4F7B-B997-4920F2B241F5";
shapes = (
{
attr = {
fillColor = (0,255);
lineCapEnd = 1;
lineCapStart = 1;
strokeWidth = 70;
};
closed = 0;
nodes = (
(105,-200,l),
(105,400,l)
);
},
{
attr = {
fillColor = (0,255);
lineCapEnd = 1;
lineCapStart = 1;
strokeWidth = 70;
};
closed = 0;
nodes = (
(105,400,l),
(405,400,l)
);
},
{
attr = {
fillColor = (0,255);
lineCapEnd = 1;
lineCapStart = 1;
strokeWidth = 70;
};
closed = 0;
nodes = (
(405,400,l),
(505,300,l)
);
},
{
attr = {
fillColor = (0,255);
lineCapEnd = 1;
lineCapStart = 1;
strokeWidth = 70;
};
closed = 0;
nodes = (
(505,300,l),
(505,100,l)
);
},
{
attr = {
fillColor = (0,255);
lineCapEnd = 1;
lineCapStart = 1;
strokeWidth = 70;
};
closed = 0;
nodes = (
(505,100,l),
(405,0,l)
);
},
{
attr = {
fillColor = (0,255);
lineCapEnd = 1;
lineCapStart = 1;
strokeWidth = 70;
};
closed = 0;
nodes = (
(405,0,l),
(105,0,l)
);
}
);
width = 610;
}
);
unicode = 112;
},
{
glyphname = q;
lastChange = "2023-06-01 17:39:34 +0000";
layers = (
{
layerId = m01;
shapes = (
{
attr = {
fillColor = (0,255);
lineCapEnd = 1;
lineCapStart = 1;
};
closed = 0;
nodes = (
(400,-200,l),
(400,400,l)
);
},
{
attr = {
fillColor = (0,255);
lineCapEnd = 1;
lineCapStart = 1;
};
closed = 0;
nodes = (
(400,400,l),
(100,400,l)
);
},
{
attr = {
fillColor = (0,255);
lineCapEnd = 1;
lineCapStart = 1;
};
closed = 0;
nodes = (
(100,400,l),
(0,300,l)
);
},
{
attr = {
fillColor = (0,255);
lineCapEnd = 1;
lineCapStart = 1;
};
closed = 0;
nodes = (
(0,300,l),
(0,100,l)
);
},
{
attr = {
fillColor = (0,255);
lineCapEnd = 1;
lineCapStart = 1;
};
closed = 0;
nodes = (
(0,100,l),
(100,0,l)
);
},
{
attr = {
fillColor = (0,255);
lineCapEnd = 1;
lineCapStart = 1;
};
closed = 0;
nodes = (
(100,0,l),
(400,0,l)
);
}
);
width = 400;
},
{
layerId = "BA8956FC-D56C-4217-8F3F-AABAC9C1291C";
shapes = (
{
attr = {
fillColor = (0,255);
lineCapEnd = 1;
lineCapStart = 1;
strokeWidth = 30;
};
closed = 0;
nodes = (
(445,-200,l),
(445,400,l)
);
},
{
attr = {
fillColor = (0,255);
lineCapEnd = 1;
lineCapStart = 1;
strokeWidth = 30;
};
closed = 0;
nodes = (
(445,400,l),
(145,400,l)
);
},
{
attr = {
fillColor = (0,255);
lineCapEnd = 1;
lineCapStart = 1;
strokeWidth = 30;
};
closed = 0;
nodes = (
(145,400,l),
(45,300,l)
);
},
{
attr = {
fillColor = (0,255);
lineCapEnd = 1;
lineCapStart = 1;
strokeWidth = 30;
};
closed = 0;
nodes = (
(45,300,l),
(45,100,l)
);
},
{
attr = {
fillColor = (0,255);
lineCapEnd = 1;
lineCapStart = 1;
strokeWidth = 30;
};
closed = 0;
nodes = (
(45,100,l),
(145,0,l)
);
},
{
attr = {
fillColor = (0,255);
lineCapEnd = 1;
lineCapStart = 1;
strokeWidth = 30;
};
closed = 0;
nodes = (
(145,0,l),
(445,0,l)
);
}
);
width = 490;
},
{
layerId = "95B08458-B918-474B-A742-A9E3D7F32A73";
shapes = (
{
attr = {
fillColor = (0,255);
lineCapEnd = 1;
lineCapStart = 1;
strokeWidth = 40;
};
closed = 0;
nodes = (
(460,-200,l),
(460,400,l)
);
},
{
attr = {
fillColor = (0,255);
lineCapEnd = 1;
lineCapStart = 1;
strokeWidth = 40;
};
closed = 0;
nodes = (
(460,400,l),
(160,400,l)
);
},
{
attr = {
fillColor = (0,255);
lineCapEnd = 1;
lineCapStart = 1;
strokeWidth = 40;
};
closed = 0;
nodes = (
(160,400,l),
(60,300,l)
);
},
{
attr = {
fillColor = (0,255);
lineCapEnd = 1;
lineCapStart = 1;
strokeWidth = 40;
};
closed = 0;
nodes = (
(60,300,l),
(60,100,l)
);
},
{
attr = {
fillColor = (0,255);
lineCapEnd = 1;
lineCapStart = 1;
strokeWidth = 40;
};
closed = 0;
nodes = (
(60,100,l),
(160,0,l)
);
},
{
attr = {
fillColor = (0,255);
lineCapEnd = 1;
lineCapStart = 1;
strokeWidth = 40;
};
closed = 0;
nodes = (
(160,0,l),
(460,0,l)
);
}
);
width = 520;
},
{
layerId = "100BDB2C-EC52-4B94-A255-ABC384BB93CE";
shapes = (
{
attr = {
fillColor = (0,255);
lineCapEnd = 1;
lineCapStart = 1;
strokeWidth = 50;
};
closed = 0;
nodes = (
(475,-200,l),
(475,400,l)
);
},
{
attr = {
fillColor = (0,255);
lineCapEnd = 1;
lineCapStart = 1;
strokeWidth = 50;
};
closed = 0;
nodes = (
(475,400,l),
(175,400,l)
);
},
{
attr = {
fillColor = (0,255);
lineCapEnd = 1;
lineCapStart = 1;
strokeWidth = 50;
};
closed = 0;
nodes = (
(175,400,l),
(75,300,l)
);
},
{
attr = {
fillColor = (0,255);
lineCapEnd = 1;
lineCapStart = 1;
strokeWidth = 50;
};
closed = 0;
nodes = (
(75,300,l),
(75,100,l)
);
},
{
attr = {
fillColor = (0,255);
lineCapEnd = 1;
lineCapStart = 1;
strokeWidth = 50;
};
closed = 0;
nodes = (
(75,100,l),
(175,0,l)
);
},
{
attr = {
fillColor = (0,255);
lineCapEnd = 1;
lineCapStart = 1;
strokeWidth = 50;
};
closed = 0;
nodes = (
(175,0,l),
(475,0,l)
);
}
);
width = 550;
},
{
layerId = "9358492D-4FF9-4F7B-B997-4920F2B241F5";
shapes = (
{
attr = {
fillColor = (0,255);
lineCapEnd = 1;
lineCapStart = 1;
strokeWidth = 70;
};
closed = 0;
nodes = (
(505,-200,l),
(505,400,l)
);
},
{
attr = {
fillColor = (0,255);
lineCapEnd = 1;
lineCapStart = 1;
strokeWidth = 70;
};
closed = 0;
nodes = (
(505,400,l),
(205,400,l)
);
},
{
attr = {
fillColor = (0,255);
lineCapEnd = 1;
lineCapStart = 1;
strokeWidth = 70;
};
closed = 0;
nodes = (
(205,400,l),
(105,300,l)
);
},
{
attr = {
fillColor = (0,255);
lineCapEnd = 1;
lineCapStart = 1;
strokeWidth = 70;
};
closed = 0;
nodes = (
(105,300,l),
(105,100,l)
);
},
{
attr = {
fillColor = (0,255);
lineCapEnd = 1;
lineCapStart = 1;
strokeWidth = 70;
};
closed = 0;
nodes = (
(105,100,l),
(205,0,l)
);
},
{
attr = {
fillColor = (0,255);
lineCapEnd = 1;
lineCapStart = 1;
strokeWidth = 70;
};
closed = 0;
nodes = (
(205,0,l),
(505,0,l)
);
}
);
width = 610;
}
);
unicode = 113;
},
{
glyphname = r;
lastChange = "2023-06-01 17:39:34 +0000";
layers = (
{
layerId = m01;
shapes = (
{
attr = {
fillColor = (0,255);
lineCapEnd = 1;
lineCapStart = 1;
};
closed = 0;
nodes = (
(0,400,l),
(0,0,l)
);
},
{
attr = {
fillColor = (0,255);
lineCapEnd = 1;
lineCapStart = 1;
};
closed = 0;
nodes = (
(0,0,l),
(0,200,l)
);
},
{
attr = {
fillColor = (0,255);
lineCapEnd = 1;
lineCapStart = 1;
};
closed = 0;
nodes = (
(0,200,l),
(100,300,l)
);
},
{
attr = {
fillColor = (0,255);
lineCapEnd = 1;
lineCapStart = 1;
};
closed = 0;
nodes = (
(100,300,l),
(200,400,l)
);
},
{
attr = {
fillColor = (0,255);
lineCapEnd = 1;
lineCapStart = 1;
};
closed = 0;
nodes = (
(200,400,l),
(300,400,l)
);
}
);
width = 300;
},
{
layerId = "BA8956FC-D56C-4217-8F3F-AABAC9C1291C";
shapes = (
{
attr = {
fillColor = (0,255);
lineCapEnd = 1;
lineCapStart = 1;
strokeWidth = 30;
};
closed = 0;
nodes = (
(45,400,l),
(45,0,l)
);
},
{
attr = {
fillColor = (0,255);
lineCapEnd = 1;
lineCapStart = 1;
strokeWidth = 30;
};
closed = 0;
nodes = (
(45,0,l),
(45,200,l)
);
},
{
attr = {
fillColor = (0,255);
lineCapEnd = 1;
lineCapStart = 1;
strokeWidth = 30;
};
closed = 0;
nodes = (
(45,200,l),
(145,300,l)
);
},
{
attr = {
fillColor = (0,255);
lineCapEnd = 1;
lineCapStart = 1;
strokeWidth = 30;
};
closed = 0;
nodes = (
(145,300,l),
(245,400,l)
);
},
{
attr = {
fillColor = (0,255);
lineCapEnd = 1;
lineCapStart = 1;
strokeWidth = 30;
};
closed = 0;
nodes = (
(245,400,l),
(345,400,l)
);
}
);
width = 390;
},
{
layerId = "95B08458-B918-474B-A742-A9E3D7F32A73";
shapes = (
{
attr = {
fillColor = (0,255);
lineCapEnd = 1;
lineCapStart = 1;
strokeWidth = 40;
};
closed = 0;
nodes = (
(60,400,l),
(60,0,l)
);
},
{
attr = {
fillColor = (0,255);
lineCapEnd = 1;
lineCapStart = 1;
strokeWidth = 40;
};
closed = 0;
nodes = (
(60,0,l),
(60,200,l)
);
},
{
attr = {
fillColor = (0,255);
lineCapEnd = 1;
lineCapStart = 1;
strokeWidth = 40;
};
closed = 0;
nodes = (
(60,200,l),
(160,300,l)
);
},
{
attr = {
fillColor = (0,255);
lineCapEnd = 1;
lineCapStart = 1;
strokeWidth = 40;
};
closed = 0;
nodes = (
(160,300,l),
(260,400,l)
);
},
{
attr = {
fillColor = (0,255);
lineCapEnd = 1;
lineCapStart = 1;
strokeWidth = 40;
};
closed = 0;
nodes = (
(260,400,l),
(360,400,l)
);
}
);
width = 420;
},
{
layerId = "100BDB2C-EC52-4B94-A255-ABC384BB93CE";
shapes = (
{
attr = {
fillColor = (0,255);
lineCapEnd = 1;
lineCapStart = 1;
strokeWidth = 50;
};
closed = 0;
nodes = (
(75,400,l),
(75,0,l)
);
},
{
attr = {
fillColor = (0,255);
lineCapEnd = 1;
lineCapStart = 1;
strokeWidth = 50;
};
closed = 0;
nodes = (
(75,0,l),
(75,200,l)
);
},
{
attr = {
fillColor = (0,255);
lineCapEnd = 1;
lineCapStart = 1;
strokeWidth = 50;
};
closed = 0;
nodes = (
(75,200,l),
(175,300,l)
);
},
{
attr = {
fillColor = (0,255);
lineCapEnd = 1;
lineCapStart = 1;
strokeWidth = 50;
};
closed = 0;
nodes = (
(175,300,l),
(275,400,l)
);
},
{
attr = {
fillColor = (0,255);
lineCapEnd = 1;
lineCapStart = 1;
strokeWidth = 50;
};
closed = 0;
nodes = (
(275,400,l),
(375,400,l)
);
}
);
width = 450;
},
{
layerId = "9358492D-4FF9-4F7B-B997-4920F2B241F5";
shapes = (
{
attr = {
fillColor = (0,255);
lineCapEnd = 1;
lineCapStart = 1;
strokeWidth = 70;
};
closed = 0;
nodes = (
(105,400,l),
(105,0,l)
);
},
{
attr = {
fillColor = (0,255);
lineCapEnd = 1;
lineCapStart = 1;
strokeWidth = 70;
};
closed = 0;
nodes = (
(105,0,l),
(105,200,l)
);
},
{
attr = {
fillColor = (0,255);
lineCapEnd = 1;
lineCapStart = 1;
strokeWidth = 70;
};
closed = 0;
nodes = (
(105,200,l),
(205,300,l)
);
},
{
attr = {
fillColor = (0,255);
lineCapEnd = 1;
lineCapStart = 1;
strokeWidth = 70;
};
closed = 0;
nodes = (
(205,300,l),
(305,400,l)
);
},
{
attr = {
fillColor = (0,255);
lineCapEnd = 1;
lineCapStart = 1;
strokeWidth = 70;
};
closed = 0;
nodes = (
(305,400,l),
(405,400,l)
);
}
);
width = 510;
}
);
unicode = 114;
},
